<?xml version="1.0" encoding="UTF-8"?>
<svg width="56px" height="56px" viewBox="0 0 56 56" version="1.1" xmlns="http://www.w3.org/2000/svg" xmlns:xlink="http://www.w3.org/1999/xlink">
    <title>Discord Button</title>
    <g id="Page-1" stroke="none" stroke-width="1" fill="none" fill-rule="evenodd">
        <g id="Desktop-1Pager-v01" transform="translate(-1209.000000, -31.000000)">
            <g id="Banner-Content" transform="translate(637.000000, 34.000000)">
                <g id="Discord-Button" transform="translate(575.000000, 0.000000)">
                    <rect id="Rectangle" stroke="#D627FF" stroke-width="3" fill="#F7E9FF" x="-1.5" y="-1.5" width="53" height="53"></rect>
                    <g id="discord" transform="translate(10.000000, 13.846154)" fill="#2B00D0" fill-rule="nonzero">
                        <path d="M26.047405,1.91300922 C24.0525679,1.01200282 21.9473458,0.369499512 19.7844649,0.00159108817 C19.7441696,-0.00580636175 19.7035964,0.0130616182 19.683824,0.048392575 C19.4133116,0.521831874 19.1136966,1.13933397 18.9039533,1.62463133 C16.5389566,1.27620624 14.1860111,1.27620624 11.8696041,1.62463133 C11.6598608,1.12848511 11.3493484,0.521831874 11.0776821,0.048392575 C11.0570888,0.0139428847 11.0171524,-0.0045788434 10.9770412,0.00171723773 C8.81394173,0.36877029 6.70857737,1.01121905 4.71397296,1.91288307 C4.69690912,1.92005748 4.68252949,1.93226714 4.67281917,1.9478265 C0.683850331,7.81176266 -0.408968669,13.5315099 0.127184435,19.180361 C0.130247239,19.2083015 0.14467692,19.2338312 0.16718438,19.2511309 C2.79897561,21.1529617 5.34833105,22.3074825 7.85037887,23.0727057 C7.89022014,23.0844037 7.93325492,23.0705235 7.95832744,23.0378884 C8.55012149,22.2426416 9.07768487,21.4039993 9.53012014,20.5222139 C9.54269904,20.4977909 9.54406539,20.4692411 9.53387468,20.443763 C9.52368397,20.4182849 9.50290867,20.3983097 9.47678688,20.3888738 C8.63986496,20.0765275 7.84307119,19.695682 7.07653379,19.2632413 C7.04814623,19.2468373 7.02993727,19.2175886 7.02798146,19.1852527 C7.02602565,19.1529169 7.0405804,19.1217495 7.06679021,19.1021483 C7.22807204,18.9831893 7.38948208,18.8595627 7.54345622,18.7345485 C7.57137106,18.7119009 7.60991549,18.7067691 7.64294326,18.7213028 C12.6785773,20.9835428 18.1301082,20.9835428 23.1062552,18.7213028 C23.1393356,18.7058166 23.178525,18.7104832 23.2068961,18.733287 C23.3609984,18.858175 23.5222803,18.9831893 23.6848441,19.1021483 C23.7111215,19.1215582 23.7258619,19.1525606 23.7241647,19.1848483 C23.7224674,19.2171359 23.704555,19.2464764 23.6763826,19.2631151 C22.9095668,19.7038156 22.1062842,20.0799856 21.2751039,20.3876123 C21.2489983,20.3974343 21.2283827,20.417736 21.2184218,20.4434309 C21.2084609,20.4691259 21.2100986,20.4977798 21.2229245,20.5222139 C21.6849751,21.4027378 22.2125385,22.2413801 22.7934351,23.0366269 C22.8177664,23.0702733 22.8612593,23.0848096 22.9013837,23.0727057 C25.4154828,22.3073563 27.9648382,21.1528355 30.5966294,19.2511309 C30.6195558,19.2346738 30.6341755,19.2093043 30.6367576,19.1814964 C31.2782952,12.6507336 29.5621437,6.97791407 26.0874049,1.94896185 C26.078875,1.93262364 26.0646871,1.91982652 26.047405,1.91288307 L26.047405,1.91300922 Z M10.2820422,15.7407671 C8.76601863,15.7407671 7.51678959,14.3711613 7.51678959,12.6892093 C7.51678959,11.0073833 8.7417879,9.63777754 10.2821704,9.63777754 C11.8344759,9.63777754 13.0715255,11.0193675 13.0472948,12.6893354 C13.0472948,14.3711613 11.8222965,15.7407671 10.2820422,15.7407671 L10.2820422,15.7407671 Z M20.5061306,15.7407671 C18.990107,15.7407671 17.740878,14.3711613 17.740878,12.6892093 C17.740878,11.0073833 18.9657481,9.63777754 20.5061306,9.63777754 C22.0584361,9.63777754 23.2954857,11.0193675 23.271255,12.6893354 C23.271255,14.3711613 22.0584361,15.7407671 20.5061306,15.7407671 L20.5061306,15.7407671 Z" id="Shape"></path>
                    </g>
                </g>
            </g>
        </g>
    </g>
</svg>