<svg width="159" height="63" viewBox="0 0 159 63" fill="none" xmlns="http://www.w3.org/2000/svg">
<path fill-rule="evenodd" clip-rule="evenodd" d="M79.9267 23.1934C79.9059 23.7502 79.7229 24.2888 79.4003 24.7426L74.2525 24.737C74.6002 24.2612 74.8092 23.698 74.8565 23.1101C74.8565 22.2394 74.3565 21.8572 73.7575 21.3994C72.863 20.7157 71.7478 19.8633 71.7478 16.9633V12.338C71.9427 11.1525 72.6951 10.249 73.4048 9.3968C74.1279 8.5286 74.8066 7.71355 74.8066 6.7076C74.7995 6.0633 74.4542 5.47041 73.8979 5.1473H70.2905C70.1779 5.14148 70.0651 5.14148 69.9525 5.1473H69.6754C70.2279 5.47079 70.5707 6.06087 70.5787 6.70205C70.5787 7.7076 69.8995 8.52198 69.1761 9.38943C68.3895 10.3326 67.5506 11.3385 67.4756 12.7211V17.4075C67.5606 20.0464 68.6268 20.8642 69.4859 21.5232C70.0821 21.9805 70.5787 22.3614 70.5787 23.2212C70.5787 24.2273 69.8987 25.0434 69.1748 25.9121C68.3886 26.8556 67.5506 27.8613 67.4756 29.2402V33.9211C67.5606 36.56 68.6268 37.3778 69.4859 38.0368C70.0821 38.4941 70.5787 38.875 70.5787 39.7347C70.5787 40.7409 69.8987 41.5569 69.1748 42.4257C68.3886 43.3692 67.5506 44.3749 67.4756 45.7538V50.4625C67.5604 53.0917 68.6216 53.9047 69.4797 54.5622C70.0787 55.0211 70.5787 55.4042 70.5787 56.2761C70.5591 56.8245 70.38 57.3553 70.0633 57.8031C70.2135 57.8015 70.3634 57.7904 70.5122 57.7697H73.05C74.3578 57.7697 74.8121 57.2811 74.8121 56.1706C74.8121 55.314 74.317 54.9371 73.722 54.4842C72.8898 53.8509 71.8623 53.0687 71.7201 50.6179V45.8371C71.8008 44.4627 72.6367 43.4592 73.4205 42.5181C74.144 41.6494 74.8232 40.8339 74.8232 39.8291C74.8232 38.9598 74.3268 38.5816 73.7311 38.1278C73.0711 37.625 72.2892 37.0294 71.9252 35.5703H77.0231C77.3945 36.9552 78.158 37.5395 78.8058 38.0353C79.4046 38.4937 79.9045 38.8763 79.9045 39.7458C79.9045 40.7425 79.2268 41.554 78.5038 42.4198C77.8049 43.2566 77.0638 44.1441 76.8513 45.2985V50.6179C77.0195 53.2051 78.0215 54.0384 78.8055 54.6904C79.339 55.1341 79.7715 55.4937 79.7715 56.265C79.7715 57.9863 77.0065 60.7349 75.2277 61.9287C74.2913 62.6894 72.8616 62.9781 70.7504 62.9781H68.268C65.0707 62.9781 63.4194 62.3451 62.6547 60.4406C62.9722 59.8947 63.3804 59.4043 63.7755 58.9297C64.4977 58.0624 65.176 57.2477 65.176 56.2428C65.176 55.3717 64.6766 54.9896 64.0782 54.5318C63.2311 53.8836 62.1856 53.0837 62.0784 50.5291V45.7149C62.1729 44.3575 62.9972 43.3738 63.7716 42.4497C64.4956 41.5857 65.176 40.7737 65.176 39.757C65.176 38.8859 64.6766 38.5038 64.0782 38.046C63.2311 37.3978 62.1856 36.5979 62.0784 34.0433V29.1792C62.173 27.8181 62.9981 26.8327 63.7729 25.9074C64.4963 25.0434 65.176 24.2318 65.176 23.2156C65.176 22.3445 64.6766 21.9624 64.0782 21.5047C63.2311 20.8565 62.1856 20.0565 62.0784 17.5019V12.6711C62.1732 11.3067 63.0022 10.3138 63.7787 9.38386C64.5 8.51998 65.176 7.71037 65.176 6.7076C65.176 5.83571 64.6759 5.45294 64.0769 4.99438C63.5201 4.56807 62.8776 4.07626 62.4718 3.06506C63.1423 0.749607 64.7881 0 68.268 0H70.7504C72.7065 0 74.0752 0.244316 75.0172 0.888424C77.6105 2.22106 79.9267 4.75862 79.9267 6.7187C79.9267 7.7154 79.249 8.52689 78.526 9.39263C77.8271 10.2294 77.0859 11.1169 76.8735 12.2714V18.1183C77.117 20.1734 78.055 20.891 78.8279 21.4823C79.4269 21.9406 79.9267 22.3229 79.9267 23.1934ZM15.4545 23.2212C15.4139 23.7785 15.2223 24.3141 14.9004 24.7704H16.3854L20.0205 24.8037C20.3555 24.3522 20.5484 23.8109 20.5746 23.2489C20.5746 22.3776 20.0749 21.9955 19.476 21.5376C18.6284 20.8895 17.5819 20.0893 17.4715 17.5353V12.6711C17.5687 11.3135 18.3913 10.3341 19.1651 9.4128C19.8914 8.54807 20.5746 7.73457 20.5746 6.7076C20.5746 4.58649 17.8539 1.75464 14.9835 0.56637L14.845 0.510844L14.7674 0.477528C13.6687 0.136545 12.5199 -0.0136903 11.3706 0.0333159H8.8937C5.41381 0.0333159 3.76807 0.777371 3.09758 3.09838C3.50416 4.08897 4.13886 4.57641 4.68938 4.99919C5.2868 5.458 5.78507 5.84067 5.78507 6.7076C5.78507 7.71387 5.1051 8.53027 4.38112 9.39952C3.63495 10.2954 2.84204 11.2474 2.69861 12.5212V17.7685C2.86208 20.1197 3.86922 20.8915 4.68927 21.52C5.28685 21.978 5.78507 22.3598 5.78507 23.2212C5.78507 24.2274 5.1051 25.0438 4.38111 25.9131C3.63495 26.809 2.84204 27.761 2.69861 29.0348V34.2487C2.86223 36.6116 3.87099 37.3868 4.69143 38.0173C5.28805 38.4758 5.78507 38.8578 5.78507 39.7181C5.78507 40.7185 5.04529 41.6004 4.29008 42.5007C3.50272 43.4394 2.69861 44.398 2.69861 45.5317V50.779C2.86186 53.1366 3.86648 53.9062 4.68591 54.5339C5.28498 54.9929 5.78507 55.376 5.78507 56.2483C5.78507 57.2538 5.10582 58.0698 4.38209 58.9393C3.99072 59.4094 3.58636 59.8952 3.26935 60.435C4.03404 62.3562 5.67979 62.9892 8.8937 62.9892H11.3817C12.5968 63.0465 13.8117 62.8713 14.9613 62.4728C16.258 62.1897 20.5802 58.3528 20.5802 56.2483C20.5802 55.3773 20.0809 54.9952 19.4822 54.5371C18.6345 53.8883 17.5875 53.0871 17.4771 50.5291V45.7094C17.5744 44.3492 18.3999 43.3642 19.1749 42.4395C19.8996 41.5748 20.5802 40.7627 20.5802 39.7458C20.5802 38.8748 20.0809 38.4927 19.4822 38.0346C18.6345 37.3859 17.5875 36.5846 17.4771 34.0266V29.1292H10.2236V34.1821H12.3681C12.5087 36.5944 13.5163 37.3562 14.3437 37.9817C14.9503 38.4403 15.4601 38.8257 15.4601 39.7347C15.4601 40.7405 14.7791 41.5601 14.0547 42.4321C13.2312 43.4234 12.3514 44.4823 12.3514 45.9593V50.0682C12.3514 52.9762 13.4676 53.8307 14.3623 54.5156C14.9607 54.9737 15.4601 55.356 15.4601 56.2261C15.4601 57.3644 15.0057 57.8253 13.6979 57.8253H10.6835C11.024 57.362 11.2171 56.8066 11.2376 56.2317C11.2376 55.3615 10.7374 54.9793 10.1379 54.5211C9.24163 53.8362 8.12347 52.9818 8.12347 50.0738V45.9426C8.12347 44.4583 9.00301 43.4068 9.82724 42.4215C10.5539 41.5527 11.2376 40.7354 11.2376 39.7181C11.2376 38.8479 10.7374 38.4657 10.1379 38.0076C9.24163 37.3227 8.12347 36.4682 8.12347 33.5602V29.429C8.12347 27.9556 8.99431 26.9123 9.81168 25.933C10.5345 25.0671 11.2155 24.2512 11.2155 23.2323C11.2155 22.3621 10.7152 21.9799 10.1158 21.5218C9.21947 20.8368 8.10131 19.9824 8.10131 17.0744V12.5656C8.23114 11.2816 9.02943 10.3203 9.78156 9.41459C10.5061 8.54209 11.1878 7.72119 11.1878 6.71315C11.1861 6.08909 10.8608 5.51076 10.3289 5.18617H10.5782C10.6816 5.18043 10.7852 5.18043 10.8885 5.18617H14.6012C15.1285 5.51184 15.451 6.0869 15.4545 6.7076C15.4545 7.78167 14.7969 8.64351 14.0796 9.58362C13.3618 10.5244 12.5842 11.5435 12.3459 12.9321V17.0633C12.3459 19.9713 13.4621 20.8257 14.3568 21.5107C14.9552 21.9688 15.4545 22.351 15.4545 23.2212ZM30.8758 56.265C30.8663 56.6518 30.7697 57.0314 30.5932 57.3755L34.3002 57.3588V62.5006H22.2702V62.4562C22.2702 60.9719 23.1482 59.9204 23.971 58.935C24.6964 58.0663 25.3789 57.2489 25.3789 56.2317C25.3789 55.3615 24.8795 54.9793 24.2811 54.5211C23.3864 53.8362 22.2702 52.9818 22.2702 50.0738V45.9426C22.2702 44.4583 23.1482 43.4068 23.971 42.4215C24.6964 41.5527 25.3789 40.7354 25.3789 39.7181C25.3789 38.8479 24.8795 38.4657 24.2811 38.0076C23.3864 37.3227 22.2702 36.4682 22.2702 33.5602V29.429C22.2702 27.9556 23.1489 26.9107 23.9736 25.93C24.7028 25.0627 25.3899 24.2456 25.3899 23.2267C25.3899 22.3566 24.8906 21.9743 24.2922 21.5162C23.3975 20.8313 22.2813 19.9768 22.2813 17.0688V12.9377C22.2813 11.4534 23.1593 10.4019 23.982 9.41653C24.7075 8.54778 25.3899 7.73043 25.3899 6.71315C25.3899 5.84301 24.8906 5.46075 24.2922 5.00264C23.3975 4.31772 22.2813 3.46325 22.2813 0.555265V0.444212H27.7671V0.555265C27.7671 3.46124 28.8869 4.31912 29.7823 5.00513C30.3788 5.46213 30.8758 5.84287 30.8758 6.70205C30.8758 7.70776 30.1948 8.52739 29.4704 9.39944C28.6469 10.3907 27.7671 11.4496 27.7671 12.9266V17.0466C27.7671 19.9606 28.8879 20.8206 29.7835 21.5078C30.3795 21.9651 30.8758 22.3459 30.8758 23.2045C30.8758 24.2102 30.1948 25.0298 29.4704 25.9019L29.4704 25.9019L29.4704 25.9019C28.6469 26.8931 27.7671 27.9521 27.7671 29.429V33.5769C27.7671 36.4908 28.8879 37.3508 29.7835 38.0381C30.3795 38.4954 30.8758 38.8762 30.8758 39.7347C30.8758 40.7405 30.1948 41.5601 29.4704 42.4321C28.6469 43.4234 27.7671 44.4823 27.7671 45.9593V50.1071C27.7671 53.0151 28.8833 53.8695 29.778 54.5545C30.3764 55.0126 30.8758 55.3948 30.8758 56.265ZM42.2741 29.429C42.2741 27.953 43.1527 26.896 43.9758 25.9059C44.7008 25.0338 45.3827 24.2135 45.3827 23.2045C45.3827 22.3433 44.886 21.963 44.2897 21.5064C43.3942 20.8208 42.2741 19.9631 42.2741 17.0466V12.9044C42.2741 11.4283 43.1527 10.3713 43.9758 9.38123C44.7008 8.50907 45.3827 7.68884 45.3827 6.67983C45.3827 5.81866 44.886 5.43834 44.2897 4.98175C43.3942 4.29609 42.2741 3.43842 42.2741 0.521949V0.444212H36.7882V1.33264C36.9763 3.61018 37.9658 4.36985 38.7723 4.98911C39.3678 5.4463 39.8636 5.82695 39.8636 6.68539C39.8636 7.68622 39.1843 8.49917 38.4614 9.36423C37.7244 10.2462 36.9421 11.1822 36.7882 12.4268V17.8462C36.9763 20.1238 37.9658 20.8834 38.7723 21.5027C39.3678 21.9599 39.8636 22.3405 39.8636 23.199C39.8636 24.1998 39.1843 25.0127 38.4614 25.8778C37.7244 26.7597 36.9421 27.6958 36.7882 28.9404V34.3598C36.9763 36.6373 37.9658 37.397 38.7723 38.0163C39.3678 38.4734 39.8636 38.8541 39.8636 39.7125C39.8636 40.7134 39.1843 41.5263 38.4614 42.3914C37.7244 43.2733 36.9421 44.2094 36.7882 45.454V50.8734C36.9763 53.1509 37.9658 53.9106 38.7723 54.5298C39.3678 54.987 39.8636 55.3677 39.8636 56.2261C39.8636 57.2269 39.1843 58.0399 38.4614 58.905C37.7244 59.7869 36.9421 60.723 36.7882 61.9675V62.5228H42.2741V62.4562C42.2741 60.9801 43.1527 59.9231 43.9758 58.9331C44.7008 58.0609 45.3827 57.2407 45.3827 56.2317C45.3827 55.3705 44.886 54.9902 44.2897 54.5336C43.3942 53.8479 42.2741 52.9902 42.2741 50.0738V45.937C42.2741 44.461 43.1527 43.404 43.9758 42.4139C44.7008 41.5418 45.3827 40.7215 45.3827 39.7125C45.3827 38.8514 44.886 38.471 44.2897 38.0145C43.3942 37.3288 42.2741 36.4711 42.2741 33.5546V29.429ZM99.9028 23.2045C99.9028 22.3346 99.4037 21.952 98.8056 21.4936C97.934 20.8255 96.8523 19.9965 96.7997 17.2632V12.7711C96.8463 11.3524 97.6981 10.3279 98.4975 9.3667C99.2217 8.49579 99.9028 7.67672 99.9028 6.66318C99.9028 5.79649 99.4048 5.41419 98.8076 4.95582C97.9357 4.2865 96.8524 3.45497 96.7997 0.716292V0.444212H91.397V1.18271C91.5543 3.56885 92.5647 4.34398 93.3872 4.97503C93.9849 5.4336 94.4835 5.81609 94.4835 6.68539C94.4835 7.70455 93.7982 8.52906 93.0713 9.40369C92.3249 10.3017 91.5346 11.2526 91.397 12.5212V17.6963C91.5543 20.0824 92.5647 20.8575 93.3872 21.4886C93.9849 21.9472 94.4835 22.3297 94.4835 23.199C94.4835 24.2059 93.8057 25.0209 93.083 25.8899C92.6459 26.4154 92.1924 26.9606 91.8625 27.58H87.6179C87.9525 26.9433 88.4151 26.3878 88.8588 25.8547C89.5761 24.9931 90.2445 24.1904 90.2445 23.199C90.2445 22.3292 89.7456 21.9468 89.1477 21.4884C88.3141 20.8493 87.288 20.0625 87.1525 17.6019V12.6045C87.2718 11.2858 88.0823 10.3118 88.8435 9.39715C89.5662 8.52867 90.2445 7.71363 90.2445 6.7076C90.2445 5.84716 89.7483 5.46558 89.1526 5.00739C88.3181 4.36564 87.2882 3.57358 87.1525 1.10498V0.444212H81.6666V1.28266C81.8238 3.66099 82.8331 4.43389 83.6554 5.06361C84.2538 5.52183 84.7531 5.90424 84.7531 6.77423C84.7531 7.79402 84.067 8.61892 83.3395 9.49348C82.5936 10.3903 81.8041 11.3394 81.6666 12.6045V17.7962C81.8238 20.1746 82.8331 20.9475 83.6554 21.5772C84.2538 22.0354 84.7531 22.4178 84.7531 23.2878C84.7531 24.3076 84.067 25.1325 83.3395 26.0071C82.5936 26.9039 81.8041 27.853 81.6666 29.1181V34.3098C81.8238 36.6881 82.8331 37.461 83.6554 38.0908C84.2538 38.549 84.7531 38.9314 84.7531 39.8014C84.7531 40.8212 84.067 41.6461 83.3395 42.5206C82.5936 43.4175 81.8041 44.3666 81.6666 45.6317V50.8234C81.8238 53.2017 82.8331 53.9746 83.6554 54.6043C84.2538 55.0625 84.7531 55.445 84.7531 56.3149C84.7531 57.3347 84.067 58.1596 83.3395 59.0342C82.5936 59.9311 81.8041 60.8802 81.6666 62.1452V62.5173H87.1525V62.123C87.2718 60.8079 88.0813 59.8343 88.8421 58.9194C89.5653 58.0496 90.2445 57.2328 90.2445 56.2261C90.2445 55.3653 89.7479 54.9838 89.1519 54.5258C88.3175 53.8847 87.2882 53.0937 87.1525 50.629V45.6317C87.2718 44.3166 88.0813 43.3429 88.8421 42.428C89.5653 41.5582 90.2445 40.7414 90.2445 39.7347C90.2445 38.874 89.7479 38.4924 89.1519 38.0344C88.3175 37.3933 87.2882 36.6024 87.1525 34.1377V32.7217H91.397V34.2099C91.5543 36.596 92.5647 37.3711 93.3872 38.0022C93.9849 38.4607 94.4835 38.8432 94.4835 39.7125C94.4835 40.7317 93.7982 41.5562 93.0713 42.4308C92.3249 43.3289 91.5346 44.2797 91.397 45.5484V50.7234C91.5543 53.1096 92.5647 53.8847 93.3872 54.5158C93.9849 54.9743 94.4835 55.3568 94.4835 56.2261C94.4835 57.2453 93.7982 58.0698 93.0713 58.9444C92.3249 59.8424 91.5346 60.7933 91.397 62.0619V62.5173H96.7997V62.3285C96.8463 60.9089 97.6992 59.8825 98.499 58.9201C99.2226 58.0493 99.9028 57.2308 99.9028 56.2206C99.9028 55.3565 99.4052 54.9746 98.8084 54.5165C97.9363 53.8472 96.8524 53.0154 96.7997 50.2792V45.8371C96.8463 44.4175 97.6992 43.3912 98.499 42.4288C99.2226 41.5579 99.9028 40.7394 99.9028 39.7292C99.9028 38.8651 99.4052 38.4832 98.8084 38.0252C97.9363 37.3559 96.8524 36.524 96.7997 33.7879V29.3457C96.8291 27.891 97.6873 26.8485 98.4887 25.8749C99.2016 25.0089 99.8696 24.1975 99.8696 23.199L99.9028 23.2045ZM116.798 31.1392V29.3124L116.765 29.3013C116.811 27.8832 117.682 26.8575 118.5 25.8943C119.242 25.0209 119.94 24.1989 119.94 23.1823C119.94 22.3127 119.441 21.93 118.843 21.4715C117.972 20.8028 116.889 19.9727 116.837 17.2354V12.5157C116.967 11.2317 117.765 10.2703 118.517 9.36461C119.242 8.49212 119.923 7.67122 119.923 6.66318C119.923 5.76158 119.458 5.3745 118.875 4.88903C118.198 4.32506 117.361 3.62832 116.909 1.83793C116.615 0.688528 113.634 0.444212 111.578 0.444212H110.73H101.864V1.27711C102.043 3.59676 103.042 4.3635 103.854 4.98753C104.45 5.44499 104.945 5.82576 104.945 6.68539C104.945 7.69063 104.266 8.50704 103.543 9.37652C102.804 10.2648 102.018 11.2086 101.864 12.4657V17.7907C102.043 20.1103 103.042 20.8771 103.854 21.5011C104.45 21.9586 104.945 22.3393 104.945 23.199C104.945 24.2042 104.266 25.0206 103.543 25.8901C102.804 26.7784 102.018 27.7221 101.864 28.9793V34.3043C102.043 36.6239 103.042 37.3906 103.854 38.0147C104.45 38.4721 104.945 38.8529 104.945 39.7125C104.945 40.7178 104.266 41.5342 103.543 42.4037C102.804 43.292 102.018 44.2357 101.864 45.4928V50.8234C102.043 53.143 103.042 53.9098 103.854 54.5338C104.45 54.9913 104.945 55.372 104.945 56.2317C104.945 57.2369 104.266 58.0533 103.543 58.9228C102.804 59.8111 102.018 60.7548 101.864 62.012V62.5228H107.35V62.4562C107.35 60.9719 108.228 59.9204 109.051 58.935C109.776 58.0663 110.459 57.2489 110.459 56.2317C110.459 55.3618 109.96 54.9804 109.362 54.5232C108.467 53.8393 107.35 52.9858 107.35 50.0738V45.9426C107.35 44.4556 108.231 43.3983 109.055 42.4095C109.779 41.5411 110.459 40.7255 110.459 39.7181C110.459 38.8915 109.98 38.5075 109.435 38.0712L109.412 38.0523H110.703C115.557 38.0523 116.798 36.4587 116.798 31.1392ZM111.395 18.2071V12.7711C111.59 11.5856 112.344 10.6808 113.055 9.82712C113.779 8.95754 114.46 8.14108 114.46 7.13515C114.45 6.49008 114.106 5.89665 113.551 5.56931H110.049C110.32 5.87407 110.463 6.27195 110.448 6.67983C110.448 7.68724 109.768 8.50282 109.044 9.37126C108.22 10.36 107.339 11.4174 107.339 12.9044V17.0411C107.339 19.9531 108.456 20.8066 109.351 21.4905C109.949 21.9477 110.448 22.3291 110.448 23.199C110.448 24.2179 109.756 25.0411 109.021 25.9148C108.191 26.9029 107.306 27.9556 107.306 29.429V32.905H109.606C111.196 32.905 111.373 32.2831 111.373 30.423V28.7572C111.592 27.6204 112.322 26.7436 113.012 25.9137C113.738 25.0411 114.421 24.2206 114.421 23.2045C114.421 22.3367 113.921 21.9563 113.322 21.5009C112.553 20.9162 111.622 20.2079 111.379 18.1849L111.395 18.2071ZM136.054 51.3176V45.5317C136.186 44.2533 136.977 43.2962 137.723 42.3936C138.444 41.5202 139.124 40.6978 139.124 39.6848C139.124 38.8162 138.625 38.4342 138.027 37.9762C137.207 37.348 136.201 36.5767 136.037 34.2099V28.9904C136.18 27.7154 136.971 26.7671 137.717 25.8736C138.442 25.0044 139.124 24.187 139.124 23.1712C139.124 22.3026 138.625 21.9207 138.027 21.4627C137.207 20.8344 136.201 20.0631 136.037 17.6963V12.2158C136.037 11.127 136.836 10.2041 137.616 9.30337C138.359 8.44474 139.085 7.60619 139.085 6.66318C139.085 5.73084 138.605 5.32591 137.977 4.79599C137.303 4.22762 136.459 3.51547 135.854 1.85458C135.356 0.494186 133.183 0 130.413 0H129.859H127.116C123.569 0 121.907 0.782923 121.264 3.2483C121.671 4.25804 122.314 4.7523 122.871 5.18039C123.469 5.6398 123.968 6.02299 123.968 6.88528C123.968 7.89081 123.289 8.70561 122.566 9.57365C121.871 10.4073 121.135 11.29 120.921 12.4379V18.3459C121.167 20.3858 122.104 21.1053 122.874 21.6974C123.471 22.1561 123.968 22.5383 123.968 23.3989C123.968 24.4044 123.289 25.2192 122.566 26.0872C121.871 26.9209 121.135 27.8036 120.921 28.9515V34.8595C121.167 36.8994 122.104 37.6189 122.874 38.211C123.471 38.6697 123.968 39.0519 123.968 39.9124C123.968 40.918 123.289 41.7328 122.566 42.6008C121.871 43.4344 121.135 44.3172 120.921 45.4651V51.3675C121.167 53.4038 122.1 54.1191 122.87 54.7089C123.469 55.1678 123.968 55.5507 123.968 56.4204C123.968 57.4262 123.29 58.2399 122.567 59.1075L122.567 59.1076C122.204 59.5428 121.83 59.9916 121.525 60.485C122.3 62.3396 123.952 62.9559 127.116 62.9559H129.864C132.036 62.9559 133.505 62.6561 134.463 61.8454C136.237 60.6183 138.896 57.9141 138.896 56.2483C138.896 55.4763 138.464 55.1158 137.931 54.6713C137.226 54.0831 136.344 53.3479 136.054 51.3176ZM131.92 57.7864C133.228 57.7864 133.682 57.3255 133.682 56.1872C133.682 55.318 133.184 54.9463 132.586 54.5006C131.691 53.833 130.574 52.9993 130.574 50.0793V45.8649C130.574 44.3888 131.466 43.3491 132.303 42.3752C133.039 41.5173 133.732 40.7104 133.732 39.7014C133.732 38.8403 133.235 38.4599 132.639 38.0033C131.744 37.3177 130.623 36.46 130.623 33.5435V29.6234C130.623 28.1464 131.503 27.0875 132.327 26.0963C133.051 25.2242 133.732 24.4046 133.732 23.3989C133.732 22.5406 133.236 22.1606 132.64 21.7042C131.745 21.018 130.623 20.1589 130.623 17.241H130.579V12.7045C130.674 11.3501 131.501 10.3561 132.277 9.4241C132.999 8.5563 133.677 7.74219 133.677 6.74091C133.669 6.09667 133.327 5.50299 132.773 5.17507H129.354C129.171 5.15334 128.985 5.14406 128.8 5.1473H128.557C129.082 5.47284 129.406 6.04421 129.415 6.66318C129.415 7.66845 128.737 8.48274 128.013 9.35049C127.246 10.2705 126.429 11.2507 126.318 12.5823V17.5464C126.444 20.0388 127.478 20.8304 128.318 21.4728C128.916 21.9309 129.415 22.3132 129.415 23.1823C129.415 24.1977 128.734 25.0134 128.009 25.8812C127.243 26.7978 126.429 27.7723 126.318 29.1014V34.0599C126.444 36.5523 127.478 37.344 128.318 37.9864C128.916 38.4445 129.415 38.8267 129.415 39.6959C129.415 40.7113 128.734 41.527 128.009 42.3948C127.243 43.3113 126.429 44.2859 126.318 45.615V50.5735C126.444 53.0659 127.478 53.8576 128.318 54.4999C128.916 54.9581 129.415 55.3403 129.415 56.2094C129.393 56.7824 129.2 57.3356 128.861 57.7975C129.026 57.7988 129.191 57.7877 129.354 57.7642H131.92V57.7864ZM155.886 31.1337V29.429C155.886 27.9556 156.763 26.8982 157.586 25.9057C158.314 25.0281 159 24.2012 159 23.1823C159 22.3125 158.501 21.9311 157.903 21.4739C157.008 20.7899 155.891 19.9364 155.891 17.0244V12.7045C155.958 11.3128 156.801 10.3012 157.591 9.35253C158.315 8.48429 158.994 7.66883 158.994 6.66318C158.994 5.76172 158.529 5.37462 157.944 4.88926C157.266 4.32525 156.427 3.62856 155.975 1.83793C155.681 0.682976 152.689 0.444212 150.633 0.444212H149.785H140.919V1.39927C141.116 3.63732 142.096 4.3896 142.897 5.004C143.493 5.46121 143.989 5.84207 143.989 6.70205C143.989 7.70804 143.31 8.52455 142.587 9.39386C141.861 10.2663 141.091 11.1919 140.919 12.4157V17.9128C141.116 20.1509 142.096 20.9032 142.897 21.5176C143.493 21.9748 143.989 22.3556 143.989 23.2156C143.989 24.2216 143.31 25.0381 142.587 25.9074C141.861 26.7799 141.091 27.7055 140.919 28.9293V34.4264C141.116 36.6528 142.102 37.4072 142.908 38.0242C143.509 38.4844 144.011 38.8681 144.011 39.7292C144.011 40.7352 143.332 41.5517 142.609 42.421C141.883 43.2935 141.113 44.2191 140.941 45.4429V50.94C141.138 53.178 142.118 53.9303 142.919 54.5447C143.515 55.0019 144.011 55.3828 144.011 56.2428C144.011 57.2488 143.332 58.0653 142.609 58.9346C141.883 59.807 141.113 60.7327 140.941 61.9564V62.5117H146.427V61.912C146.606 60.6999 147.37 59.7858 148.09 58.9227C148.815 58.0541 149.497 57.2372 149.497 56.2206C149.497 55.3527 149 54.9756 148.403 54.5229C147.607 53.9184 146.633 53.1791 146.427 50.9566V45.404C146.607 44.1896 147.373 43.27 148.094 42.4034C148.818 41.5346 149.497 40.7189 149.497 39.7125C149.497 38.886 149.018 38.5019 148.473 38.0656L148.45 38.0467H149.791C154.645 38.0467 155.886 36.4531 155.886 31.1337ZM153.542 23.2185C153.541 22.3496 153.042 21.9671 152.445 21.5089C151.651 20.9 150.683 20.1575 150.478 17.9628V12.6767C150.696 11.5445 151.422 10.6701 152.11 9.84156C152.836 8.9675 153.52 8.14455 153.52 7.12405C153.51 6.47898 153.166 5.88554 152.611 5.5582H149.059C149.33 5.86297 149.473 6.26085 149.458 6.66873C149.458 7.67508 148.779 8.49075 148.055 9.35964C147.334 10.2262 146.568 11.1458 146.388 12.3602V17.9128C146.594 20.1353 147.568 20.8746 148.365 21.4791C148.961 21.9318 149.458 22.3089 149.458 23.1768C149.458 24.1934 148.776 25.0103 148.051 25.8789C147.331 26.742 146.568 27.6561 146.388 28.8682V32.8772H148.688C150.284 32.8772 150.461 32.2553 150.461 30.3952V28.8738C150.648 27.6792 151.41 26.7698 152.129 25.9112L152.129 25.9109C152.857 25.0422 153.541 24.2257 153.542 23.2185ZM48.3916 0.444212H61.2195V5.49712H57.5291C57.8421 5.80939 58.0126 6.23738 58.0001 6.67983C58.0001 7.68786 57.3204 8.50414 56.5968 9.37325C55.8377 10.2851 55.0301 11.2551 54.9081 12.5656V17.613C55.0469 20.0693 56.0742 20.8582 56.9072 21.4979C57.5034 21.9558 58.0001 22.3372 58.0001 23.199C58.0001 24.2064 57.3213 25.0223 56.5981 25.8915C55.8386 26.8044 55.0301 27.7761 54.9081 29.0903V34.1266C55.0469 36.5828 56.0742 37.3718 56.9072 38.0115C57.5034 38.4694 58.0001 38.8508 58.0001 39.7125C58.0001 40.72 57.3213 41.5359 56.5981 42.405C55.8386 43.318 55.0301 44.2897 54.9081 45.6039V50.6179C55.0469 53.0742 56.0742 53.8631 56.9072 54.5028C57.5034 54.9607 58.0001 55.3422 58.0001 56.2039C58.0001 57.2113 57.3213 58.0272 56.5981 58.8964C55.8386 59.8093 55.0301 60.7811 54.9081 62.0953V62.495H49.5109V61.9398C49.6827 60.7183 50.4515 59.7979 51.1773 58.929C51.9033 58.0599 52.5863 57.2423 52.5863 56.2261C52.5863 55.3558 52.0853 54.9713 51.4855 54.5108C50.6846 53.8959 49.7073 53.1457 49.5109 50.9233V45.4262C49.6906 44.2076 50.4561 43.2928 51.1784 42.4299C51.9042 41.5627 52.5863 40.7478 52.5863 39.7292C52.5863 38.8589 52.0853 38.4743 51.4855 38.0139C50.6846 37.399 49.7073 36.6488 49.5109 34.4264V28.9126C49.6905 27.6946 50.4527 26.776 51.1719 25.9092C51.8953 25.0374 52.5752 24.218 52.5752 23.199C52.5752 22.3287 52.0742 21.9441 51.4744 21.4836C50.6735 20.8688 49.6963 20.1186 49.4998 17.8962V12.4102C49.672 11.1826 50.4445 10.2565 51.172 9.38409C51.8958 8.51627 52.5752 7.70166 52.5752 6.69649C52.5894 6.24556 52.4122 5.80972 52.0876 5.49712H48.3916V0.444212Z" fill="#FF007B"/>
<path fill-rule="evenodd" clip-rule="evenodd" d="M77.2281 23.1934C77.2099 23.7507 77.0267 24.29 76.7017 24.7426L71.5428 24.737C71.8926 24.2623 72.1019 23.6985 72.1468 23.1101C72.1468 22.2394 71.6468 21.8572 71.0478 21.3994C70.1533 20.7157 69.0382 19.8633 69.0382 16.9633V12.338C69.233 11.1525 69.9854 10.249 70.6951 9.3968C71.4182 8.5286 72.0969 7.71355 72.0969 6.7076C72.0887 6.06361 71.7437 5.47122 71.1882 5.1473H67.5864C67.4738 5.14148 67.3609 5.14148 67.2483 5.1473H66.9768C67.5264 5.47297 67.8667 6.0623 67.8745 6.70205C67.8745 7.70832 67.1956 8.52315 66.4724 9.39129C65.687 10.3339 64.8493 11.3394 64.7714 12.7211V17.4075C64.8597 20.0458 65.9248 20.8638 66.7829 21.5228C67.3786 21.9803 67.8745 22.3611 67.8745 23.2212C67.8745 24.2281 67.1948 25.0445 66.4711 25.914C65.6861 26.8569 64.8493 27.8622 64.7714 29.2402V33.9211C64.8597 36.5594 65.9248 37.3774 66.7829 38.0364C67.3786 38.4939 67.8745 38.8747 67.8745 39.7347C67.8745 40.7416 67.1948 41.5581 66.4711 42.4276C65.6861 43.3705 64.8493 44.3758 64.7714 45.7538V50.4625C64.8595 53.0911 65.9197 53.9044 66.7767 54.5618C67.3752 55.0209 67.8745 55.4039 67.8745 56.2761C67.8569 56.824 67.6797 57.3548 67.3647 57.8031C67.513 57.8013 67.6611 57.7902 67.808 57.7697H70.3514C71.6592 57.7697 72.1135 57.2811 72.1135 56.1706C72.1135 55.3143 71.6178 54.9374 71.0223 54.4847C70.189 53.8512 69.1605 53.0693 69.0215 50.6179V45.8371C69.0994 44.4618 69.9364 43.4578 70.7215 42.5162C71.4451 41.6482 72.1246 40.8332 72.1246 39.8291C72.1246 38.9594 71.6278 38.5813 71.0311 38.1272C70.3706 37.6246 69.5878 37.0288 69.221 35.5703H74.319C74.6931 36.9544 75.4558 37.5389 76.1025 38.0345C76.7011 38.4932 77.2004 38.8758 77.2004 39.7458C77.2004 40.7427 76.5239 41.5543 75.8022 42.4201C75.1048 43.2568 74.3651 44.1442 74.1527 45.2985V50.6179C74.3176 53.2057 75.3187 54.0388 76.1023 54.6908C76.6352 55.1343 77.0674 55.494 77.0674 56.265C77.0674 57.9863 74.3079 60.7349 72.5291 61.9287C71.5871 62.6894 70.1575 62.9781 68.0463 62.9781H65.5694C62.3665 62.9781 60.7208 62.3451 59.9505 60.4406C60.269 59.8964 60.6769 59.4074 61.0717 58.9342L61.0718 58.9341C61.7968 58.0651 62.4773 57.2494 62.4773 56.2428C62.4773 55.3714 61.9777 54.9894 61.3787 54.5314C60.5311 53.8833 59.4847 53.0832 59.3743 50.5291V45.7149C59.4716 44.3584 60.2962 43.3751 61.0709 42.4514C61.796 41.5868 62.4773 40.7744 62.4773 39.757C62.4773 38.8856 61.9777 38.5036 61.3787 38.0456C60.5311 37.3975 59.4847 36.5974 59.3743 34.0433V29.1792C59.4716 27.819 60.2971 26.834 61.0721 25.9092C61.7968 25.0445 62.4773 24.2325 62.4773 23.2156C62.4773 22.3443 61.9777 21.9622 61.3787 21.5043C60.5311 20.8562 59.4847 20.056 59.3743 17.5019V12.6711C59.4719 11.3076 60.3012 10.3151 61.0779 9.38566C61.8004 8.5211 62.4773 7.71107 62.4773 6.7076C62.4773 5.83571 61.9773 5.45294 61.3783 4.99438C60.8215 4.56807 60.179 4.07626 59.7732 3.06506C60.4437 0.749607 62.0895 0 65.5694 0H68.0463C70.0079 0 71.3766 0.244316 72.313 0.888424C74.9063 2.22106 77.2281 4.75862 77.2281 6.7187C77.2281 7.71554 76.5516 8.52711 75.8299 9.39299C75.1325 10.2297 74.3928 11.1171 74.1804 12.2714V18.1183C74.4239 20.1733 75.3601 20.891 76.1314 21.4822C76.7293 21.9405 77.2281 22.3229 77.2281 23.1934ZM12.7448 23.2212C12.7042 23.7785 12.5126 24.3141 12.1907 24.7704H13.7145L17.3551 24.8037C17.6762 24.3474 17.8573 23.807 17.876 23.2489C17.876 22.3778 17.3766 21.9958 16.7783 21.538C15.9311 20.8898 14.8856 20.0899 14.7785 17.5353V12.6711C14.8728 11.3126 15.6951 10.3328 16.4686 9.41102C17.1937 8.54696 17.876 7.73387 17.876 6.7076C17.876 4.58649 15.1553 1.75464 12.2904 0.56637L12.1519 0.510844L12.0688 0.477528C10.9701 0.136545 9.82127 -0.0136903 8.67202 0.0333159H6.19509C2.70966 0.0333159 1.06392 0.777371 0.393427 3.09838C0.800127 4.08925 1.43635 4.57669 1.9883 4.99956C2.58695 5.4582 3.08646 5.8409 3.08646 6.7076C3.08646 7.71182 2.40926 8.52293 1.68693 9.38807C0.939479 10.2833 0.143716 11.2364 0 12.5212V17.7685C0.163475 20.1197 1.17061 20.8915 1.99066 21.52C2.58824 21.978 3.08646 22.3598 3.08646 23.2212C3.08646 24.2274 2.40649 25.0438 1.68251 25.9131C0.936343 26.809 0.143433 27.761 0 29.0348V34.2654C0.163633 36.6285 1.17256 37.398 1.99304 38.0239C2.58956 38.4789 3.08646 38.8579 3.08646 39.7181C3.08646 40.7185 2.34668 41.6004 1.59147 42.5007C0.804116 43.4394 0 44.398 0 45.5317V50.779C0.163252 53.1366 1.16787 53.9062 1.9873 54.5339C2.58637 54.9929 3.08646 55.376 3.08646 56.2483C3.08646 57.2511 2.40847 58.0655 1.68675 58.9324C1.29353 59.4047 0.887339 59.8926 0.570746 60.435C1.32989 62.3562 2.98118 62.9892 6.19509 62.9892H8.67756C9.89089 63.047 11.104 62.8717 12.2517 62.4728C13.5538 62.1897 17.876 58.3528 17.876 56.2483C17.876 55.3776 17.377 54.9954 16.779 54.5375C15.9317 53.8887 14.8857 53.0876 14.7785 50.5291V45.7094C14.873 44.3483 15.6981 43.363 16.4729 42.4377C17.1964 41.5737 17.876 40.762 17.876 39.7458C17.876 38.8751 17.377 38.493 16.779 38.035C15.9317 37.3862 14.8857 36.5852 14.7785 34.0266V29.1292H7.51945V34.1821H9.6639C9.80457 36.5944 10.8122 37.3562 11.6395 37.9817C12.2462 38.4403 12.7559 38.8257 12.7559 39.7347C12.7559 40.7405 12.075 41.5601 11.3505 42.4321C10.527 43.4234 9.64728 44.4823 9.64728 45.9593V50.0849C9.64728 52.9929 10.7635 53.8473 11.6581 54.5322C12.2566 54.9904 12.7559 55.3726 12.7559 56.2428C12.7559 57.3811 12.3015 57.8419 10.9938 57.8419H7.97937C8.31773 57.3776 8.51061 56.8228 8.53349 56.2483C8.53349 55.3782 8.03415 54.9959 7.43573 54.5378C6.54103 53.8529 5.42486 52.9984 5.42486 50.0904V45.9593C5.42486 44.475 6.30284 43.4188 7.1256 42.429C7.85101 41.5564 8.53349 40.7354 8.53349 39.7181C8.53349 38.8479 8.03415 38.4657 7.43573 38.0076C6.54103 37.3227 5.42486 36.4682 5.42486 33.5602V29.429C5.42486 27.9556 6.28946 26.9123 7.10097 25.933C7.81859 25.0671 8.4947 24.2512 8.4947 23.2323C8.4947 22.3621 7.99536 21.9799 7.39694 21.5218C6.50225 20.8368 5.38607 19.9824 5.38607 17.0744V12.5656C5.51591 11.2816 6.31574 10.3202 7.06932 9.41441C7.79515 8.54198 8.47808 7.72113 8.47808 6.71315C8.47414 6.08826 8.14689 5.51018 7.61365 5.18617H7.863C7.96636 5.18036 8.06996 5.18036 8.17331 5.18617H11.8859C12.4162 5.50973 12.7412 6.08551 12.7448 6.7076C12.7448 7.79747 12.0863 8.65624 11.3682 9.59272C10.6522 10.5265 9.8769 11.5376 9.6362 12.9321V17.0633C9.6362 19.9713 10.7524 20.8257 11.6471 21.5107C12.2455 21.9688 12.7448 22.351 12.7448 23.2212ZM28.1605 56.265C28.1537 56.6521 28.0569 57.0323 27.8779 57.3755L31.585 57.3588V62.5006H19.5716V62.4562C19.5716 60.9719 20.4496 59.9204 21.2724 58.935C21.9978 58.0663 22.6802 57.2489 22.6802 56.2317C22.6802 55.3615 22.1809 54.9793 21.5825 54.5211C20.6878 53.8362 19.5716 52.9818 19.5716 50.0738V45.9426C19.5716 44.4583 20.4496 43.4068 21.2724 42.4215C21.9978 41.5527 22.6802 40.7354 22.6802 39.7181C22.6802 38.8479 22.1809 38.4657 21.5825 38.0076C20.6878 37.3227 19.5716 36.4682 19.5716 33.5602V29.429C19.5716 27.9556 20.4487 26.9107 21.2719 25.93C21.9999 25.0627 22.6858 24.2456 22.6858 23.2267C22.6858 22.3566 22.1864 21.9743 21.588 21.5162C20.6933 20.8313 19.5772 19.9768 19.5772 17.0688V12.9377C19.5772 11.4534 20.4551 10.4019 21.2779 9.41653C22.0033 8.54778 22.6858 7.73043 22.6858 6.71315C22.6858 5.84301 22.1864 5.46075 21.588 5.00264C20.6933 4.31772 19.5772 3.46325 19.5772 0.555265V0.444212H25.063V0.555265C25.063 3.46124 26.1787 4.31912 27.071 5.00513C27.6653 5.46213 28.1605 5.84287 28.1605 6.70205C28.1605 7.70776 27.4796 8.52739 26.7551 9.39944C25.9316 10.3907 25.0519 11.4496 25.0519 12.9266V17.0466C25.0519 19.9606 26.1727 20.8206 27.0683 21.5078C27.6643 21.9651 28.1605 22.3459 28.1605 23.2045C28.1605 24.2102 27.4796 25.0299 26.7551 25.9019C25.9316 26.8931 25.0519 27.9521 25.0519 29.429V33.5769C25.0519 36.4908 26.1727 37.3508 27.0683 38.0381C27.6643 38.4954 28.1605 38.8762 28.1605 39.7347C28.1605 40.7405 27.4796 41.5601 26.7551 42.4321C25.9316 43.4234 25.0519 44.4823 25.0519 45.9593V50.1071C25.0519 53.0151 26.1681 53.8695 27.0628 54.5545C27.6612 55.0126 28.1605 55.3948 28.1605 56.265ZM39.5755 29.429C39.5755 27.953 40.4541 26.896 41.2772 25.9059C42.0022 25.0338 42.6841 24.2135 42.6841 23.2045C42.6841 22.3433 42.1874 21.963 41.5911 21.5064C40.6956 20.8208 39.5755 19.9631 39.5755 17.0466V12.9044C39.5755 11.4283 40.4541 10.3713 41.2772 9.38123C42.0022 8.50907 42.6841 7.68884 42.6841 6.67983C42.6841 5.81866 42.1874 5.43834 41.5911 4.98175C40.6956 4.29609 39.5755 3.43842 39.5755 0.521949V0.444212H34.0896V1.33264C34.2651 3.61244 35.2454 4.36399 36.0455 4.97734C36.6348 5.42911 37.1262 5.80589 37.1262 6.66318C37.1262 7.66477 36.4458 8.47818 35.7216 9.34399C34.9844 10.2253 34.2018 11.161 34.0453 12.4046V17.824C34.2334 20.1016 35.2247 20.8613 36.0329 21.4805C36.6295 21.9377 37.1262 22.3183 37.1262 23.1768C37.1262 24.1783 36.4458 24.9918 35.7216 25.8576C34.9844 26.7389 34.2018 27.6745 34.0453 28.9182V34.3376C34.2334 36.6152 35.2247 37.3748 36.0329 37.9941C36.6295 38.4513 37.1262 38.8319 37.1262 39.6903C37.1262 40.6919 36.4458 41.5053 35.7216 42.3711C34.9844 43.2525 34.2018 44.1881 34.0453 45.4318V50.8511C34.2334 53.1287 35.2247 53.8884 36.0329 54.5077C36.6295 54.9648 37.1262 55.3455 37.1262 56.2039C37.1262 57.2055 36.4458 58.0189 35.7216 58.8847C34.9844 59.7661 34.2018 60.7017 34.0453 61.9453V62.5006H39.5311V62.434C39.5311 60.9579 40.4098 59.9009 41.2329 58.9108C41.9579 58.0387 42.6398 57.2185 42.6398 56.2094C42.6398 55.3483 42.1431 54.968 41.5467 54.5114C40.6513 53.8257 39.5311 52.968 39.5311 50.0516V45.937C39.5311 44.461 40.4098 43.404 41.2329 42.4139C41.9579 41.5418 42.6398 40.7215 42.6398 39.7125C42.6398 38.8514 42.1431 38.471 41.5467 38.0145C40.6513 37.3288 39.5311 36.4711 39.5311 33.5546V29.429H39.5755ZM97.2042 23.2045C97.2042 22.3343 96.7048 21.9518 96.1061 21.4932C95.2341 20.8252 94.1515 19.9959 94.0956 17.2632V12.7711C94.145 11.3532 94.9972 10.3292 95.7968 9.36843C96.5222 8.49688 97.2042 7.67739 97.2042 6.66318C97.2042 5.79625 96.7059 5.41398 96.1081 4.95544C95.2357 4.28619 94.1515 3.45446 94.0956 0.716292V0.444212H88.6597V1.18271C88.8169 3.56885 89.8273 4.34398 90.6498 4.97503C91.2476 5.4336 91.7461 5.81609 91.7461 6.68539C91.7461 7.70263 91.0648 8.52056 90.3401 9.39053C89.5932 10.2871 88.8003 11.239 88.6597 12.5212V17.6963C88.8169 20.0824 89.8273 20.8575 90.6498 21.4886C91.2476 21.9472 91.7461 22.3297 91.7461 23.199C91.7461 24.2036 91.0692 25.0172 90.348 25.884C89.9093 26.4113 89.4542 26.9583 89.1251 27.58H84.8805C85.2152 26.9433 85.6777 26.3878 86.1214 25.8547C86.8388 24.9931 87.5071 24.1904 87.5071 23.199C87.5071 22.3293 87.0073 21.9468 86.4083 21.4884C85.5731 20.8493 84.5451 20.0625 84.4095 17.6019V12.6045C84.5289 11.2857 85.3409 10.3117 86.1036 9.39699C86.8276 8.52858 87.5071 7.71357 87.5071 6.7076C87.5071 5.84718 87.01 5.4656 86.4131 5.00742C85.5771 4.36566 84.5453 3.57363 84.4095 1.10498V0.444212H78.9237V1.28266C79.084 3.66041 80.0924 4.43352 80.9136 5.06315C81.5115 5.52157 82.0102 5.90395 82.0102 6.77423C82.0102 7.79485 81.3243 8.62026 80.5969 9.49562C79.8521 10.3919 79.0639 11.3404 78.9237 12.6045V17.7962C79.084 20.174 80.0924 20.9471 80.9136 21.5767C81.5115 22.0351 82.0102 22.4175 82.0102 23.2878C82.0102 24.3084 81.3243 25.1338 80.5969 26.0092C79.8521 26.9054 79.0639 27.854 78.9237 29.1181V34.3098C79.084 36.6876 80.0924 37.4607 80.9136 38.0903C81.5115 38.5487 82.0102 38.9311 82.0102 39.8014C82.0102 40.822 81.3243 41.6474 80.5969 42.5228C79.8521 43.419 79.0639 44.3676 78.9237 45.6317V50.8234C79.084 53.2011 80.0924 53.9742 80.9136 54.6039C81.5115 55.0623 82.0102 55.4447 82.0102 56.3149C82.0102 57.3356 81.3243 58.161 80.5969 59.0363C79.8521 59.9326 79.0639 60.8812 78.9237 62.1452V62.5173H84.4095V62.123C84.5288 60.8079 85.3399 59.8342 86.1022 58.9192C86.8267 58.0495 87.5071 57.2327 87.5071 56.2261C87.5071 55.3654 87.0096 54.9838 86.4124 54.5258C85.5765 53.8847 84.5453 53.0938 84.4095 50.629V45.6317C84.5288 44.3165 85.3399 43.3428 86.1022 42.4279C86.8267 41.5581 87.5071 40.7414 87.5071 39.7347C87.5071 38.874 87.0096 38.4925 86.4124 38.0344C85.5765 37.3933 84.5453 36.6024 84.4095 34.1377V32.7217H88.6597V34.2099C88.8169 36.596 89.8273 37.3711 90.6498 38.0022C91.2476 38.4607 91.7461 38.8432 91.7461 39.7125C91.7461 40.7316 91.0622 41.5507 90.336 42.4205C89.5903 43.3136 88.8 44.2602 88.6597 45.5317V50.7068C88.8169 53.0929 89.8273 53.868 90.6498 54.4991C91.2476 54.9577 91.7461 55.3401 91.7461 56.2094C91.7461 57.2286 91.0608 58.0531 90.3339 58.9277C89.5875 59.8258 88.7972 60.7766 88.6597 62.0453V62.5006H94.0568V62.3118C94.1062 60.8931 94.9595 59.8671 95.7595 58.9052C96.4843 58.0337 97.1654 57.2148 97.1654 56.2039C97.1654 55.3396 96.6675 54.9577 96.0701 54.4995C95.1976 53.8302 94.1127 52.9982 94.0568 50.2626V45.8204C94.1062 44.4017 94.9595 43.3758 95.7595 42.4138C96.4843 41.5424 97.1654 40.7234 97.1654 39.7125C97.1654 38.8482 96.6675 38.4663 96.0701 38.0081C95.1976 37.3389 94.1127 36.5068 94.0568 33.7712V29.3291C94.1093 27.8921 94.9681 26.8577 95.7705 25.8912C96.4937 25.0202 97.171 24.2044 97.171 23.199L97.2042 23.2045ZM114.094 31.1392V29.3124L114.061 29.3013C114.107 27.8833 114.967 26.8577 115.775 25.8947C116.508 25.0212 117.197 24.1991 117.197 23.1823C117.197 22.3127 116.697 21.9301 116.098 21.4715C115.225 20.8028 114.141 19.9727 114.088 17.2354V12.5157C114.221 11.2326 115.02 10.2717 115.772 9.36654C116.498 8.49333 117.18 7.67196 117.18 6.66318C117.18 5.76172 116.714 5.37462 116.13 4.88926C115.452 4.32525 114.613 3.62856 114.16 1.83793C113.867 0.688528 110.891 0.444212 108.83 0.444212H107.982H99.1159V1.27711C99.295 3.59676 100.293 4.3635 101.106 4.98753C101.701 5.44499 102.197 5.82576 102.197 6.68539C102.197 7.69063 101.518 8.50704 100.794 9.37652C100.055 10.2648 99.27 11.2086 99.1159 12.4657V17.7907C99.295 20.1103 100.293 20.8771 101.106 21.5011C101.701 21.9586 102.197 22.3393 102.197 23.199C102.197 24.2042 101.518 25.0206 100.794 25.8901C100.055 26.7784 99.27 27.7221 99.1159 28.9793V34.3043C99.295 36.6239 100.293 37.3906 101.106 38.0147C101.701 38.4721 102.197 38.8529 102.197 39.7125C102.197 40.7178 101.518 41.5342 100.794 42.4037C100.055 43.292 99.27 44.2357 99.1159 45.4928V50.8234C99.295 53.143 100.293 53.9098 101.106 54.5338C101.701 54.9913 102.197 55.372 102.197 56.2317C102.197 57.2369 101.518 58.0533 100.794 58.9228C100.055 59.8111 99.27 60.7548 99.1159 62.012V62.5228H104.602V62.4562C104.602 60.9719 105.481 59.9204 106.306 58.935C107.032 58.0663 107.716 57.2489 107.716 56.2317C107.716 55.3618 107.216 54.9804 106.617 54.5232C105.72 53.8393 104.602 52.9858 104.602 50.0738V45.9426C104.602 44.4556 105.484 43.3983 106.31 42.4095C107.035 41.5411 107.716 40.7255 107.716 39.7181C107.716 38.8915 107.237 38.5075 106.692 38.0712L106.669 38.0523H107.999C112.853 38.0523 114.094 36.4587 114.094 31.1392ZM108.697 18.2071V12.7711C108.889 11.5846 109.642 10.6793 110.353 9.82504C111.076 8.95623 111.755 8.14028 111.755 7.13515C111.739 6.48924 111.385 5.89936 110.825 5.58041H107.323C107.591 5.88636 107.734 6.28342 107.721 6.69094C107.721 7.69834 107.041 8.51393 106.316 9.38236C105.49 10.3712 104.607 11.4285 104.607 12.9155V17.0522C104.607 19.9642 105.726 20.8177 106.622 21.5016C107.222 21.9588 107.721 22.3402 107.721 23.2101C107.721 24.229 107.034 25.0497 106.305 25.9209C105.48 26.9061 104.602 27.9556 104.602 29.429V32.905H106.907C108.497 32.905 108.675 32.2831 108.675 30.423V28.7572C108.893 27.6206 109.621 26.7438 110.31 25.9141C111.035 25.0414 111.717 24.2207 111.717 23.2045C111.717 22.3358 111.216 21.9555 110.617 21.4995C109.848 20.915 108.916 20.2062 108.663 18.1849L108.697 18.2071ZM133.35 51.3176V45.5317C133.493 44.257 134.282 43.306 135.026 42.4098C135.75 41.5377 136.431 40.7175 136.431 39.7014C136.431 38.8328 135.932 38.4509 135.334 37.9929C134.514 37.3647 133.508 36.5933 133.344 34.2265V29.007C133.487 27.7321 134.278 26.7838 135.024 25.8903C135.749 25.0211 136.431 24.2037 136.431 23.1879C136.431 22.3192 135.932 21.9373 135.334 21.4793C134.514 20.8511 133.508 20.0797 133.344 17.7129V12.2325C133.344 11.146 134.14 10.229 134.918 9.33207C135.663 8.47341 136.392 7.63307 136.392 6.67983C136.392 5.73699 135.907 5.32822 135.273 4.7941C134.597 4.22413 133.751 3.5114 133.145 1.85458C132.651 0.494186 130.479 0 127.709 0H127.155H124.412C120.843 0 119.203 0.782923 118.571 3.2483C118.977 4.25776 119.619 4.75202 120.175 5.18003C120.772 5.6396 121.27 6.02277 121.27 6.88528C121.27 7.89095 120.592 8.70584 119.87 9.57401C119.176 10.4075 118.442 11.2902 118.228 12.4379V18.3459C118.474 20.3858 119.409 21.1053 120.178 21.6973C120.773 22.1561 121.27 22.5383 121.27 23.3989C121.27 24.4045 120.592 25.2194 119.87 26.0876C119.176 26.9211 118.442 27.8038 118.228 28.9515V34.8595C118.474 36.8993 119.409 37.6189 120.178 38.2109C120.773 38.6697 121.27 39.0519 121.27 39.9124C121.27 40.9181 120.592 41.733 119.87 42.6012C119.176 43.4347 118.442 44.3173 118.228 45.4651V51.3675C118.474 53.4037 119.405 54.119 120.174 54.7089C120.771 55.1677 121.27 55.5506 121.27 56.4204C121.27 57.4262 120.592 58.2399 119.868 59.1075C119.506 59.5428 119.132 59.9916 118.826 60.485C119.607 62.3396 121.253 62.9559 124.417 62.9559H127.16C129.338 62.9559 130.801 62.6561 131.759 61.8454C133.533 60.6183 136.192 57.9141 136.192 56.2483C136.192 55.4763 135.76 55.1158 135.227 54.6713C134.522 54.0831 133.64 53.3479 133.35 51.3176ZM129.221 57.7864C130.529 57.7864 130.984 57.3255 130.984 56.1872C130.984 55.318 130.484 54.9463 129.886 54.5006C128.989 53.833 127.869 52.9993 127.869 50.0793V45.8649C127.869 44.3888 128.764 43.3491 129.601 42.3752C130.339 41.5173 131.033 40.7104 131.033 39.7014C131.033 38.8403 130.537 38.4599 129.94 38.0033C129.045 37.3177 127.925 36.46 127.925 33.5435V29.6234C127.925 28.1464 128.805 27.0875 129.628 26.0963C130.352 25.2242 131.033 24.4046 131.033 23.3989C131.033 22.5406 130.537 22.1606 129.942 21.7042C129.046 21.018 127.925 20.1589 127.925 17.241H127.875V12.7045C127.97 11.3501 128.798 10.3561 129.576 9.42399C130.299 8.55623 130.978 7.74215 130.978 6.74091C130.968 6.09584 130.624 5.50241 130.069 5.17507H126.656C126.472 5.15334 126.287 5.14406 126.102 5.1473H125.847C126.375 5.47076 126.701 6.04283 126.711 6.66318C126.711 7.66851 126.034 8.48283 125.312 9.35063C124.546 10.2706 123.73 11.2508 123.619 12.5823V17.5464C123.745 20.0387 124.778 20.8304 125.615 21.4728C126.213 21.9309 126.711 22.3131 126.711 23.1823C126.711 24.1977 126.031 25.0135 125.307 25.8814C124.543 26.7979 123.73 27.7724 123.619 29.1014V34.0599C123.745 36.5523 124.778 37.344 125.615 37.9863C126.213 38.4445 126.711 38.8267 126.711 39.6959C126.711 40.7113 126.031 41.5271 125.307 42.3949C124.543 43.3114 123.73 44.286 123.619 45.615V50.5735C123.745 53.0659 124.778 53.8575 125.615 54.4999C126.213 54.9581 126.711 55.3403 126.711 56.2094C126.69 56.7825 126.497 57.3358 126.157 57.7975C126.322 57.7987 126.487 57.7875 126.65 57.7642H129.216L129.221 57.7864ZM153.182 31.1337V29.429C153.182 27.9556 154.051 26.8982 154.867 25.9057C155.588 25.0281 156.268 24.2012 156.268 23.1823C156.268 22.3125 155.769 21.9311 155.171 21.4739C154.276 20.7899 153.16 19.9364 153.16 17.0244V12.7045C153.229 11.3137 154.071 10.3025 154.86 9.35437C155.583 8.48545 156.263 7.66955 156.263 6.66318C156.263 5.77134 155.802 5.38338 155.225 4.89716C154.552 4.32989 153.72 3.62888 153.276 1.83793C152.982 0.682976 149.99 0.444212 147.929 0.444212H147.081H138.215V1.39927C138.415 3.63679 139.396 4.38924 140.197 5.00356C140.794 5.46097 141.29 5.8418 141.29 6.70205C141.29 7.70882 140.61 8.52581 139.886 9.39588C139.16 10.2677 138.39 11.1929 138.215 12.4157V17.9128C138.415 20.1504 139.396 20.9028 140.197 21.5171C140.794 21.9745 141.29 22.3554 141.29 23.2156C141.29 24.2224 140.61 25.0394 139.886 25.9095C139.16 26.7813 138.39 27.7065 138.215 28.9293V34.4264C138.415 36.6521 139.396 37.4067 140.198 38.0236C140.797 38.484 141.296 38.8678 141.296 39.7292C141.296 40.736 140.616 41.553 139.891 42.423C139.165 43.2949 138.395 44.22 138.22 45.4429V50.94C138.421 53.1775 139.402 53.93 140.203 54.5443C140.799 55.0017 141.296 55.3825 141.296 56.2428C141.296 57.2495 140.616 58.0665 139.891 58.9366C139.165 59.8085 138.395 60.7336 138.22 61.9564V62.5117H143.706V61.912C143.886 60.6999 144.649 59.7858 145.369 58.9227C146.094 58.0541 146.776 57.2372 146.776 56.2206C146.776 55.3527 146.279 54.9756 145.683 54.5229C144.886 53.9184 143.912 53.1791 143.706 50.9566V45.404C143.886 44.1896 144.652 43.27 145.373 42.4034C146.097 41.5346 146.776 40.7189 146.776 39.7125C146.776 38.8817 146.297 38.498 145.749 38.0589L145.734 38.0467H147.086C151.946 38.0467 153.182 36.4531 153.182 31.1337ZM150.843 23.2185C150.842 22.3493 150.343 21.9668 149.745 21.5084C148.951 20.8996 147.982 20.157 147.773 17.9628V12.6767C147.992 11.5445 148.718 10.6701 149.406 9.84156C150.132 8.9675 150.816 8.14455 150.816 7.12405C150.808 6.4798 150.466 5.88613 149.912 5.5582H146.377C146.644 5.86498 146.785 6.26195 146.771 6.66873C146.771 7.67508 146.091 8.49075 145.368 9.35964C144.646 10.2262 143.881 11.1458 143.701 12.3602V17.9128C143.907 20.1353 144.881 20.8746 145.677 21.4791C146.274 21.9318 146.771 22.3089 146.771 23.1768C146.771 24.1976 146.086 25.0226 145.359 25.8987C144.643 26.762 143.885 27.6749 143.701 28.8738V32.8828H146.006C147.596 32.8828 147.773 32.2609 147.773 30.4007V28.8738C147.955 27.6773 148.717 26.7669 149.435 25.9071L149.435 25.9069C150.16 25.0397 150.842 24.2242 150.843 23.2185ZM45.6874 0.444212H58.5209L58.5486 5.49712H54.8582C55.1569 5.80996 55.3167 6.23048 55.3015 6.66318C55.3015 7.68085 54.6185 8.49957 53.8917 9.37085C53.1313 10.2823 52.323 11.2512 52.1984 12.5656V17.613C52.334 20.0698 53.3623 20.8586 54.1964 21.4984C54.7931 21.9561 55.2904 22.3375 55.2904 23.199C55.2904 24.2056 54.6113 25.021 53.8881 25.8894C53.1273 26.803 52.3177 27.7752 52.1984 29.0903V34.1266C52.334 36.5834 53.3623 37.3721 54.1964 38.0119C54.7931 38.4696 55.2904 38.8511 55.2904 39.7125C55.2904 40.7192 54.6113 41.5346 53.8881 42.403C53.1273 43.3165 52.3177 44.2887 52.1984 45.6039V50.6179C52.334 53.0748 53.3623 53.8635 54.1964 54.5033C54.7931 54.961 55.2904 55.3425 55.2904 56.2039C55.2904 57.2105 54.6113 58.026 53.8881 58.8944C53.1273 59.8079 52.3177 60.7801 52.1984 62.0953V62.495H46.8012V61.9398C46.973 60.7184 47.7402 59.7981 48.4647 58.9292C49.1893 58.0601 49.8711 57.2424 49.8711 56.2261C49.8711 55.3558 49.3711 54.9712 48.7724 54.5107C47.973 53.8959 46.9976 53.1457 46.8012 50.9233V45.4262C46.973 44.2048 47.7402 43.2845 48.4647 42.4157C49.1893 41.5465 49.8711 40.7288 49.8711 39.7125C49.8711 38.8417 49.3725 38.4603 48.7748 38.0029C47.9776 37.3929 47.0039 36.6478 46.8012 34.4264V28.9126C46.973 27.6912 47.7402 26.771 48.4647 25.9021C49.1893 25.033 49.8711 24.2152 49.8711 23.199C49.8711 22.3287 49.3711 21.9441 48.7724 21.4836C47.973 20.8687 46.9976 20.1185 46.8012 17.8962V12.4102C46.9734 11.1827 47.7443 10.2566 48.4704 9.38435C49.1929 8.51643 49.8711 7.70176 49.8711 6.69649C49.8875 6.24843 49.7168 5.81377 49.4001 5.49712H45.6874V0.444212Z" fill="#00D3FF"/>
</svg>
