<svg width="215" height="86" viewBox="0 0 215 86" fill="none" xmlns="http://www.w3.org/2000/svg">
<path fill-rule="evenodd" clip-rule="evenodd" d="M105.885 31.6608C105.86 32.4216 105.609 33.1578 105.163 33.7756L98.0901 33.768C98.5697 33.12 98.8567 32.3503 98.9182 31.5471C98.9182 30.3585 98.2327 29.8368 97.4114 29.2118C96.185 28.2786 94.6561 27.115 94.6561 23.1563V16.8423C94.9233 15.224 95.9549 13.9908 96.9279 12.8274C97.9193 11.6422 98.8499 10.5296 98.8499 9.1564C98.8386 8.2773 98.3655 7.46866 97.6039 7.02648H92.6656C92.5112 7.01853 92.3565 7.01853 92.2021 7.02648H91.8299C92.5834 7.47104 93.0499 8.27552 93.0606 9.14882C93.0606 10.5225 92.1299 11.6348 91.1382 12.8199C90.0614 14.1066 88.9129 15.4792 88.8061 17.3653V23.7627C88.9272 27.3642 90.3875 28.4808 91.564 29.3803C92.3807 30.0048 93.0606 30.5247 93.0606 31.6987C93.0606 33.0732 92.1288 34.1878 91.1364 35.3746C90.0602 36.6619 88.9128 38.0341 88.8061 39.9152V46.305C88.9272 49.9065 90.3875 51.0231 91.564 51.9227C92.3807 52.5472 93.0606 53.067 93.0606 54.2411C93.0606 55.6156 92.1288 56.7301 91.1364 57.917C90.0602 59.2042 88.9128 60.5765 88.8061 62.4576V68.8853C88.9269 72.4736 90.3805 73.5838 91.5555 74.4812C92.376 75.1078 93.0606 75.6307 93.0606 76.8213C93.0365 77.5693 92.7935 78.2939 92.3617 78.9058C92.565 78.9034 92.768 78.8882 92.9695 78.8603H96.4567C98.2497 78.8603 98.8727 78.1933 98.8727 76.6773C98.8727 75.5084 98.1929 74.9939 97.3764 74.3759C96.234 73.5112 94.8238 72.4438 94.6333 69.0975V62.5713C94.74 60.6939 95.8877 59.3234 96.964 58.038C97.9562 56.8531 98.8879 55.7406 98.8879 54.3699C98.8879 53.1827 98.2067 52.6666 97.3885 52.0467C96.483 51.3605 95.4097 50.5473 94.9068 48.5562H101.896C102.409 50.4458 103.455 51.2436 104.342 51.9201C105.163 52.5463 105.847 53.0685 105.847 54.2562C105.847 55.617 104.92 56.7249 103.93 57.9068C102.974 59.049 101.96 60.2604 101.669 61.836V69.0975C101.895 72.6299 103.267 73.7672 104.341 74.6573C105.072 75.2627 105.665 75.7537 105.665 76.8062C105.665 79.1559 101.881 82.9079 99.4425 84.5376C98.1509 85.576 96.1908 85.9701 93.2962 85.9701H89.9001C85.5088 85.9701 83.2524 85.106 82.1964 82.5062C82.6329 81.7633 83.1923 81.0957 83.7336 80.4498C84.7277 79.2635 85.6608 78.1499 85.6608 76.7758C85.6608 75.5864 84.9757 75.0649 84.1545 74.4397C82.9923 73.555 81.5576 72.4627 81.4062 68.9762V62.4045C81.5396 60.5527 82.6703 59.2105 83.7324 57.9496C84.7266 56.7693 85.6608 55.6603 85.6608 54.2714C85.6608 53.082 84.9757 52.5604 84.1545 51.9353C82.9923 51.0505 81.5576 49.9583 81.4062 46.4718V39.8319C81.5397 37.9751 82.6715 36.6305 83.7341 35.3682C84.7277 34.1878 85.6608 33.0793 85.6608 31.6912C85.6608 30.5017 84.9757 29.9802 84.1545 29.355C82.9923 28.4703 81.5576 27.3781 81.4062 23.8915V17.2971C81.54 15.4357 82.6772 14.0809 83.7421 12.8122C84.7327 11.632 85.6608 10.5262 85.6608 9.1564C85.6608 7.96621 84.9752 7.44369 84.1539 6.81772C83.3904 6.23578 82.5096 5.56442 81.9532 4.18405C82.8725 1.02327 85.129 0 89.9001 0H93.2962C95.9856 0 97.8622 0.333511 99.1462 1.21277C102.702 3.03192 105.885 6.49589 105.885 9.17156C105.885 10.5323 104.958 11.6402 103.968 12.8222C103.012 13.9643 101.998 15.1757 101.706 16.7514V24.7329C102.04 27.5381 103.324 28.5178 104.381 29.3249C105.201 29.9506 105.885 30.4725 105.885 31.6608ZM17.474 31.6987C17.4184 32.4595 17.1557 33.1907 16.7143 33.8135H18.8036L23.7951 33.859C24.2353 33.2361 24.4835 32.4984 24.5092 31.7366C24.5092 30.5475 23.8245 30.026 23.0042 29.401C21.8427 28.5162 20.4092 27.4243 20.2623 23.937V17.2971C20.3917 15.4426 21.519 14.1051 22.5796 12.8468C23.5737 11.6673 24.5092 10.5573 24.5092 9.1564C24.5092 6.26092 20.7789 2.39522 16.851 0.77314L16.6611 0.697342L16.5472 0.651863C15.0407 0.186394 13.4656 -0.0186884 11.8899 0.0454788H8.4939C3.71513 0.0454788 1.4587 1.06117 0.539416 4.22953C1.09703 5.58215 1.96934 6.24754 2.7261 6.82479C3.54689 7.45088 4.23176 7.97329 4.23176 9.1564C4.23176 10.5272 3.30326 11.6345 2.31289 12.8155C1.28809 14.0375 0.197045 15.3386 0 17.0925V24.2554C0.224136 27.4649 1.60499 28.5186 2.72933 29.3765C3.54865 30.0017 4.23176 30.5229 4.23176 31.6987C4.23176 33.0724 3.29946 34.1868 2.30683 35.3734C1.28379 36.5964 0.196657 37.8959 0 39.6348V46.775C0.224353 50.0008 1.60766 51.0513 2.73259 51.9056C3.55046 52.5267 4.23176 53.0441 4.23176 54.2183C4.23176 55.584 3.21746 56.7879 2.18202 58.0169C1.1025 59.2982 0 60.6068 0 62.1544V69.3173C0.22383 72.5356 1.60123 73.5862 2.72473 74.4431C3.54609 75.0696 4.23176 75.5926 4.23176 76.7834C4.23176 78.1523 3.30217 79.264 2.31265 80.4474C1.77352 81.0921 1.2166 81.7581 0.782533 82.4986C1.82338 85.1212 4.08741 85.9853 8.4939 85.9853H11.8975C13.5611 86.0642 15.2244 85.8249 16.7979 85.2804C18.5833 84.8938 24.5092 79.6562 24.5092 76.7834C24.5092 75.5948 23.8251 75.0731 23.0051 74.448C21.8434 73.5623 20.4093 72.4688 20.2623 68.9762V62.3969C20.3919 60.539 21.5232 59.1939 22.5855 57.9308C23.5774 56.7514 24.5092 55.6434 24.5092 54.2562C24.5092 53.0676 23.8251 52.5459 23.0051 51.9208C21.8434 51.0351 20.4093 49.9416 20.2623 46.449V39.7637H10.3097V46.6613H13.2499C13.4427 49.9543 14.8242 50.9942 15.9586 51.848C16.7903 52.4741 17.4892 53.0001 17.4892 54.2411C17.4892 55.614 16.5556 56.7328 15.5623 57.9232C14.4333 59.2763 13.2271 60.7219 13.2271 62.738V68.3698C13.2271 72.3395 14.7574 73.5059 15.9841 74.4408C16.8046 75.0662 17.4892 75.588 17.4892 76.7758C17.4892 78.3297 16.8662 78.9588 15.0733 78.9588H10.9403C11.4042 78.3249 11.6686 77.5677 11.7 76.7834C11.7 75.5956 11.0154 75.0738 10.1949 74.4484C8.96821 73.5135 7.43786 72.3471 7.43786 68.3774V62.738C7.43786 60.7118 8.64163 59.2701 9.7697 57.919C10.7643 56.7277 11.7 55.607 11.7 54.2183C11.7 53.0305 11.0154 52.5087 10.1949 51.8834C8.96821 50.9484 7.43786 49.782 7.43786 45.8123V40.173C7.43786 38.1617 8.62328 36.7374 9.73592 35.4007C10.7198 34.2185 11.6468 33.1048 11.6468 31.7139C11.6468 30.5261 10.9622 30.0043 10.1417 29.3789C8.91503 28.4439 7.38468 27.2775 7.38468 23.3079V17.1531C7.5627 15.4002 8.65932 14.0879 9.69252 12.8514C10.6877 11.6605 11.624 10.54 11.624 9.16398C11.6186 8.31096 11.1699 7.52184 10.4388 7.07954H10.7807C10.9224 7.07161 11.0645 7.07161 11.2062 7.07954H16.2964C17.0234 7.52122 17.4691 8.30721 17.474 9.1564C17.474 10.6442 16.5712 11.8165 15.5866 13.0948L15.5866 13.0948C14.6049 14.3696 13.5419 15.7498 13.2119 17.6534V23.2927C13.2119 27.2624 14.7422 28.4288 15.9689 29.3638C16.7894 29.9891 17.474 30.5109 17.474 31.6987ZM38.61 76.8062C38.6006 77.3346 38.468 77.8537 38.2226 78.3221L43.3052 78.2994V85.3183H26.834V85.2576C26.834 83.2314 28.0378 81.7961 29.1659 80.451C30.1605 79.2651 31.0962 78.1493 31.0962 76.7607C31.0962 75.5729 30.4116 75.051 29.5911 74.4257C28.3644 73.4907 26.834 72.3243 26.834 68.3547V62.7153C26.834 60.6891 28.0378 59.2537 29.1659 57.9087C30.1605 56.7228 31.0962 55.607 31.0962 54.2183C31.0962 53.0305 30.4116 52.5087 29.5911 51.8834C28.3644 50.9484 26.834 49.782 26.834 45.8123V40.173C26.834 38.1617 28.0366 36.7353 29.1653 35.3965C30.1634 34.2126 31.1038 33.0972 31.1038 31.7063C31.1038 30.5185 30.4192 29.9967 29.5987 29.3713C28.372 28.4364 26.8416 27.27 26.8416 23.3003V17.6609C26.8416 15.6347 28.0454 14.1994 29.1735 12.8543C30.1681 11.6684 31.1038 10.5526 31.1038 9.16398C31.1038 7.97617 30.4192 7.45435 29.5987 6.829C28.372 5.89403 26.8416 4.72762 26.8416 0.75798V0.606384H34.3631V0.75798C34.3631 4.72487 35.8928 5.89594 37.1161 6.83239C37.9311 7.45625 38.61 7.97598 38.61 9.14882C38.61 10.5217 37.6764 11.6406 36.6831 12.831C35.5541 14.1841 34.3479 15.6296 34.3479 17.6458V23.27C34.3479 27.2478 35.8845 28.4218 37.1125 29.3599C37.9296 29.9841 38.61 30.504 38.61 31.676C38.61 33.0489 37.6764 34.1677 36.6831 35.3582C35.5541 36.7113 34.3479 38.1568 34.3479 40.173V45.8351C34.3479 49.8129 35.8845 50.9868 37.1125 51.925C37.9296 52.5492 38.61 53.069 38.61 54.2411C38.61 55.614 37.6764 56.7328 36.6831 57.9232C35.5541 59.2763 34.3479 60.7219 34.3479 62.738V68.4002C34.3479 72.3698 35.8782 73.5362 37.1049 74.4712C37.9254 75.0965 38.61 75.6183 38.61 76.8062ZM54.2607 40.173C54.2607 38.158 55.4654 36.7151 56.5939 35.3636C57.5879 34.1731 58.5228 33.0534 58.5228 31.676C58.5228 30.5004 57.8418 29.9813 57.0242 29.358C55.7965 28.422 54.2607 27.2512 54.2607 23.27V17.6155C54.2607 15.6005 55.4654 14.1577 56.5939 12.8061C57.5879 11.6156 58.5228 10.4959 58.5228 9.1185C58.5228 7.94293 57.8418 7.42377 57.0242 6.80049C55.7965 5.86451 54.2607 4.69372 54.2607 0.712502V0.606384H46.7393V1.81915C46.9799 4.93126 48.3239 5.9572 49.4208 6.79446C50.2288 7.41116 50.9026 7.92551 50.9026 9.09577C50.9026 10.463 49.9698 11.5734 48.9768 12.7553C47.9661 13.9584 46.8931 15.2356 46.6785 16.9333V24.3312C46.9363 27.4403 48.2955 28.4773 49.4036 29.3226C50.2215 29.9467 50.9026 30.4663 50.9026 31.6381C50.9026 33.0054 49.9698 34.1157 48.9768 35.2976C47.9661 36.5007 46.8931 37.7779 46.6785 39.4756V46.8735C46.9363 49.9826 48.2955 51.0196 49.4036 51.865C50.2215 52.489 50.9026 53.0087 50.9026 54.1804C50.9026 55.5477 49.9698 56.6581 48.9768 57.84C47.9661 59.0431 46.8931 60.3203 46.6785 62.018V69.4158C46.9363 72.525 48.2955 73.562 49.4036 74.4073C50.2215 75.0314 50.9026 75.551 50.9026 76.7228C50.9026 78.09 49.9698 79.2004 48.9768 80.3823C47.9661 81.5854 46.8931 82.8626 46.6785 84.5603V85.3183H54.1999V85.2273C54.1999 83.2124 55.4046 81.7695 56.5331 80.418C57.5272 79.2274 58.4621 78.1077 58.4621 76.7304C58.4621 75.5548 57.781 75.0356 56.9635 74.4124C55.7357 73.4764 54.1999 72.3056 54.1999 68.3244V62.7077C54.1999 60.6928 55.4046 59.2499 56.5331 57.8984C57.5272 56.7078 58.4621 55.5881 58.4621 54.2108C58.4621 53.0352 57.781 52.516 56.9635 51.8927C55.7357 50.9568 54.1999 49.786 54.1999 45.8048V40.173H54.2607ZM133.274 31.676C133.274 30.4882 132.589 29.9659 131.768 29.3399C130.572 28.4281 129.088 27.296 129.012 23.5656V17.4335C129.079 15.498 130.248 14.1002 131.344 12.7887C132.339 11.5989 133.274 10.4802 133.274 9.09577C133.274 7.91234 132.59 7.39051 131.771 6.76457C130.575 5.85099 129.088 4.71561 129.012 0.977795V0.606384H121.559V1.6145C121.774 4.87177 123.159 5.92987 124.287 6.79131C125.107 7.41729 125.79 7.93942 125.79 9.12608C125.79 10.5147 124.856 11.6312 123.862 12.8188C122.838 14.0427 121.751 15.3421 121.559 17.0925V24.1568C121.774 27.4141 123.159 28.4722 124.287 29.3336C125.107 29.9596 125.79 30.4818 125.79 31.6684C125.79 33.0399 124.862 34.1505 123.873 35.3338C123.272 36.0536 122.648 36.8003 122.197 37.6489H116.377C116.836 36.7798 117.47 36.0214 118.078 35.2938C119.062 34.1176 119.978 33.0218 119.978 31.6684C119.978 30.4812 119.293 29.9591 118.472 29.3334C117.327 28.4609 115.917 27.387 115.731 24.028V17.2062C115.895 15.4059 117.008 14.0763 118.054 12.8276C119.047 11.6422 119.978 10.5296 119.978 9.1564C119.978 7.98187 119.297 7.46098 118.478 6.83553C117.332 5.95948 115.917 4.87828 115.731 1.50838V0.606384H108.21V1.75093C108.43 4.99675 109.812 6.0521 110.938 6.9116C111.758 7.53739 112.442 8.05936 112.442 9.24736C112.442 10.6406 111.501 11.7673 110.504 12.9623C109.483 14.1857 108.402 15.4806 108.21 17.2062V24.2933C108.43 27.5391 109.812 28.5944 110.938 29.4539C111.758 30.0797 112.442 30.6017 112.442 31.7897C112.442 33.1829 111.501 34.3097 110.504 35.5046C109.483 36.728 108.402 38.0229 108.21 39.7485V46.8356C108.43 50.0814 109.812 51.1368 110.938 51.9963C111.758 52.6221 112.442 53.144 112.442 54.332C112.442 55.7253 111.501 56.852 110.504 58.047C109.483 59.2704 108.402 60.5653 108.21 62.2908V69.378C108.43 72.6238 109.812 73.6791 110.938 74.5386C111.758 75.1644 112.442 75.6864 112.442 76.8744C112.442 78.2676 111.501 79.3944 110.504 80.5893C109.483 81.8127 108.402 83.1076 108.21 84.8332V85.341H115.731V84.8028C115.895 83.0076 117.007 81.6784 118.052 80.4294C119.045 79.2421 119.978 78.1272 119.978 76.7531C119.978 75.5781 119.296 75.0573 118.477 74.432C117.331 73.5569 115.917 72.4772 115.731 69.1127V62.2908C115.895 60.4955 117.007 59.1664 118.052 57.9174C119.045 56.7301 119.978 55.6152 119.978 54.2411C119.978 53.0661 119.296 52.5452 118.477 51.92C117.331 51.0449 115.917 49.9652 115.731 46.6006V44.6678H121.559V46.6992C121.774 49.9564 123.159 51.0145 124.287 51.876C125.107 52.502 125.79 53.0241 125.79 54.2108C125.79 55.6019 124.853 56.72 123.857 57.9073C122.835 59.1265 121.751 60.4187 121.559 62.1544V69.2188C121.774 72.476 123.159 73.5341 124.287 74.3956C125.107 75.0216 125.79 75.5437 125.79 76.7304C125.79 78.1216 124.851 79.2471 123.854 80.4411C122.831 81.6669 121.747 82.9649 121.559 84.6967V85.3183H128.958V85.0606C129.026 83.1238 130.196 81.7234 131.293 80.4103C132.287 79.2206 133.221 78.1027 133.221 76.7228C133.221 75.5429 132.538 75.0216 131.719 74.3961C130.522 73.4826 129.035 72.3468 128.958 68.6124V62.5485C129.026 60.6118 130.196 59.2113 131.293 57.8983C132.287 56.7086 133.221 55.5907 133.221 54.2108C133.221 53.0309 132.538 52.5096 131.719 51.8841C130.522 50.9705 129.035 49.8347 128.958 46.1004V40.0365C129.03 38.075 130.208 36.6629 131.308 35.3435C132.299 34.1545 133.228 33.0409 133.228 31.6684L133.274 31.676ZM156.431 42.5075V40.0138L156.385 39.9986C156.449 38.063 157.628 36.663 158.735 35.3483C159.74 34.1559 160.685 33.0337 160.685 31.6457C160.685 30.4586 160 29.9363 159.179 29.3103C157.982 28.3975 156.495 27.2643 156.423 23.5277V17.0849C156.605 15.3334 157.7 14.0217 158.731 12.7861C159.726 11.5941 160.662 10.4728 160.662 9.09577C160.662 7.86521 160.024 7.33678 159.223 6.67423C158.292 5.90431 157.142 4.95328 156.522 2.50892C156.119 0.939896 152.039 0.606384 149.213 0.606384H148.051H135.895V1.74336C136.14 4.90987 137.509 5.95652 138.623 6.80838C139.439 7.43284 140.119 7.95263 140.119 9.12608C140.119 10.4983 139.188 11.6128 138.196 12.7997C137.183 14.0123 136.106 15.3006 135.895 17.0167V24.2857C136.14 27.4522 137.509 28.4989 138.623 29.3507C139.439 29.9752 140.119 30.495 140.119 31.6684C140.119 33.0407 139.188 34.1551 138.196 35.342C137.183 36.5547 136.106 37.8429 135.895 39.559V46.828C136.14 49.9945 137.509 51.0412 138.623 51.8931C139.439 52.5175 140.119 53.0373 140.119 54.2108C140.119 55.583 139.188 56.6975 138.196 57.8844C137.183 59.097 136.106 60.3853 135.895 62.1013V69.378C136.14 72.5445 137.509 73.5911 138.623 74.443C139.439 75.0674 140.119 75.5872 140.119 76.7607C140.119 78.1329 139.188 79.2474 138.196 80.4343C137.183 81.6469 136.106 82.9352 135.895 84.6513V85.3486H143.416V85.2576C143.416 83.2314 144.622 81.7961 145.752 80.451C146.749 79.2651 147.686 78.1493 147.686 76.7607C147.686 75.5733 147.001 75.0526 146.179 74.4285C144.95 73.4949 143.416 72.3298 143.416 68.3547V62.7153C143.416 60.6854 144.627 59.2421 145.758 57.8923C146.752 56.7069 147.686 55.5935 147.686 54.2183C147.686 53.09 147.029 52.5658 146.282 51.9702L146.25 51.9444H148.073C154.729 51.9444 156.431 49.769 156.431 42.5075ZM149.031 24.8542V17.4335C149.294 15.8139 150.327 14.5781 151.302 13.412C152.293 12.226 153.225 11.1121 153.225 9.74005C153.201 8.85832 152.717 8.0531 151.948 7.6177H147.147C147.515 8.03534 147.711 8.57736 147.694 9.13366C147.694 10.5089 146.76 11.6222 145.766 12.8077C144.634 14.1574 143.424 15.6008 143.424 17.6306V23.2776C143.424 27.2527 144.958 28.4178 146.187 29.3514C147.008 29.9755 147.694 30.4962 147.694 31.6836C147.694 33.0745 146.752 34.1949 145.752 35.3841C144.621 36.7289 143.416 38.1617 143.416 40.173V44.9179H146.577C148.757 44.9179 149 44.069 149 41.5297V39.2558C149.3 37.7043 150.299 36.5074 151.243 35.3748C152.237 34.1835 153.171 33.0632 153.171 31.676C153.171 30.4901 152.486 29.971 151.663 29.3485C150.609 28.5506 149.331 27.583 148.985 24.8239L149.031 24.8542ZM182.832 70.0526V62.1544C183.028 60.4143 184.11 59.1161 185.13 57.8928C186.122 56.7022 187.056 55.5826 187.056 54.1956C187.056 53.0099 186.372 52.4885 185.553 51.8633C184.428 51.0057 183.048 49.9528 182.824 46.7219V39.5969C183.02 37.8565 184.105 36.562 185.127 35.3423C186.121 34.1557 187.056 33.04 187.056 31.6533C187.056 30.4675 186.372 29.9462 185.553 29.321C184.428 28.4634 183.048 27.4104 182.824 24.1796V16.6983C182.824 15.2151 183.915 13.9634 184.982 12.739C186.003 11.5669 187.003 10.4197 187.003 9.1185C187.003 7.83144 186.338 7.27345 185.469 6.54433C184.541 5.76627 183.382 4.79334 182.551 2.53165C181.874 0.674603 178.896 0 175.097 0H174.338H170.577C165.684 0 163.435 1.06875 162.569 4.43419C163.126 5.81217 164.006 6.48689 164.769 7.07115C165.587 7.6985 166.269 8.22156 166.269 9.39896C166.269 10.7718 165.34 11.8842 164.35 13.0693C163.399 14.2071 162.392 15.412 162.098 16.9788V25.0437C162.436 27.8282 163.718 28.8104 164.772 29.6186C165.589 30.2448 166.269 30.7666 166.269 31.9413C166.269 33.3141 165.34 34.4265 164.35 35.6116C163.399 36.7494 162.392 37.9543 162.098 39.5211V47.586C162.436 50.3705 163.718 51.3527 164.772 52.1609C165.589 52.7872 166.269 53.3089 166.269 54.4836C166.269 55.8564 165.34 56.9688 164.35 58.154C163.399 59.2918 162.392 60.4967 162.098 62.0634V70.1208C162.436 72.9003 163.713 73.8768 164.766 74.6819C165.586 75.3083 166.269 75.831 166.269 77.0184C166.269 78.3914 165.339 79.5021 164.348 80.6865L164.348 80.6867C163.85 81.2807 163.338 81.8933 162.919 82.5668C163.99 85.0985 166.246 85.9398 170.585 85.9398H174.345C177.331 85.9398 179.337 85.5305 180.651 84.4239C183.082 82.7487 186.729 79.0574 186.729 76.7834C186.729 75.7295 186.136 75.2374 185.406 74.6306C184.439 73.8278 183.23 72.8241 182.832 70.0526ZM177.172 78.883C178.965 78.883 179.588 78.2539 179.588 76.7C179.588 75.5134 178.903 75.0061 178.082 74.3976C176.853 73.4863 175.318 72.3483 175.318 68.3623V62.6092C175.318 60.5943 176.544 59.1749 177.693 57.8455C178.704 56.6744 179.656 55.573 179.656 54.1956C179.656 53.02 178.975 52.5009 178.157 51.8776C176.93 50.9416 175.394 49.7708 175.394 45.7896V40.4383C175.394 38.4221 176.6 36.9766 177.729 35.6235C178.722 34.433 179.656 33.3142 179.656 31.9413C179.656 30.7697 178.976 30.251 178.159 29.628C176.931 28.6912 175.394 27.5186 175.394 23.5353H175.325V17.3426C175.455 15.4938 176.592 14.1369 177.657 12.8645C178.649 11.6799 179.58 10.5686 179.58 9.20188C179.567 8.32131 179.095 7.51123 178.334 7.06438H173.654C173.402 7.03472 173.148 7.02205 172.894 7.02648H172.545C173.269 7.46802 173.716 8.24894 173.73 9.09577C173.73 10.4681 172.801 11.5797 171.811 12.7644C170.761 14.0202 169.643 15.3582 169.491 17.1758V23.9522C169.663 27.3545 171.079 28.4351 172.227 29.312C173.047 29.9374 173.73 30.4592 173.73 31.6457C173.73 33.0318 172.797 34.1455 171.805 35.3301C170.757 36.5812 169.643 37.9115 169.491 39.7258V46.4945C169.663 49.8968 171.079 50.9775 172.227 51.8544C173.047 52.4798 173.73 53.0015 173.73 54.188C173.73 55.5742 172.797 56.6878 171.805 57.8725C170.757 59.1235 169.643 60.4539 169.491 62.2681V69.0369C169.663 72.4391 171.079 73.5198 172.227 74.3967C173.047 75.0221 173.73 75.5439 173.73 76.7304C173.7 77.5126 173.436 78.2679 172.97 78.8982C173.196 78.8998 173.422 78.8846 173.646 78.8527H177.164L177.172 78.883ZM210.023 42.5V40.173C210.023 38.1617 211.215 36.7182 212.333 35.3634C213.322 34.1653 214.254 33.0366 214.254 31.6457C214.254 30.4583 213.57 29.9376 212.75 29.3135C211.523 28.3799 209.992 27.2148 209.992 23.2397V17.3426C210.087 15.4442 211.242 14.0637 212.324 12.7695C213.316 11.5833 214.247 10.4695 214.247 9.09577C214.247 7.87834 213.616 7.34874 212.825 6.68501C211.902 5.91065 210.761 4.95371 210.152 2.50892C209.749 0.932316 205.647 0.606384 202.82 0.606384H201.658H189.502V1.91011C189.776 4.96451 191.122 5.99166 192.22 6.83026C193.038 7.45465 193.719 7.97452 193.719 9.14882C193.719 10.5232 192.786 11.6384 191.793 12.8261C190.798 14.0163 189.742 15.2792 189.502 16.9484V24.4524C189.776 27.5068 191.122 28.534 192.22 29.3726C193.038 29.997 193.719 30.5169 193.719 31.6912C193.719 33.0655 192.786 34.1807 191.793 35.3685C190.798 36.5586 189.742 37.8215 189.502 39.4908V46.9948C189.776 50.033 191.121 51.0631 192.221 51.9052C193.042 52.5337 193.726 53.0576 193.726 54.2335C193.726 55.6078 192.794 56.7231 191.801 57.9108C190.805 59.101 189.749 60.3639 189.51 62.0331V69.5371C189.784 72.5915 191.129 73.6187 192.228 74.4573C193.045 75.0817 193.726 75.6015 193.726 76.7758C193.726 78.1502 192.794 79.2654 191.801 80.4531C190.805 81.6433 189.749 82.9062 189.51 84.5755V85.3334H197.031V84.5148C197.277 82.8602 198.323 81.6123 199.311 80.4342C200.305 79.2484 201.24 78.1333 201.24 76.7455C201.24 75.5608 200.559 75.046 199.741 74.428C198.649 73.6029 197.314 72.5937 197.031 69.5599V61.9801C197.278 60.3223 198.328 59.067 199.317 57.8841C200.309 56.698 201.24 55.5845 201.24 54.2108C201.24 53.0766 200.584 52.5528 199.833 51.9534L199.812 51.9368H201.666C208.328 51.9368 210.023 49.7614 210.023 42.5ZM206.817 31.6949C206.815 30.5086 206.131 29.9864 205.311 29.3607C204.222 28.5297 202.894 27.5159 202.608 24.5207V17.3047C202.907 15.7592 203.903 14.5655 204.846 13.4345C205.842 12.2413 206.779 11.118 206.779 9.72489C206.769 8.84544 206.299 8.03503 205.54 7.58738H200.693C201.059 8.00617 201.252 8.54806 201.233 9.10334C201.233 10.4771 200.301 11.5906 199.309 12.7766C198.32 13.9596 197.27 15.2149 197.024 16.8726V24.4524C197.306 27.4862 198.641 28.4954 199.733 29.3206C200.551 29.9386 201.233 30.4534 201.233 31.6381C201.233 33.0316 200.294 34.1578 199.297 35.3537C198.315 36.5322 197.276 37.7785 197.024 39.415V44.8876H200.184C202.365 44.8876 202.608 44.0387 202.608 41.4994V39.415C202.857 37.7817 203.901 36.5389 204.886 35.3652L204.886 35.365C205.88 34.1813 206.815 33.0678 206.817 31.6949ZM62.6406 0.606384H80.2362L80.2742 7.50401H75.2143C75.6239 7.93106 75.8431 8.5051 75.8221 9.09577C75.8221 10.485 74.8857 11.6026 73.8892 12.792C72.8467 14.0361 71.7385 15.3588 71.5676 17.1531V24.0431C71.7536 27.3969 73.1634 28.4736 74.307 29.347C75.1251 29.9718 75.8069 30.4925 75.8069 31.6684C75.8069 33.0426 74.8759 34.1557 73.8843 35.3411C72.8412 36.5882 71.7312 37.9153 71.5676 39.7106V46.5855C71.7536 49.9393 73.1634 51.0159 74.307 51.8893C75.1251 52.5141 75.8069 53.0348 75.8069 54.2108C75.8069 55.5849 74.8759 56.698 73.8843 57.8835C72.8412 59.1305 71.7312 60.4577 71.5676 62.2529V69.0975C71.7536 72.4513 73.1634 73.528 74.307 74.4013C75.1251 75.0261 75.8069 75.5468 75.8069 76.7228C75.8069 78.0969 74.8759 79.21 73.8843 80.3955C72.8412 81.6425 71.7312 82.9697 71.5676 84.765V85.3107H64.1677V84.5527C64.4032 82.8854 65.4552 81.6292 66.4484 80.4431C67.4419 79.2567 68.3767 78.1404 68.3767 76.7531C68.3767 75.5651 67.6912 75.0401 66.8703 74.4115C65.7743 73.5722 64.437 72.548 64.1677 69.5144V62.0104C64.4032 60.3431 65.4552 59.0868 66.4484 57.9007C67.4419 56.7143 68.3767 55.5981 68.3767 54.2108C68.3767 53.0221 67.6932 52.5013 66.8737 51.877C65.7806 51.0443 64.4456 50.0272 64.1677 46.9948V39.468C64.4032 37.8007 65.4552 36.5445 66.4484 35.3584C67.4419 34.172 68.3767 33.0557 68.3767 31.6684C68.3767 30.4804 67.6912 29.9554 66.8703 29.3268C65.7743 28.4875 64.437 27.4634 64.1677 24.4297V16.9409C64.4038 15.2653 65.4608 14.0011 66.4563 12.8104C67.4469 11.6256 68.3767 10.5135 68.3767 9.14124C68.3993 8.5296 68.1652 7.93625 67.7309 7.50401H62.6406V0.606384Z" fill="#00D3FF"/>
</svg>
