<?xml version="1.0" encoding="UTF-8"?>
<svg width="703px" height="345px" viewBox="0 0 703 345" version="1.1" xmlns="http://www.w3.org/2000/svg" xmlns:xlink="http://www.w3.org/1999/xlink">
    <title>Home-Banner-Type</title>
    <g id="Page-1" stroke="none" stroke-width="1" fill="none" fill-rule="evenodd">
        <g id="Desktop-1Pager-v01" transform="translate(-637.000000, -158.000000)">
            <g id="Banner-Content" transform="translate(637.000000, 34.000000)">
                <g id="Home-Banner-Type" transform="translate(0.000000, 124.000000)">
                    <g id="logo-blue-pink" transform="translate(0.000000, 67.000000)" fill-rule="nonzero">
                        <path d="M65.8802189,109.304128 C67.3036205,107.290816 68.1507087,104.927222 68.3302084,102.468026 C68.3302084,92.8876821 54.5857671,96.7100188 54.5857671,75.2951325 L54.5857671,75.2951325 L54.5857671,57.0655267 C56.6927581,44.8144475 68.3302084,39.0809425 68.3302084,29.5986072 C68.3148077,26.8596534 66.8887237,24.3221007 64.5572245,22.8850159 L48.1422946,22.8850159 C47.6853138,22.8596872 47.2272812,22.8596872 46.7703004,22.8850159 L45.6678051,22.8850159 C48.0196077,24.317334 49.4578546,26.869298 49.4652889,29.6231094 C49.4652889,38.688908 36.9458423,44.3244044 35.8188471,55.4483842 L35.8188471,75.3441368 L35.8188471,75.3441368 C35.8188471,96.7590231 49.5877884,92.9366864 49.5877884,102.51703 C49.5877884,112.097374 35.9168467,117.61036 35.9168467,129.861439 L35.9168467,129.861439 L35.9168467,148.091045 L35.9168467,148.091045 C35.9168467,169.505931 49.685788,165.683594 49.685788,175.263938 C49.685788,184.844282 35.9168467,190.406272 35.9168467,202.730858 L35.9168467,202.730858 L35.9168467,220.960464 L35.9168467,220.960464 C35.9168467,242.37535 49.685788,238.553013 49.685788,248.133357 C49.5950598,250.670508 48.7412072,253.121291 47.2357984,255.165477 L60.5637415,255.165477 C66.3457169,255.165477 68.3547083,253.131797 68.3547083,248.108855 C68.3547083,238.528511 54.610267,242.350848 54.610267,220.935961 L54.610267,220.935961 L54.610267,202.804364 L54.610267,202.804364 C54.610267,190.553285 68.3547083,184.81978 68.3547083,175.337445 C68.3547083,165.85511 55.761762,169.285412 54.6837666,150.835287 L45.2023071,150.835287 L45.2023071,128.538322 L77.2726702,128.538322 L77.2726702,150.149226 C78.1056667,169.407922 90.9926117,166.100131 90.9926117,175.386449 C90.9926117,184.672767 78.1056667,190.087744 77.2726702,201.701767 L77.2726702,222.969641 C78.1056667,242.228337 90.9926117,238.920546 90.9926117,248.206864 C90.9926117,257.493182 71.8826932,274.424173 66.1497177,275.673783 L66.1497177,275.673783 C61.0667006,277.431889 55.6952661,278.205247 50.3227853,277.952484 L39.3223322,277.952484 C25.1123928,277.952484 17.8359239,275.159238 14.4549383,266.681491 C18.4484213,259.894393 25.5778908,255.042966 25.5778908,248.206864 C25.5778908,239.092061 13.1809438,242.081324 11.9314491,224.072238 L11.9314491,200.917698 C11.9314491,191.116835 25.5778908,184.280733 25.5778908,175.263938 C25.5778908,166.247144 13.1809438,169.138399 11.9314491,151.129312 L11.9314491,128.121786 C13.1809438,117.04681 25.5778908,111.48482 25.5778908,102.468026 C25.5778908,93.4512318 13.1809438,96.3424864 11.9314491,78.4069066 L11.9314491,55.252367 C13.1809438,44.1773914 25.5778908,38.6154015 25.5778908,29.5986072 C25.5778908,22.2479597 17.4439256,22.7870072 13.6954416,13.6722043 C16.6599289,3.43030216 23.9363979,0.14701295 39.3223322,0.14701295 L50.2737855,0.14701295 C55.3550501,-0.0604113681 60.4343723,0.60253041 65.2922214,2.10718561 L65.2922214,2.10718561 L65.6352199,2.25419856 L66.2477173,2.49922015 C78.9386631,7.74268202 90.9681118,20.2387828 90.9681118,29.5986072 C90.9681118,38.9584317 78.0811668,44.2999022 77.2481703,55.9139252 L77.2481703,77.3778159 C78.0811668,96.6120102 90.9681118,93.3042188 90.9681118,102.590537 C90.8523839,105.070295 89.9993196,107.459096 88.5181223,109.451141 L72.4461908,109.304128 L65.8802189,109.304128 Z M135.263923,253.180802 C136.044607,251.662461 136.471764,249.987181 136.513417,248.28037 C136.513417,238.700026 122.768976,242.522363 122.768976,221.107477 L122.768976,221.107477 L122.768976,202.804364 L122.768976,202.804364 C122.768976,190.553285 136.513417,184.81978 136.513417,175.337445 C136.513417,165.85511 122.768976,169.579438 122.768976,148.164551 L122.768976,148.164551 L122.768976,129.861439 L122.768976,129.861439 C122.768976,117.61036 136.513417,111.876855 136.513417,102.39452 C136.513417,92.9121843 122.768976,96.6365123 122.768976,75.221626 L122.768976,75.221626 L122.768976,57.0410245 L122.768976,57.0410245 C122.768976,44.7899454 136.513417,39.0564403 136.513417,29.5741051 C136.513417,20.0917698 122.768976,23.8160979 122.768976,2.45021583 L122.768976,2.45021583 L122.768976,1.96017266 L98.5140796,1.96017266 L98.5140796,2.45021583 L98.5140796,2.45021583 C98.5140796,23.8651022 112.258521,20.0427655 112.258521,29.6231094 C112.258521,39.2034533 98.5140796,44.7654432 98.5140796,57.0900288 L98.5140796,57.0900288 L98.5140796,75.3196346 L98.5140796,75.3196346 C98.5140796,96.734521 112.258521,92.9121843 112.258521,102.492528 C112.258521,112.072872 98.4650798,117.61036 98.4650798,129.861439 L98.4650798,129.861439 L98.4650798,148.091045 L98.4650798,148.091045 C98.4650798,169.505931 112.209521,165.683594 112.209521,175.263938 C112.209521,184.844282 98.4650798,190.406272 98.4650798,202.730858 L98.4650798,202.730858 L98.4650798,220.960464 L98.4650798,220.960464 C98.4650798,242.37535 112.209521,238.553013 112.209521,248.133357 C112.209521,257.713701 98.4650798,263.275691 98.4650798,275.600277 L98.4650798,275.600277 L98.4650798,275.796294 L151.654353,275.796294 L151.654353,253.107295 L135.263923,253.180802 Z M186.909702,129.861439 C186.909702,117.61036 200.654144,111.901357 200.654144,102.39452 C200.654144,92.8876821 186.909702,96.6610145 186.909702,75.221626 L186.909702,75.221626 L186.909702,56.9430159 L186.909702,56.9430159 C186.909702,44.6919367 200.654144,38.9829339 200.654144,29.4760964 C200.654144,19.969259 186.909702,23.7425914 186.909702,2.30320288 L186.909702,2.30320288 L186.909702,1.96017266 L162.654806,1.96017266 L162.654806,5.88051799 C164.1003,23.3505569 176.252248,20.581813 176.252248,29.5005986 C176.252248,38.4193842 164.0023,43.956872 162.654806,54.8358303 L162.654806,78.7499368 C164.1003,96.2199756 176.252248,93.4512318 176.252248,102.370017 C176.252248,111.288803 164.0023,116.826291 162.654806,127.705249 L162.654806,151.619356 C164.1003,169.089394 176.252248,166.320651 176.252248,175.239436 C176.252248,184.158222 164.0023,189.69571 162.654806,200.574668 L162.654806,224.488774 C164.1003,241.958813 176.252248,239.190069 176.252248,248.108855 C176.252248,257.027641 164.0023,262.565128 162.654806,273.444087 L162.654806,275.894302 L186.909702,275.894302 L186.909702,275.600277 L186.909702,275.600277 C186.909702,263.349197 200.654144,257.640195 200.654144,248.133357 C200.654144,238.62652 186.909702,242.399852 186.909702,220.960464 L186.909702,220.960464 L186.909702,202.706356 L186.909702,202.706356 C186.909702,190.455276 200.654144,184.746274 200.654144,175.239436 C200.654144,165.732599 186.909702,169.505931 186.909702,148.066543 L186.909702,148.066543 L186.909702,129.861439 Z M351.059002,109.181617 C352.485453,107.178995 353.294551,104.802583 353.386492,102.345515 C353.386492,93.5492404 341.798041,96.0484605 339.88705,79.9505425 L339.88705,54.1497698 C341.798041,43.7853569 353.386492,38.2968734 353.386492,29.6476115 C353.386492,20.9983497 343.145536,9.80086332 331.679585,3.92034533 C327.514602,1.07809497 321.463128,0 312.814665,0 L301.838712,0 C286.452778,0 279.176309,3.30779137 276.211821,13.5251914 C279.935805,22.7870072 288.16777,22.1744533 288.16777,29.5986072 C288.16777,38.7869166 275.280825,44.2999022 274.472329,55.9139252 L274.472329,77.230803 C275.280825,96.4649972 288.16777,93.1572059 288.16777,102.443524 C288.16777,111.729842 275.280825,117.144819 274.472329,128.758842 L274.472329,150.222733 C275.280825,169.456927 288.16777,166.149135 288.16777,175.435453 C288.16777,184.721771 275.280825,190.136748 274.472329,201.726269 L274.472329,222.969641 C275.280825,242.203835 288.16777,238.896043 288.16777,248.182361 C288.16777,255.042966 280.989301,259.894393 277.020318,266.705993 C280.401303,275.110233 287.702272,277.903479 301.838712,277.903479 L312.814665,277.903479 C322.149125,277.903479 328.470098,276.629367 332.610581,273.272572 C340.475047,268.004607 352.700495,255.876039 352.700495,248.28037 C352.700495,239.87613 341.038545,242.546865 339.78905,223.361675 L339.78905,199.888607 C341.700042,189.524194 353.288492,184.035711 353.288492,175.386449 C353.288492,167.398746 343.709033,168.721862 340.548547,156.960826 L318.008643,156.960826 C321.07113,169.211905 330.822088,167.668269 330.822088,175.753981 C330.822088,184.991295 317.788144,190.602289 317.102147,202.265317 L317.102147,223.361675 C318.180142,241.909809 330.773088,238.798035 330.773088,247.863833 C330.773088,252.764265 328.764097,254.920455 322.982122,254.920455 L311.76117,254.920455 C311.103459,255.011497 310.440623,255.0606 309.776678,255.067468 C311.176645,253.091554 311.968612,250.7495 312.055168,248.329374 C312.055168,238.96955 298.972224,242.37535 298.335227,222.675615 L298.335227,201.897784 C298.972224,190.210255 312.055168,184.599261 312.055168,175.337445 C312.055168,166.075629 298.972224,169.407922 298.335227,149.683685 L298.335227,129.028366 C298.972224,117.340836 312.055168,111.729842 312.055168,102.468026 C312.055168,93.2062102 298.972224,96.5385037 298.335227,76.8142663 L298.335227,56.1344447 C298.972224,44.422413 312.055168,38.8359209 312.055168,29.5741051 C312.020205,26.7447911 310.504537,24.1409503 308.061685,22.7135007 L309.28668,22.7135007 C309.784514,22.6878157 310.28334,22.6878157 310.781174,22.7135007 L310.781174,22.7135007 L326.730606,22.7135007 C329.19032,24.1392801 330.717093,26.7555162 330.748589,29.5986072 C330.748589,38.3948821 318.964139,43.8833655 317.224646,54.4437957 L317.224646,74.8540936 C317.224646,96.2199756 330.969088,92.397639 330.969088,101.977983 C330.760221,104.572034 329.83577,107.057257 328.298599,109.157115 L351.059002,109.181617 Z M441.708615,102.39452 C441.708615,92.9611886 428.380672,96.5140015 427.988674,76.1772102 L427.988674,56.3549641 C428.380672,44.422413 441.708615,38.8114187 441.708615,29.40259 C441.708615,19.9937612 428.380672,23.522072 427.988674,3.16077842 L427.988674,1.96017266 L404.101276,1.96017266 L404.101276,5.21895972 C405.30177,23.3995612 417.747717,20.3857957 417.747717,29.5005986 C417.747717,38.6154015 405.30177,44.2018936 404.101276,55.252367 L404.101276,78.0883785 C405.30177,96.26898 417.747717,93.2552145 417.747717,102.370017 C417.747717,109.500145 410.03025,114.449581 406.159267,121.70222 L387.392347,121.70222 C391.26333,114.351573 399.005297,109.451141 399.005297,102.370017 C399.005297,93.181708 386.363351,96.3179843 385.334356,77.6718418 L385.334356,55.6198993 C386.363351,44.2754 399.005297,38.7134101 399.005297,29.5986072 C399.005297,20.4838043 386.363351,23.5465741 385.334356,4.8759295 L385.334356,1.96017266 L361.079459,1.96017266 L361.079459,5.65999857 C362.279954,23.7915957 374.725901,20.7778302 374.725901,29.8926331 C374.725901,39.007436 362.279954,44.5939281 361.079459,55.6198993 L361.079459,78.5294174 C362.279954,96.6610145 374.725901,93.647249 374.725901,102.762052 C374.725901,111.876855 362.279954,117.463347 361.079459,128.489318 L361.079459,151.398836 C362.279954,169.530433 374.725901,166.516668 374.725901,175.631471 C374.725901,184.746274 362.279954,190.332766 361.079459,201.358737 L361.079459,224.268255 C362.279954,242.399852 374.725901,239.386087 374.725901,248.500889 C374.725901,257.615692 362.279954,263.202184 361.079459,274.228156 L361.079459,275.8698 L385.334356,275.8698 L385.334356,274.130147 C386.363351,262.81015 399.005297,257.223658 399.005297,248.108855 C399.005297,238.994052 386.363351,242.056822 385.334356,223.410679 L385.334356,201.358737 C386.363351,190.03874 399.005297,184.452248 399.005297,175.337445 C399.005297,166.222642 386.363351,169.285412 385.334356,150.639269 L385.334356,144.391219 L404.101276,144.391219 L404.101276,150.957797 C405.30177,169.138399 417.747717,166.124633 417.747717,175.239436 C417.747717,184.354239 405.30177,189.940731 404.101276,200.991205 L404.101276,223.827216 C405.30177,242.007818 417.747717,238.994052 417.747717,248.108855 C417.747717,257.223658 405.30177,262.81015 404.101276,273.860623 L404.101276,275.8698 L427.988674,275.8698 L427.988674,275.036727 C428.380672,263.104176 441.708615,257.468679 441.708615,248.084353 C441.708615,238.700026 428.380672,242.203835 427.988674,221.867043 L427.988674,202.265317 C428.380672,190.332766 441.708615,184.697269 441.708615,175.312943 C441.708615,165.928616 428.380672,169.432425 427.988674,149.095633 L427.988674,129.493907 C428.233673,117.365338 441.561616,111.729842 441.561616,102.370017 L441.708615,102.39452 Z M516.408796,129.346894 L516.408796,137.408104 C516.408796,160.881171 510.92082,167.913291 489.458911,167.913291 L483.750436,167.913291 C486.200425,169.873464 488.380916,171.564112 488.380916,175.263938 C488.380916,184.770776 474.636475,190.406272 474.636475,202.730858 L474.636475,202.730858 L474.636475,220.960464 L474.636475,220.960464 C474.636475,242.399852 488.380916,238.553013 488.380916,248.133357 C488.380916,257.713701 474.636475,263.275691 474.636475,275.600277 L474.636475,275.600277 L474.636475,275.894302 L450.381578,275.894302 L450.381578,273.640104 C451.729072,262.663137 464.00352,257.101147 464.00352,248.133357 C464.00352,239.165567 451.753572,242.007818 450.381578,224.268255 L450.381578,200.746183 C451.729072,189.769216 464.00352,184.207226 464.00352,175.239436 C464.00352,166.271646 451.753572,169.113897 450.381578,151.374334 L450.381578,127.876764 C451.729072,116.899797 464.00352,111.337807 464.00352,102.370017 C464.00352,93.4022274 451.753572,96.2444778 450.381578,78.5049152 L450.381578,55.0073454 C451.729072,44.0303785 464.00352,38.4683885 464.00352,29.5005986 C464.00352,20.5328087 451.753572,23.375059 450.381578,5.63549641 L450.381578,1.96017266 L489.581411,1.96017266 C490.888072,1.96017266 492.137567,1.96017266 493.329895,1.96017266 C502.419356,1.96017266 515.6003,3.03826763 516.898794,8.1102144 C520.622778,22.8115094 530.226737,20.8023324 530.226737,29.40259 C530.226737,38.4683885 517.707291,44.1038849 516.580296,55.2278648 L516.580296,76.0546994 C516.972294,96.4159929 530.300237,92.86318 530.300237,102.296511 C530.300237,111.729842 516.653795,117.365338 516.261797,129.297889 L516.408796,129.346894 Z M492.521398,80.3425771 L492.521398,56.3549641 C494.260891,45.7945339 506.06984,40.2815482 506.06984,31.4852734 C506.027525,28.6387685 504.504771,26.0201324 502.051858,24.5756648 L486.567924,24.5756648 C487.765813,25.9205174 488.397814,27.6762381 488.331916,29.4760964 C488.331916,38.9829339 474.587475,44.6184303 474.587475,56.9430159 L474.587475,56.9430159 L474.587475,75.1971238 L474.587475,75.1971238 C474.587475,96.6365123 488.331916,92.7896735 488.331916,102.370017 C488.331916,111.950361 474.440475,117.61036 474.440475,129.861439 L474.440475,129.861439 L474.440475,145.19979 L484.607932,145.19979 C491.639402,145.19979 492.423399,142.455548 492.423399,134.247325 L492.423399,126.896678 C494.40789,116.605771 505.898341,111.14179 505.898341,102.39452 C505.898341,93.647249 494.35889,96.121967 492.447899,80.2445684 L492.521398,80.3425771 Z M601.545933,200.917698 L601.545933,226.448947 C603.799923,242.179333 614.114379,240.292666 614.114379,248.206864 C614.114379,255.557511 602.354429,267.490062 594.514463,272.905039 C590.275981,276.482354 583.783509,277.805471 574.17955,277.805471 L562.027602,277.805471 C548.038161,277.805471 540.737192,275.085731 537.307207,266.90201 C541.34969,260.384436 548.111661,255.631018 548.111661,248.96643 C548.111661,240.194658 536.57221,242.644874 534.636718,226.669466 L534.636718,200.623672 C536.57221,190.283761 548.111661,184.81978 548.111661,176.121514 C548.111661,167.423248 536.57221,169.799957 534.636718,153.82455 L534.636718,127.754253 C536.57221,117.414343 548.111661,111.950361 548.111661,103.252095 C548.111661,94.5538289 536.57221,96.9305382 534.636718,80.955131 L534.636718,54.8848346 C536.57221,44.5449238 548.111661,39.0809425 548.111661,30.3826763 C548.111661,23.0320288 539.879696,23.5710763 536.155712,14.3337626 C538.9977,3.45480432 546.347669,0 562.027602,0 L574.15505,0 L576.605039,0 L576.605039,0 C588.854987,0 598.458946,2.18069209 600.663937,8.18372087 C605.833415,22.3459684 614.947376,20.8758389 614.947376,29.40259 C614.947376,37.929341 601.472433,44.5204216 601.472433,53.9047483 L601.472433,78.0883785 C602.721928,96.1464692 615.118875,93.1572059 615.118875,102.247507 C615.118875,111.337807 602.721928,116.826291 601.472433,127.925768 L601.472433,150.957797 C602.721928,169.015888 615.118875,166.026625 615.118875,175.116925 C615.118875,184.207226 602.697428,189.81822 601.545933,200.917698 Z M583.269011,254.993961 C589.050986,254.993961 591.059978,252.960282 591.059978,247.93734 C591.059978,238.356996 577.315536,242.473359 577.315536,220.984966 C577.315536,220.984966 577.315536,202.314321 577.315536,202.387828 C577.315536,190.136748 591.280477,184.697269 591.280477,175.190432 C591.280477,165.683594 577.536035,169.456927 577.536035,148.017538 L577.536035,130.719015 C577.536035,118.467935 591.280477,112.73443 591.280477,103.252095 C591.280477,93.7697598 577.536035,97.51859 577.536035,76.0792015 L577.340036,76.0792015 L577.340036,56.0609382 C578.148533,44.5204216 591.035478,38.9094274 591.035478,29.7456202 C591.00311,26.9027472 589.489026,24.2830462 587.041995,22.8360115 L571.925559,22.8360115 C571.11258,22.7401276 570.294058,22.6991977 569.47557,22.7135007 L568.397574,22.7135007 C570.720812,24.1499995 572.152169,26.6712685 572.195058,29.40259 C572.195058,38.541895 559.455113,44.1038849 558.499617,55.5218907 L558.499617,77.4268202 C559.455113,96.26898 572.195058,93.0836994 572.195058,102.296511 C572.195058,111.509322 559.455113,116.997806 558.499617,128.415812 L558.499617,150.296239 C559.455113,169.138399 572.195058,165.953118 572.195058,175.16593 C572.195058,184.378741 559.455113,189.867225 558.499617,201.28523 L558.499617,223.165658 C559.455113,242.007818 572.195058,238.822537 572.195058,248.035348 C572.097954,250.563778 571.244493,253.004903 569.745069,255.043427 C570.474559,255.04878 571.203451,254.999637 571.925559,254.895953 L583.269011,254.895953 L583.269011,254.993961 Z M689.231059,129.861439 L689.231059,129.861439 L689.231059,137.383602 C689.231059,160.856669 683.743082,167.888789 662.281174,167.888789 L656.352199,167.888789 C658.802189,169.848961 660.982679,171.53961 660.982679,175.239436 C660.982679,184.109217 649.00223,189.622203 647.409737,200.354148 L647.409737,224.856307 C649.00223,242.007818 660.982679,239.141065 660.982679,248.084353 C660.982679,257.027641 649.00223,262.46712 647.409737,273.199065 L647.409737,275.845298 L623.154841,275.845298 L623.154841,273.395082 C624.673834,262.614133 636.727783,257.076645 636.727783,248.182361 C636.727783,239.288078 624.673834,242.007818 623.154841,224.7828 L623.154841,200.525664 C624.673834,189.744714 636.727783,184.207226 636.727783,175.312943 C636.727783,166.418659 624.575835,169.064892 623.056841,151.913381 L623.056841,127.656245 C624.575835,116.875295 636.629783,111.337807 636.629783,102.443524 C636.629783,93.5492404 624.575835,96.26898 623.056841,79.0439627 L623.056841,54.786826 C624.575835,44.0058763 636.629783,38.4683885 636.629783,29.5741051 C636.629783,20.6798216 624.575835,23.3995612 623.056841,6.17454389 L623.056841,1.96017266 L662.256674,1.96017266 C663.563335,1.96017266 664.81283,1.96017266 666.005158,1.96017266 C675.094619,1.96017266 688.324563,3.01376547 689.623057,8.1102144 C693.347041,22.8115094 702.9755,20.8023324 702.9755,29.40259 C702.9755,38.688908 689.819056,44.2999022 689.255559,56.0609382 L689.255559,75.1236174 L689.255559,75.1236174 C689.255559,96.5630059 703,92.716167 703,102.296511 C703,111.876855 689.231059,117.61036 689.231059,129.861439 Z M678.867603,102.468026 C678.867603,93.5247382 666.911654,96.2444778 665.319161,79.2644821 L665.319161,55.9384274 C667.303652,45.6720231 678.769603,40.2080418 678.769603,31.4362691 C678.727288,28.5897642 677.204534,25.9711281 674.751621,24.5266605 L659.047188,24.5266605 C660.245077,25.871513 660.877078,27.6272338 660.81118,29.4270921 C660.81118,38.2968734 648.830731,43.809859 647.238238,54.5418044 L647.238238,79.0439627 C648.830731,96.1954735 660.81118,93.328721 660.81118,102.272009 C660.81118,111.215297 648.830731,116.654776 647.238238,127.386721 L647.238238,145.077279 L657.405695,145.077279 C664.461664,145.077279 665.245661,142.333038 665.245661,134.124815 L665.245661,127.411223 C666.911654,116.801789 678.867603,111.288803 678.867603,102.443524 L678.867603,102.468026 Z M270.674845,1.96017266 L213.957587,1.96017266 L213.957587,24.2571367 L230.299017,24.2571367 C231.734373,25.636544 232.517836,27.5597678 232.455008,29.5496029 C232.455008,38.4438864 220.37656,43.956872 218.857566,54.7623238 L218.857566,78.9704562 C220.37656,96.121967 232.455008,93.4022274 232.455008,102.370017 C232.455008,111.337807 220.499059,116.801789 218.906566,127.582738 L218.906566,151.913381 C220.425559,169.064892 232.504008,166.345153 232.504008,175.312943 C232.504008,184.280733 220.499059,189.671207 218.906566,200.452157 L218.906566,224.709294 C220.425559,241.860805 232.504008,239.141065 232.504008,248.108855 C232.504008,257.076645 220.425559,262.540626 218.906566,273.321576 L218.906566,275.771792 L242.769464,275.771792 L242.769464,274.007636 C243.82296,262.687639 256.440406,257.125649 256.440406,248.010846 C256.440406,238.896043 243.82296,241.958813 242.769464,223.361675 L242.769464,201.236226 C243.82296,189.916229 256.440406,184.354239 256.440406,175.239436 C256.440406,166.124633 243.82296,169.187403 242.769464,150.590265 L242.769464,128.366807 C243.82296,117.04681 256.440406,111.48482 256.440406,102.370017 C256.440406,93.2552145 243.82296,96.3179843 242.769464,77.7208461 L242.769464,55.4483842 C243.82296,44.1528893 256.440406,38.5908993 256.440406,29.4760964 C256.495669,27.5236581 255.742089,25.6350985 254.357915,24.2571367 L270.674845,24.2571367 L270.674845,1.96017266 Z" id="Shape" fill="#FF33C9"></path>
                        <path d="M53.89977,109.304128 C55.3231716,107.290816 56.1702598,104.927222 56.3497595,102.468026 C56.3497595,92.8876821 42.6053182,96.7100188 42.6053182,75.2951325 L42.6053182,75.2951325 L42.6053182,57.0655267 C44.7368091,44.7409411 56.3497595,39.2034533 56.3497595,29.5986072 C56.3338286,26.8535331 54.8966695,24.3127722 52.5522757,22.8850159 L36.1373458,22.8850159 C35.6803735,22.8593828 35.2223239,22.8593828 34.7653516,22.8850159 L33.6628563,22.8850159 C36.0205162,24.3147749 37.4674334,26.8656659 37.48484,29.6231094 C37.48484,38.688908 24.9408936,44.3244044 23.8138984,55.4483842 L23.8138984,75.3441368 L23.8138984,75.3441368 C23.8138984,96.7590231 37.5583397,92.9366864 37.5583397,102.51703 C37.5583397,112.097374 23.9853976,117.61036 23.9853976,129.861439 L23.9853976,129.861439 L23.9853976,148.091045 L23.9853976,148.091045 C23.9853976,169.505931 37.729839,165.683594 37.729839,175.263938 C37.729839,184.844282 23.9853976,190.479779 23.9853976,202.804364 L23.9853976,202.804364 L23.9853976,221.03397 L23.9853976,221.03397 C23.9853976,242.448856 37.729839,238.62652 37.729839,248.206864 C37.628675,250.742045 36.775858,253.189856 35.2798494,255.238983 L48.6077926,255.238983 C54.3897679,255.238983 56.3987593,253.205304 56.3987593,248.182361 C56.3987593,238.602018 42.654318,242.424354 42.654318,221.009468 L42.654318,221.009468 L42.654318,202.804364 L42.654318,202.804364 C42.654318,190.553285 56.3987593,184.81978 56.3987593,175.337445 C56.3987593,165.85511 43.8058131,169.285412 42.7278177,150.835287 L33.2463581,150.835287 L33.2463581,128.538322 L65.3412212,128.538322 L65.3412212,150.149226 C66.1497177,169.407922 79.0366627,166.100131 79.0366627,175.386449 C79.0366627,184.672767 66.1497177,190.087744 65.3412212,201.701767 L65.3412212,222.969641 C66.1497177,242.228337 79.0366627,238.920546 79.0366627,248.206864 C79.0366627,257.493182 59.9267443,274.424173 54.1692688,275.673783 L54.1692688,275.673783 C49.0952534,277.434074 43.7314095,278.207537 38.3668363,277.952484 L27.3908831,277.952484 C13.1809438,277.952484 5.87997491,275.159238 2.52348923,266.681491 C6.49247229,259.894393 13.6464418,255.042966 13.6464418,248.206864 C13.6464418,239.092061 1.24949467,242.081324 0,224.072238 L0,200.917698 C0,191.116835 13.6464418,184.280733 13.6464418,175.263938 C13.6464418,166.247144 1.24949467,169.211905 0,151.202819 L0,128.121786 C1.24949467,117.04681 13.6464418,111.48482 13.6464418,102.468026 C13.6464418,93.4512318 1.24949467,96.3424864 0,78.4069066 L0,55.252367 C1.24949467,44.1038849 13.6464418,38.6154015 13.6464418,29.5986072 C13.6464418,22.2479597 5.48797658,22.7870072 1.73949258,13.6722043 C4.70397993,3.43030216 11.9804489,0.14701295 27.3908831,0.14701295 L38.3423364,0.14701295 C43.423601,-0.0604113681 48.5029232,0.60253041 53.3607723,2.10718561 L53.3607723,2.10718561 L53.7282707,2.25419856 L54.3407681,2.49922015 C67.0072141,7.74268202 79.0366627,20.2387828 79.0366627,29.5986072 C79.0366627,38.9584317 66.1497177,44.2999022 65.3412212,55.9139252 L65.3412212,77.3778159 C66.1497177,96.6120102 79.0366627,93.3042188 79.0366627,102.590537 C78.9538168,105.052972 78.1533563,107.437543 76.7336725,109.451141 L60.6372412,109.304128 L53.89977,109.304128 Z M123.258974,253.180802 C124.050325,251.666525 124.478126,249.988722 124.508469,248.28037 C124.508469,238.700026 110.764027,242.522363 110.764027,221.107477 L110.764027,221.107477 L110.764027,202.804364 L110.764027,202.804364 C110.764027,190.553285 124.508469,184.81978 124.508469,175.337445 C124.508469,165.85511 110.764027,169.579438 110.764027,148.164551 L110.764027,148.164551 L110.764027,129.861439 L110.764027,129.861439 C110.764027,117.61036 124.508469,111.876855 124.508469,102.39452 C124.508469,92.9121843 110.764027,96.6365123 110.764027,75.221626 L110.764027,75.221626 L110.764027,57.0410245 L110.764027,57.0410245 C110.764027,44.7899454 124.508469,39.0564403 124.508469,29.5741051 C124.508469,20.0917698 110.813027,23.8160979 110.813027,2.45021583 L110.813027,2.45021583 L110.813027,1.96017266 L86.5581306,1.96017266 L86.5581306,2.45021583 L86.5581306,2.45021583 C86.5581306,23.8651022 100.302572,20.0427655 100.302572,29.6231094 C100.302572,39.2034533 86.5581306,44.7654432 86.5581306,57.0900288 L86.5581306,57.0900288 L86.5581306,75.3196346 L86.5581306,75.3196346 C86.5581306,96.734521 100.302572,92.9121843 100.302572,102.492528 C100.302572,112.072872 86.5336307,117.61036 86.5336307,129.861439 L86.5336307,129.861439 L86.5336307,148.091045 L86.5336307,148.091045 C86.5336307,169.505931 100.278072,165.683594 100.278072,175.263938 C100.278072,184.844282 86.5336307,190.406272 86.5336307,202.730858 L86.5336307,202.730858 L86.5336307,220.960464 L86.5336307,220.960464 C86.5336307,242.37535 100.278072,238.553013 100.278072,248.133357 C100.278072,257.713701 86.5336307,263.275691 86.5336307,275.600277 L86.5336307,275.600277 L86.5336307,275.796294 L139.649404,275.796294 L139.649404,253.107295 L123.258974,253.180802 Z M174.978253,129.861439 C174.978253,117.61036 188.722695,111.901357 188.722695,102.39452 C188.722695,92.8876821 174.978253,96.6610145 174.978253,75.221626 L174.978253,75.221626 L174.978253,56.9430159 L174.978253,56.9430159 C174.978253,44.6919367 188.722695,38.9829339 188.722695,29.4760964 C188.722695,19.969259 174.978253,23.7425914 174.978253,2.30320288 L174.978253,2.30320288 L174.978253,1.96017266 L150.723357,1.96017266 L150.723357,5.88051799 C152.070851,23.3505569 164.1493,20.4838043 164.1493,29.40259 C164.1493,38.3213756 151.899352,43.8588634 150.527358,54.7378216 L150.527358,78.6519281 C151.972851,96.121967 164.1493,93.3532231 164.1493,102.272009 C164.1493,111.190794 151.899352,116.728282 150.527358,127.60724 L150.527358,151.521347 C151.972851,168.991386 164.1493,166.222642 164.1493,175.141428 C164.1493,184.060213 151.899352,189.597701 150.527358,200.476659 L150.527358,224.390766 C151.972851,241.860805 164.1493,239.092061 164.1493,248.010846 C164.1493,256.929632 151.899352,262.46712 150.527358,273.346078 L150.527358,275.796294 L174.782254,275.796294 L174.782254,275.502268 L174.782254,275.502268 C174.782254,263.251189 188.526695,257.542186 188.526695,248.035348 C188.526695,238.528511 174.782254,242.301843 174.782254,220.862455 L174.782254,220.862455 L174.782254,202.706356 L174.782254,202.706356 C174.782254,190.455276 188.526695,184.746274 188.526695,175.239436 C188.526695,165.732599 174.782254,169.505931 174.782254,148.066543 L174.782254,148.066543 L174.782254,129.861439 L174.978253,129.861439 Z M339.127553,109.181617 C340.564473,107.184377 341.37468,104.804709 341.455043,102.345515 C341.455043,93.5492404 329.891092,96.0484605 327.9801,79.9505425 L327.9801,54.1497698 C329.891092,43.7853569 341.455043,38.2968734 341.455043,29.6476115 C341.455043,20.9983497 331.189587,9.80086332 319.723636,3.92034533 C315.583153,1.07809497 309.531679,0 300.858716,0 L289.907263,0 C274.521329,0 267.24486,3.30779137 264.280372,13.5251914 C268.004356,22.7870072 276.236321,22.1744533 276.236321,29.5986072 C276.236321,38.7869166 263.349376,44.2999022 262.51638,55.9139252 L262.51638,77.230803 C263.349376,96.4649972 276.236321,93.1572059 276.236321,102.443524 C276.236321,111.729842 263.349376,117.144819 262.51638,128.758842 L262.51638,150.222733 C263.349376,169.456927 276.236321,166.149135 276.236321,175.435453 C276.236321,184.721771 263.349376,190.136748 262.51638,201.726269 L262.51638,222.969641 C263.349376,242.203835 276.236321,238.896043 276.236321,248.182361 C276.236321,255.042966 269.057852,259.894393 265.064369,266.705993 C268.469854,275.110233 275.746323,277.903479 289.907263,277.903479 L300.858716,277.903479 C310.193176,277.903479 316.514149,276.629367 320.679132,273.272572 C328.543598,268.004607 340.744546,255.876039 340.744546,248.28037 C340.744546,239.87613 329.082596,242.546865 327.857601,223.361675 L327.857601,199.888607 C329.768593,189.524194 341.332543,184.035711 341.332543,175.386449 C341.332543,167.398746 331.777584,168.721862 328.592598,156.960826 L306.052694,156.960826 C309.139681,169.211905 318.890639,167.668269 318.890639,175.753981 C318.890639,184.991295 305.832195,190.602289 305.170698,202.265317 L305.170698,223.361675 C306.224193,241.909809 318.841639,238.798035 318.841639,247.863833 C318.841639,252.764265 316.832648,254.920455 311.050673,254.920455 L299.805221,254.920455 C299.155628,255.010596 298.500999,255.059698 297.845229,255.067468 C299.237774,253.089455 300.021284,250.747225 300.099219,248.329374 C300.099219,238.96955 287.040775,242.37535 286.379278,222.675615 L286.379278,201.897784 C287.040775,190.210255 300.099219,184.599261 300.099219,175.337445 C300.099219,166.075629 287.040775,169.407922 286.379278,149.683685 L286.379278,129.028366 C287.040775,117.340836 300.099219,111.729842 300.099219,102.468026 C300.099219,93.2062102 287.040775,96.5385037 286.379278,76.8142663 L286.379278,56.1344447 C287.040775,44.422413 300.099219,38.8359209 300.099219,29.5741051 C300.064575,26.7510891 298.560126,24.1505682 296.130236,22.7135007 L297.330731,22.7135007 C297.828565,22.6878157 298.327391,22.6878157 298.825225,22.7135007 L298.825225,22.7135007 L314.750157,22.7135007 C317.206293,24.142866 318.731762,26.7568679 318.76814,29.5986072 C318.76814,38.3948821 306.98369,43.8833655 305.244197,54.4437957 L305.244197,74.8540936 C305.244197,96.2199756 318.988639,92.397639 318.988639,101.977983 C318.790045,104.574301 317.864577,107.062255 316.31815,109.157115 L339.127553,109.181617 Z M429.777166,102.39452 C429.777166,92.9611886 416.449223,96.5140015 416.032725,76.1772102 L416.032725,56.3549641 C416.449223,44.422413 429.777166,38.8114187 429.777166,29.40259 C429.777166,19.9937612 416.449223,23.522072 416.032725,3.16077842 L416.032725,1.96017266 L391.998327,1.96017266 L391.998327,5.21895972 C393.198822,23.3995612 405.644769,20.3857957 405.644769,29.5005986 C405.644769,38.6154015 393.223322,44.1038849 391.998327,55.252367 L391.998327,78.0883785 C393.198822,96.26898 405.644769,93.2552145 405.644769,102.370017 C405.644769,109.500145 397.902802,114.449581 394.056318,121.70222 L375.289398,121.70222 C379.160382,114.351573 386.902349,109.451141 386.902349,102.370017 C386.902349,93.181708 374.235903,96.3179843 373.206907,77.6718418 L373.206907,55.6198993 C374.235903,44.2754 386.902349,38.7134101 386.902349,29.5986072 C386.902349,20.4838043 374.235903,23.5465741 373.206907,4.8759295 L373.206907,1.96017266 L348.952011,1.96017266 L348.952011,5.65999857 C350.177006,23.7915957 362.598453,20.7778302 362.598453,29.8926331 C362.598453,39.007436 350.177006,44.5939281 348.952011,55.6198993 L348.952011,78.5294174 C350.177006,96.6610145 362.598453,93.647249 362.598453,102.762052 C362.598453,111.876855 350.177006,117.463347 348.952011,128.489318 L348.952011,151.398836 C350.177006,169.530433 362.598453,166.516668 362.598453,175.631471 C362.598453,184.746274 350.177006,190.332766 348.952011,201.358737 L348.952011,224.268255 C350.177006,242.399852 362.598453,239.386087 362.598453,248.500889 C362.598453,257.615692 350.177006,263.202184 348.952011,274.228156 L348.952011,275.8698 L373.206907,275.8698 L373.206907,274.130147 C374.235903,262.81015 386.902349,257.223658 386.902349,248.108855 C386.902349,238.994052 374.235903,242.056822 373.206907,223.410679 L373.206907,201.358737 C374.235903,190.03874 386.902349,184.452248 386.902349,175.337445 C386.902349,166.222642 374.235903,169.285412 373.206907,150.639269 L373.206907,144.391219 L391.998327,144.391219 L391.998327,150.957797 C393.198822,169.138399 405.644769,166.124633 405.644769,175.239436 C405.644769,184.354239 393.223322,189.842723 391.998327,200.917698 L391.998327,223.75371 C393.198822,241.934311 405.644769,238.920546 405.644769,248.035348 C405.644769,257.150151 393.198822,262.736643 391.998327,273.787117 L391.998327,275.796294 L415.861225,275.796294 L415.861225,274.96322 C416.277724,263.030669 429.605667,257.395173 429.605667,248.010846 C429.605667,238.62652 416.277724,242.130328 415.861225,221.793537 L415.861225,202.19181 C416.277724,190.259259 429.605667,184.623763 429.605667,175.239436 C429.605667,165.85511 416.277724,169.358918 415.861225,149.022127 L415.861225,129.4204 C416.302223,117.365338 429.630167,111.729842 429.630167,102.370017 L429.777166,102.39452 Z M504.452847,129.346894 L504.452847,137.408104 C504.452847,160.881171 498.964871,167.913291 477.502962,167.913291 L471.622987,167.913291 C474.072977,169.873464 476.253468,171.564112 476.253468,175.263938 C476.253468,184.770776 462.484526,190.406272 462.484526,202.730858 L462.484526,202.730858 L462.484526,220.960464 L462.484526,220.960464 C462.484526,242.399852 476.253468,238.553013 476.253468,248.133357 C476.253468,257.713701 462.484526,263.275691 462.484526,275.600277 L462.484526,275.600277 L462.484526,275.894302 L438.22963,275.894302 L438.22963,273.640104 C439.577124,262.663137 451.851572,257.101147 451.851572,248.133357 C451.851572,239.165567 439.601624,242.007818 438.22963,224.268255 L438.22963,200.746183 C439.577124,189.769216 451.851572,184.207226 451.851572,175.239436 C451.851572,166.271646 439.601624,169.113897 438.22963,151.374334 L438.22963,127.876764 C439.577124,116.899797 451.851572,111.337807 451.851572,102.370017 C451.851572,93.4022274 439.601624,96.2444778 438.22963,78.5049152 L438.22963,55.0073454 C439.577124,44.0303785 451.851572,38.4683885 451.851572,29.5005986 C451.851572,20.5328087 439.601624,23.375059 438.22963,5.63549641 L438.22963,1.96017266 L477.429463,1.96017266 C478.752457,1.96017266 480.001952,1.96017266 481.177947,1.96017266 C490.291908,1.96017266 503.448352,3.03826763 504.746846,8.1102144 C508.47083,22.8115094 518.099289,20.8023324 518.099289,29.40259 C518.099289,38.4683885 505.579842,44.1038849 504.428347,55.2278648 L504.428347,76.0546994 C504.820346,96.4159929 518.172789,92.86318 518.172789,102.296511 C518.172789,111.729842 504.697846,117.365338 504.305848,129.297889 L504.452847,129.346894 Z M480.589949,80.3425771 L480.589949,56.3549641 C482.304942,45.7945339 494.113891,40.2815482 494.113891,31.4852734 C494.038916,28.6350431 492.477303,26.0321152 489.997909,24.6246691 L474.513975,24.6246691 C475.703105,25.9747167 476.333805,27.7268235 476.277968,29.5251008 C476.277968,39.0319382 462.509026,44.6674346 462.509026,56.9920202 L462.509026,56.9920202 L462.509026,75.2461281 L462.509026,75.2461281 C462.509026,96.6855167 476.277968,92.8386778 476.277968,102.419022 C476.277968,111.999366 462.484526,117.61036 462.484526,129.861439 L462.484526,129.861439 L462.484526,145.19979 L472.676483,145.19979 C479.707953,145.19979 480.49195,142.455548 480.49195,134.247325 L480.49195,126.896678 C482.476441,116.605771 493.942392,111.14179 493.942392,102.39452 C493.942392,93.647249 482.427441,96.121967 480.44295,80.2445684 L480.589949,80.3425771 Z M589.589984,200.917698 L589.589984,226.448947 C591.843974,242.179333 602.15843,240.292666 602.15843,248.206864 C602.15843,255.557511 590.398481,267.490062 582.558514,272.905039 C578.320032,276.482354 571.85206,277.805471 562.223601,277.805471 L550.096153,277.805471 C536.106712,277.805471 528.830243,275.085731 525.375758,266.90201 C529.418241,260.384436 536.180212,255.631018 536.180212,248.96643 C536.180212,240.194658 524.665261,242.644874 522.729769,226.669466 L522.729769,200.623672 C524.665261,190.283761 536.180212,184.81978 536.180212,176.121514 C536.180212,167.423248 524.665261,169.799957 522.729769,153.82455 L522.729769,127.754253 C524.665261,117.414343 536.180212,111.950361 536.180212,103.252095 C536.180212,94.5538289 524.665261,96.9305382 522.729769,80.955131 L522.729769,54.8848346 C524.665261,44.5449238 536.180212,39.0809425 536.180212,30.3826763 C536.180212,23.0320288 527.972747,23.5710763 524.248763,14.3337626 C527.041751,3.45480432 534.29372,0 550.071653,0 L562.199101,0 L564.64909,0 L564.64909,0 C576.899038,0 586.502997,2.18069209 588.683488,8.18372087 C593.877466,22.3459684 603.040427,20.8758389 603.040427,29.4760964 C603.040427,38.076354 589.565484,44.5939281 589.565484,53.9782547 L589.565484,78.161885 C590.814979,96.2199756 603.211926,93.2307123 603.211926,102.321013 C603.211926,111.411314 590.814979,116.899797 589.565484,127.999275 L589.565484,151.031304 C590.814979,169.089394 603.211926,166.100131 603.211926,175.190432 C603.211926,184.280733 590.839479,189.81822 589.589984,200.917698 Z M571.337562,254.993961 C577.119537,254.993961 579.128529,252.960282 579.128529,247.93734 C579.128529,238.356996 565.359587,242.473359 565.359587,220.984966 C565.359587,220.984966 565.359587,202.314321 565.359587,202.387828 C565.359587,190.136748 579.349028,184.697269 579.349028,175.190432 C579.349028,165.683594 565.604586,169.456927 565.604586,148.017538 L565.604586,130.719015 C565.604586,118.467935 579.349028,112.73443 579.349028,103.252095 C579.349028,93.7697598 565.604586,97.51859 565.604586,76.0792015 L565.384087,76.0792015 L565.384087,56.0609382 C566.192584,44.5204216 579.104029,38.9094274 579.104029,29.7456202 C579.061713,26.8991153 577.538959,24.2804792 575.086046,22.8360115 L559.99411,22.8360115 C559.181131,22.7401276 558.362609,22.6991977 557.544121,22.7135007 L556.417126,22.7135007 C558.753158,24.1408153 560.195522,26.665186 560.239109,29.40259 C560.239109,38.541895 547.523663,44.1038849 546.568168,55.5218907 L546.568168,77.4268202 C547.523663,96.26898 560.239109,93.0836994 560.239109,102.296511 C560.239109,111.509322 547.523663,116.997806 546.568168,128.415812 L546.568168,150.296239 C547.523663,169.138399 560.239109,165.953118 560.239109,175.16593 C560.239109,184.378741 547.523663,189.867225 546.568168,201.28523 L546.568168,223.165658 C547.523663,242.007818 560.239109,238.822537 560.239109,248.035348 C560.143505,250.564062 559.289893,253.005616 557.78912,255.043335 C558.518591,255.048138 559.247434,254.998998 559.96961,254.895953 L571.313062,254.895953 L571.337562,254.993961 Z M677.27511,129.861439 L677.27511,129.861439 L677.27511,137.383602 C677.27511,160.856669 671.811633,167.888789 650.325225,167.888789 L644.34725,167.888789 C646.79724,169.848961 648.953231,171.53961 648.953231,175.239436 C648.953231,184.109217 636.972782,189.622203 635.380289,200.354148 L635.380289,224.856307 C636.972782,242.007818 648.953231,239.141065 648.953231,248.084353 C648.953231,257.027641 636.972782,262.46712 635.380289,273.199065 L635.380289,275.845298 L611.125392,275.845298 L611.125392,273.395082 C612.668885,262.614133 624.722834,257.076645 624.722834,248.182361 C624.722834,239.288078 612.668885,242.007818 611.125392,224.7828 L611.125392,200.525664 C612.668885,189.744714 624.722834,184.207226 624.722834,175.312943 C624.722834,166.418659 612.644386,169.064892 611.100892,151.913381 L611.100892,127.656245 C612.644386,116.875295 624.698334,111.337807 624.698334,102.443524 C624.698334,93.5492404 612.644386,96.26898 611.100892,79.0439627 L611.100892,54.786826 C612.644386,44.0058763 624.698334,38.4683885 624.698334,29.5741051 C624.698334,20.6798216 612.644386,23.3995612 611.100892,6.17454389 L611.100892,1.96017266 L650.300725,1.96017266 C651.623719,1.96017266 652.873214,1.96017266 654.049209,1.96017266 C663.16317,1.96017266 676.393114,3.01376547 677.691608,8.1102144 C681.342092,22.7870072 690.897052,20.8758389 690.897052,29.40259 C690.897052,38.688908 677.765108,44.2999022 677.17711,56.0609382 L677.17711,75.1236174 L677.17711,75.1236174 C677.17711,96.5630059 690.921552,92.716167 690.921552,102.296511 C690.921552,111.876855 677.27511,117.61036 677.27511,129.861439 Z M666.936154,102.468026 C666.936154,93.5247382 654.980205,96.2444778 653.363212,79.2644821 L653.363212,55.9384274 C655.347703,45.6720231 666.813654,40.2080418 666.813654,31.4362691 C666.781287,28.5933961 665.267202,25.9736951 662.820171,24.5266605 L647.189238,24.5266605 C648.36951,25.8803989 648.991307,27.6321021 648.928731,29.4270921 C648.928731,38.2968734 636.948282,43.809859 635.355789,54.5418044 L635.355789,79.0439627 C636.948282,96.1954735 648.928731,93.328721 648.928731,102.272009 C648.928731,111.215297 636.997282,116.752784 635.355789,127.411223 L635.355789,145.101781 L645.547745,145.101781 C652.579215,145.101781 653.363212,142.35754 653.363212,134.149317 L653.363212,127.411223 C654.980205,116.801789 666.936154,111.288803 666.936154,102.443524 L666.936154,102.468026 Z M258.743396,1.96017266 L202.001638,1.96017266 L202.001638,24.2571367 L218.416568,24.2571367 C219.817217,25.6544004 220.571927,27.5724293 220.499059,29.5496029 C220.499059,38.4438864 208.44511,43.956872 206.926117,54.7623238 L206.926117,78.9704562 C208.44511,96.121967 220.499059,93.4022274 220.499059,102.370017 C220.499059,111.337807 208.44511,116.801789 206.926117,127.582738 L206.926117,151.913381 C208.49411,169.064892 220.499059,166.271646 220.499059,175.239436 C220.499059,184.207226 208.44511,189.671207 206.926117,200.452157 L206.926117,224.709294 C208.44511,241.860805 220.499059,239.141065 220.499059,248.108855 C220.499059,257.076645 208.44511,262.540626 206.926117,273.321576 L206.926117,275.771792 L230.789015,275.771792 L230.789015,274.007636 C231.818011,262.687639 244.459957,257.125649 244.459957,248.010846 C244.459957,238.896043 231.818011,241.958813 230.789015,223.361675 L230.789015,201.236226 C231.818011,189.916229 244.459957,184.354239 244.459957,175.239436 C244.459957,166.124633 231.818011,169.187403 230.789015,150.590265 L230.789015,128.366807 C231.818011,117.04681 244.459957,111.48482 244.459957,102.370017 C244.459957,93.2552145 231.818011,96.3179843 230.789015,77.7208461 L230.789015,55.4483842 C231.867011,44.1038849 244.508957,38.5908993 244.508957,29.40259 C244.576458,27.4932354 243.869622,25.63762 242.548965,24.2571367 L258.865895,24.2571367 L258.743396,1.96017266 Z" id="Shape" fill="#2B00D0"></path>
                    </g>
                    <text id="WE-ARE" font-family="Graphie-Bold, Graphie" font-size="42" font-weight="bold" letter-spacing="3.31578947" fill="#2B00D0">
                        <tspan x="0" y="39">WE ARE</tspan>
                    </text>
                </g>
            </g>
        </g>
    </g>
</svg>