<svg width="157" height="62" viewBox="0 0 157 62" fill="none" xmlns="http://www.w3.org/2000/svg">
<path fill-rule="evenodd" clip-rule="evenodd" d="M78.9213 22.8253C78.9008 23.3732 78.7201 23.9032 78.4016 24.3499L73.3185 24.3444C73.6618 23.8761 73.8683 23.3218 73.9149 22.7433C73.9149 21.8864 73.4212 21.5103 72.8297 21.0597C71.9465 20.3869 70.8454 19.548 70.8454 16.6941V12.1421C71.0378 10.9755 71.7807 10.0864 72.4815 9.24765C73.1954 8.39322 73.8657 7.59111 73.8657 6.60113C73.8586 5.96706 73.5176 5.38358 72.9683 5.0656H69.4064C69.2952 5.05987 69.1838 5.05987 69.0726 5.0656H68.799C69.3446 5.38395 69.6831 5.96467 69.6909 6.59566C69.6909 7.58526 69.0203 8.38671 68.3059 9.24039C67.5293 10.1686 66.7009 11.1585 66.6268 12.5192V17.1312C66.7108 19.7282 67.7635 20.533 68.6119 21.1816C69.2006 21.6316 69.6909 22.0064 69.6909 22.8526C69.6909 23.8428 69.0195 24.6458 68.3047 25.5008C67.5284 26.4293 66.7009 27.4191 66.6268 28.7761V33.3827C66.7108 35.9796 67.7635 36.7845 68.6119 37.433C69.2006 37.8831 69.6909 38.2579 69.6909 39.104C69.6909 40.0942 69.0195 40.8973 68.3047 41.7523C67.5284 42.6808 66.7009 43.6705 66.6268 45.0276V49.6615C66.7106 52.2489 67.7585 53.0491 68.6058 53.6961C69.1972 54.1477 69.6909 54.5247 69.6909 55.3828C69.6715 55.9226 69.4947 56.4449 69.182 56.8856C69.3303 56.884 69.4783 56.8731 69.6252 56.8528H72.1312C73.4225 56.8528 73.8711 56.3719 73.8711 55.279C73.8711 54.436 73.3822 54.0651 72.7947 53.6194C71.973 52.9961 70.9584 52.2264 70.818 49.8145V45.1095C70.8977 43.757 71.723 42.7693 72.497 41.8432C73.2114 40.9883 73.8821 40.1858 73.8821 39.1969C73.8821 38.3414 73.3919 37.9692 72.8036 37.5226C72.152 37.0278 71.3799 36.4416 71.0205 35.0057H76.0543C76.421 36.3686 77.1749 36.9437 77.8145 37.4316C78.4058 37.8826 78.8995 38.2592 78.8995 39.115C78.8995 40.0958 78.2303 40.8944 77.5163 41.7464C76.8263 42.57 76.0944 43.4434 75.8847 44.5795V49.8145C76.0507 52.3606 77.0402 53.1807 77.8143 53.8223C78.3411 54.2589 78.7681 54.6129 78.7681 55.3719C78.7681 57.0659 76.0378 59.7708 74.2815 60.9457C73.3568 61.6943 71.9452 61.9785 69.8605 61.9785H67.4093C64.2522 61.9785 62.6217 61.3555 61.8666 59.4812C62.1801 58.944 62.5832 58.4614 62.9733 57.9944C63.6864 57.1407 64.3561 56.339 64.3561 55.35C64.3561 54.4928 63.863 54.1167 63.2722 53.6662C62.4357 53.0283 61.4034 52.2411 61.2976 49.727V44.9893C61.3909 43.6534 62.2048 42.6854 62.9695 41.7758C63.6843 40.9256 64.3561 40.1265 64.3561 39.1259C64.3561 38.2686 63.863 37.8926 63.2722 37.4421C62.4357 36.8042 61.4034 36.017 61.2976 33.5029V28.716C61.3909 27.3766 62.2057 26.4068 62.9707 25.4962C63.6851 24.6459 64.3561 23.8472 64.3561 22.8471C64.3561 21.9899 63.863 21.6138 63.2722 21.1633C62.4357 20.5254 61.4034 19.7382 61.2976 17.2241V12.47C61.3912 11.1272 62.2097 10.1501 62.9764 9.23491C63.6887 8.38474 64.3561 7.58798 64.3561 6.60113C64.3561 5.74308 63.8624 5.36638 63.2709 4.9151C62.7211 4.49556 62.0867 4.01156 61.686 3.01641C62.3481 0.737709 63.9731 0 67.4093 0H69.8605C71.7919 0 73.1434 0.240438 74.0736 0.874322C76.6342 2.1858 78.9213 4.68308 78.9213 6.61206C78.9213 7.59294 78.2522 8.39154 77.5382 9.24354C76.8482 10.0671 76.1163 10.9405 75.9065 12.0766V17.8307C76.1469 19.8531 77.0732 20.5594 77.8363 21.1413C78.4278 21.5923 78.9213 21.9686 78.9213 22.8253ZM15.2601 22.8526C15.22 23.401 15.0309 23.9282 14.713 24.3772H16.1793L19.7687 24.41C20.0995 23.9657 20.29 23.4329 20.3158 22.8799C20.3158 22.0224 19.8224 21.6464 19.231 21.1957C18.3941 20.5579 17.3608 19.7705 17.2518 17.2569V12.47C17.3477 11.1339 18.16 10.17 18.924 9.26339C19.6412 8.41239 20.3158 7.6118 20.3158 6.60113C20.3158 4.51369 17.6293 1.72679 14.795 0.55738L14.6583 0.502735L14.5817 0.469948C13.4968 0.134377 12.3624 -0.013473 11.2276 0.0327871H8.78184C5.34572 0.0327871 3.72068 0.765032 3.05862 3.0492C3.46009 4.02406 4.08681 4.50377 4.6304 4.91984C5.2203 5.37137 5.71231 5.74796 5.71231 6.60113C5.71231 7.59143 5.04089 8.39487 4.32602 9.25032C3.58924 10.132 2.8063 11.0689 2.66467 12.3225V17.4864C2.82609 19.8003 3.82056 20.5599 4.63029 21.1784C5.22035 21.6291 5.71231 22.0049 5.71231 22.8526C5.71231 23.8429 5.04089 24.6463 4.32602 25.5018C3.58924 26.3834 2.8063 27.3203 2.66467 28.5739V33.7051C2.82623 36.0305 3.82231 36.7934 4.63242 37.4139C5.22154 37.8651 5.71231 38.241 5.71231 39.0876C5.71231 40.0722 4.98183 40.9401 4.23613 41.8261C3.45868 42.7499 2.66467 43.6933 2.66467 44.809V49.9729C2.82587 52.2931 3.81785 53.0505 4.62698 53.6683C5.21851 54.12 5.71231 54.497 5.71231 55.3555C5.71231 56.345 5.04161 57.1481 4.32698 58.0037L4.32694 58.0037L4.32686 58.0038L4.32679 58.0039C3.94041 58.4666 3.5412 58.9446 3.22824 59.4757C3.98331 61.3665 5.60835 61.9894 8.78184 61.9894H11.2386C12.4384 62.0458 13.638 61.8733 14.7732 61.4812C16.0535 61.2025 20.3213 57.4265 20.3213 55.3555C20.3213 54.4983 19.8283 54.1223 19.2372 53.6714C18.4001 53.033 17.3663 52.2445 17.2572 49.727V44.9838C17.3534 43.6453 18.1685 42.6759 18.9338 41.7658C19.6493 40.9149 20.3213 40.1157 20.3213 39.115C20.3213 38.2578 19.8283 37.8817 19.2372 37.4309C18.4001 36.7924 17.3663 36.0039 17.2572 33.4865V28.6668H10.095V33.6395H12.2125C12.3514 36.0136 13.3463 36.7632 14.1633 37.3788C14.7623 37.8301 15.2656 38.2094 15.2656 39.104C15.2656 40.0938 14.5932 40.9004 13.8779 41.7586C13.0648 42.7341 12.1961 43.7762 12.1961 45.2298V49.2735C12.1961 52.1353 13.2982 52.9762 14.1816 53.6503C14.7725 54.1011 15.2656 54.4773 15.2656 55.3336C15.2656 56.4539 14.8169 56.9074 13.5257 56.9074H10.5491C10.8853 56.4515 11.076 55.9049 11.0963 55.3391C11.0963 54.4828 10.6024 54.1066 10.0104 53.6557C9.12539 52.9817 8.0213 52.1408 8.0213 49.279V45.2134C8.0213 43.7526 8.88978 42.7178 9.70364 41.7481C10.4212 40.8931 11.0963 40.0888 11.0963 39.0876C11.0963 38.2313 10.6024 37.8551 10.0104 37.4043C9.12539 36.7302 8.0213 35.8893 8.0213 33.0275V28.9619C8.0213 27.5119 8.88118 26.4851 9.68827 25.5214C10.402 24.6692 11.0744 23.8662 11.0744 22.8635C11.0744 22.0072 10.5805 21.631 9.98852 21.1801C9.10351 20.5061 7.99941 19.6652 7.99941 16.8034V12.3662C8.12761 11.1026 8.91586 10.1565 9.65853 9.26515C10.3739 8.4065 11.0471 7.59864 11.0471 6.60659C11.0454 5.99243 10.7242 5.42329 10.199 5.10385H10.4452C10.5472 5.0982 10.6495 5.0982 10.7516 5.10385H14.4175C14.9382 5.42435 15.2567 5.99028 15.2601 6.60113C15.2601 7.65816 14.6108 8.50631 13.9025 9.4315C13.1938 10.3573 12.426 11.3603 12.1906 12.7268V16.7924C12.1906 19.6543 13.2927 20.4952 14.1762 21.1692C14.7671 21.6201 15.2601 21.9963 15.2601 22.8526ZM30.4874 55.3719C30.4781 55.7525 30.3827 56.1262 30.2083 56.4648L33.8688 56.4484V61.5085H21.9901V61.4648C21.9901 60.0041 22.857 58.9693 23.6695 57.9996C24.3857 57.1446 25.0596 56.3402 25.0596 55.3391C25.0596 54.4828 24.5666 54.1066 23.9757 53.6557C23.0922 52.9817 21.9901 52.1408 21.9901 49.279V45.2134C21.9901 43.7526 22.857 42.7178 23.6695 41.7481C24.3857 40.8931 25.0596 40.0888 25.0596 39.0876C25.0596 38.2313 24.5666 37.8551 23.9757 37.4043C23.0922 36.7302 21.9901 35.8893 21.9901 33.0275V28.9619C21.9901 27.5119 22.8577 26.4836 23.672 25.5184C24.3921 24.6649 25.0706 23.8608 25.0706 22.858C25.0706 22.0017 24.5775 21.6255 23.9866 21.1747C23.1032 20.5006 22.001 19.6597 22.001 16.7979V12.7323C22.001 11.2716 22.868 10.2368 23.6804 9.26706C24.3967 8.4121 25.0706 7.60772 25.0706 6.60659C25.0706 5.75026 24.5775 5.37407 23.9866 4.92323C23.1032 4.24918 22.001 3.40828 22.001 0.546451V0.437161H27.4179V0.546451C27.4179 3.4063 28.5235 4.25056 29.4077 4.92568C29.9967 5.37543 30.4874 5.75012 30.4874 6.59566C30.4874 7.58542 29.815 8.39204 29.0997 9.25025C28.2865 10.2257 27.4179 11.2679 27.4179 12.7214V16.776C27.4179 19.6438 28.5245 20.4901 29.4089 21.1664C29.9974 21.6165 30.4874 21.9912 30.4874 22.8362C30.4874 23.8259 29.815 24.6326 29.0997 25.4908C28.2865 26.4663 27.4179 27.5084 27.4179 28.9619V33.0439C27.4179 35.9116 28.5245 36.758 29.4089 37.4343C29.9974 37.8843 30.4874 38.2591 30.4874 39.104C30.4874 40.0938 29.815 40.9004 29.0997 41.7586C28.2865 42.7341 27.4179 43.7762 27.4179 45.2298V49.3117C27.4179 52.1736 28.52 53.0145 29.4034 53.6885C29.9943 54.1394 30.4874 54.5155 30.4874 55.3719ZM41.7423 28.9619C41.7423 27.5093 42.61 26.4691 43.4227 25.4947C44.1386 24.6364 44.8118 23.8292 44.8118 22.8362C44.8118 21.9887 44.3214 21.6144 43.7326 21.1651C42.8484 20.4903 41.7423 19.6462 41.7423 16.776V12.6995C41.7423 11.2469 42.61 10.2067 43.4227 9.23232C44.1386 8.37401 44.8118 7.5668 44.8118 6.57381C44.8118 5.7263 44.3214 5.35202 43.7326 4.90268C42.8484 4.2279 41.7423 3.38384 41.7423 0.513664V0.437161H36.3255V1.31148C36.5112 3.55287 37.4882 4.30049 38.2847 4.90992C38.8727 5.35985 39.3622 5.73446 39.3622 6.57927C39.3622 7.56422 38.6914 8.36426 37.9776 9.2156C37.2499 10.0835 36.4774 11.0048 36.3255 12.2296V17.5629C36.5112 19.8043 37.4882 20.5519 38.2847 21.1614C38.8727 21.6113 39.3622 21.9859 39.3622 22.8307C39.3622 23.8157 38.6914 24.6157 37.9776 25.467C37.2499 26.335 36.4774 27.2562 36.3255 28.481V33.8144C36.5112 36.0558 37.4882 36.8034 38.2847 37.4128C38.8727 37.8628 39.3622 38.2374 39.3622 39.0822C39.3622 40.0671 38.6914 40.8672 37.9776 41.7185C37.2499 42.5864 36.4774 43.5077 36.3255 44.7325V50.0658C36.5112 52.3072 37.4882 53.0548 38.2847 53.6643C38.8727 54.1142 39.3622 54.4888 39.3622 55.3336C39.3622 56.3186 38.6914 57.1186 37.9776 57.97C37.2499 58.8379 36.4774 59.7591 36.3255 60.9839V61.5304H41.7423V61.4648C41.7423 60.0122 42.61 58.972 43.4227 57.9976C44.1386 57.1393 44.8118 56.3321 44.8118 55.3391C44.8118 54.4916 44.3214 54.1173 43.7326 53.668C42.8484 52.9932 41.7423 52.1491 41.7423 49.279V45.2079C41.7423 43.7553 42.61 42.7151 43.4227 41.7407C44.1386 40.8824 44.8118 40.0752 44.8118 39.0822C44.8118 38.2347 44.3214 37.8604 43.7326 37.4111C42.8484 36.7363 41.7423 35.8922 41.7423 33.022V28.9619ZM98.6462 22.8362C98.6462 21.9801 98.1533 21.6035 97.5628 21.1524C96.7021 20.495 95.6341 19.6791 95.5821 16.9892V12.5684C95.6281 11.1722 96.4692 10.164 97.2585 9.21802C97.9736 8.36093 98.6462 7.55486 98.6462 6.55741C98.6462 5.70448 98.1544 5.32825 97.5648 4.87715C96.7038 4.21846 95.6341 3.40013 95.5821 0.704922V0.437161H90.2474V1.16394C90.4027 3.5122 91.4003 4.27502 92.2125 4.89606C92.8027 5.34735 93.295 5.72377 93.295 6.57927C93.295 7.58226 92.6184 8.39368 91.9006 9.25442C91.1636 10.1382 90.3832 11.074 90.2474 12.3225V17.4154C90.4027 19.7637 91.4003 20.5265 92.2125 21.1475C92.8027 21.5988 93.295 21.9752 93.295 22.8307C93.295 23.8217 92.6257 24.6237 91.9121 25.4789C91.4806 25.9961 91.0328 26.5327 90.707 27.1422H86.5158C86.8462 26.5157 87.3029 25.9689 87.7411 25.4444C88.4494 24.5964 89.1093 23.8064 89.1093 22.8307C89.1093 21.9748 88.6168 21.5984 88.0264 21.1473C87.2033 20.5183 86.19 19.744 86.0562 17.3225V12.4044C86.1741 11.1066 86.9744 10.1481 87.726 9.24799C88.4396 8.3933 89.1093 7.59119 89.1093 6.60113C89.1093 5.75435 88.6194 5.37883 88.0312 4.92791C87.2072 4.29634 86.1903 3.51686 86.0562 1.08744V0.437161H80.6394V1.2623C80.7946 3.60288 81.7912 4.36351 82.6031 4.98323C83.194 5.43418 83.687 5.81052 83.687 6.6667C83.687 7.67031 83.0095 8.48211 82.2913 9.34279C81.5546 10.2254 80.7751 11.1594 80.6394 12.4044V17.5138C80.7946 19.8543 81.7912 20.615 82.6031 21.2347C83.194 21.6856 83.687 22.062 83.687 22.9182C83.687 23.9218 83.0095 24.7336 82.2913 25.5942C81.5546 26.4769 80.7751 27.4109 80.6394 28.6559V33.7652C80.7946 36.1058 81.7912 36.8664 82.6031 37.4861C83.194 37.9371 83.687 38.3134 83.687 39.1696C83.687 40.1732 83.0095 40.985 82.2913 41.8457C81.5546 42.7283 80.7751 43.6624 80.6394 44.9073V50.0167C80.7946 52.3572 81.7912 53.1179 82.6031 53.7376C83.194 54.1885 83.687 54.5649 83.687 55.4211C83.687 56.4247 83.0095 57.2365 82.2913 58.0972C81.5546 58.9798 80.7751 59.9138 80.6394 61.1588V61.5249H86.0562V61.1369C86.174 59.8427 86.9734 58.8846 87.7246 57.9841C88.4387 57.1281 89.1093 56.3243 89.1093 55.3336C89.1093 54.4865 88.619 54.111 88.0305 53.6603C87.2066 53.0294 86.1903 52.251 86.0562 49.8254V44.9073C86.174 43.6131 86.9734 42.655 87.7246 41.7546C88.4387 40.8985 89.1093 40.0947 89.1093 39.104C89.1093 38.2569 88.619 37.8814 88.0305 37.4307C87.2066 36.7998 86.1903 36.0214 86.0562 33.5958V32.2024H90.2474V33.6668C90.4027 36.0151 91.4003 36.7779 92.2125 37.399C92.8027 37.8503 93.295 38.2267 93.295 39.0822C93.295 40.0852 92.6184 40.8966 91.9006 41.7573C91.1636 42.6411 90.3832 43.5769 90.2474 44.8254V49.9183C90.4027 52.2666 91.4003 53.0294 92.2125 53.6504C92.8027 54.1017 93.295 54.4781 93.295 55.3336C93.295 56.3366 92.6184 57.148 91.9006 58.0088C91.1636 58.8926 90.3832 59.8283 90.2474 61.0768V61.5249H95.5821V61.3391C95.6281 59.9421 96.4703 58.932 97.26 57.9849C97.9746 57.1279 98.6462 56.3223 98.6462 55.3282C98.6462 54.4778 98.1548 54.102 97.5655 53.6512C96.7044 52.9925 95.6341 52.1739 95.5821 49.4811V45.1095C95.6281 43.7125 96.4703 42.7024 97.26 41.7553C97.9746 40.8983 98.6462 40.0927 98.6462 39.0986C98.6462 38.2482 98.1548 37.8724 97.5655 37.4216C96.7044 36.7629 95.6341 35.9443 95.5821 33.2515V28.8799C95.6111 27.4483 96.4585 26.4223 97.2499 25.4642C97.9538 24.612 98.6134 23.8134 98.6134 22.8307L98.6462 22.8362ZM115.329 30.645V28.8471L115.296 28.8362C115.342 27.4406 116.202 26.4312 117.01 25.4833C117.742 24.6238 118.431 23.8148 118.431 22.8143C118.431 21.9585 117.939 21.582 117.348 21.1307C116.488 20.4726 115.419 19.6556 115.367 16.9618V12.317C115.495 11.0534 116.284 10.1073 117.026 9.21597C117.742 8.35732 118.415 7.54946 118.415 6.55741C118.415 5.67013 117.956 5.28919 117.38 4.81143C116.711 4.25641 115.885 3.57073 115.438 1.80875C115.148 0.677599 112.205 0.437161 110.175 0.437161H109.338H100.583V1.25684C100.76 3.53967 101.746 4.29424 102.548 4.90837C103.136 5.35856 103.625 5.73329 103.625 6.57927C103.625 7.56856 102.955 8.37201 102.24 9.22769C101.51 10.1019 100.735 11.0307 100.583 12.2678V17.5083C100.76 19.7911 101.746 20.5457 102.548 21.1598C103.136 21.61 103.625 21.9847 103.625 22.8307C103.625 23.82 102.955 24.6235 102.24 25.4791C101.51 26.3534 100.735 27.2821 100.583 28.5193V33.7597C100.76 36.0426 101.746 36.7971 102.548 37.4113C103.136 37.8615 103.625 38.2362 103.625 39.0822C103.625 40.0715 102.955 40.8749 102.24 41.7306C101.51 42.6048 100.735 43.5336 100.583 44.7707V50.0167C100.76 52.2995 101.746 53.0541 102.548 53.6682C103.136 54.1184 103.625 54.4931 103.625 55.3391C103.625 56.3284 102.955 57.1318 102.24 57.9875C101.51 58.8617 100.735 59.7905 100.583 61.0276V61.5304H106V61.4648C106 60.0041 106.867 58.9693 107.679 57.9996C108.396 57.1446 109.069 56.3402 109.069 55.3391C109.069 54.4831 108.577 54.1077 107.986 53.6578C107.103 52.9847 106 52.1447 106 49.279V45.2134C106 43.75 106.87 42.7094 107.684 41.7363C108.398 40.8817 109.069 40.0791 109.069 39.0876C109.069 38.2742 108.596 37.8962 108.059 37.4668L108.035 37.4483H109.31C114.103 37.4483 115.329 35.88 115.329 30.645ZM109.994 17.9181V12.5684C110.187 11.4017 110.931 10.5112 111.633 9.67114C112.348 8.81535 113.02 8.01186 113.02 7.0219C113.01 6.38706 112.67 5.80305 112.123 5.4809H108.665C108.932 5.78083 109.073 6.1724 109.059 6.57381C109.059 7.56522 108.387 8.36785 107.673 9.2225C106.859 10.1956 105.989 11.2361 105.989 12.6995V16.7706C105.989 19.6363 107.092 20.4763 107.975 21.1494C108.566 21.5993 109.059 21.9747 109.059 22.8307C109.059 23.8334 108.375 24.6436 107.65 25.5035C106.83 26.4759 105.956 27.5119 105.956 28.9619V32.3827H108.227C109.797 32.3827 109.972 31.7707 109.972 29.9401V28.3007C110.188 27.182 110.909 26.3191 111.59 25.5024C112.307 24.6437 112.982 23.8361 112.982 22.8362C112.982 21.9822 112.488 21.6078 111.897 21.1597C111.137 20.5842 110.218 19.8871 109.978 17.8963L109.994 17.9181ZM134.342 50.503V44.809C134.473 43.5509 135.254 42.609 135.99 41.7207C136.703 40.8612 137.374 40.0519 137.374 39.0549C137.374 38.2 136.881 37.8242 136.291 37.3734C135.482 36.7552 134.487 35.9961 134.326 33.6668V28.5302C134.467 27.2755 135.249 26.3422 135.984 25.4629C136.7 24.6075 137.374 23.8031 137.374 22.8034C137.374 21.9486 136.881 21.5727 136.291 21.122C135.482 20.5037 134.487 19.7446 134.326 17.4154V12.0219C134.326 10.9504 135.115 10.0422 135.885 9.15569C136.619 8.31069 137.335 7.48546 137.335 6.55741C137.335 5.63987 136.862 5.24137 136.241 4.71986C135.576 4.16052 134.743 3.45967 134.145 1.82515C133.653 0.486341 131.508 0 128.772 0H128.225H125.517C122.015 0 120.374 0.770496 119.739 3.19674C120.14 4.19045 120.775 4.67687 121.326 5.09816C121.916 5.55028 122.409 5.92739 122.409 6.77599C122.409 7.76556 121.738 8.56742 121.024 9.42169C120.338 10.2421 119.611 11.1108 119.4 12.2405V18.0547C119.643 20.0623 120.568 20.7703 121.329 21.353C121.918 21.8044 122.409 22.1806 122.409 23.0274C122.409 24.017 121.738 24.8189 121.024 25.6731C120.338 26.4935 119.611 27.3623 119.4 28.492V34.3062C119.643 36.3137 120.568 37.0218 121.329 37.6045C121.918 38.0559 122.409 38.432 122.409 39.2789C122.409 40.2685 121.738 41.0703 121.024 41.9246C120.338 42.745 119.611 43.6137 119.4 44.7434V50.5522C119.643 52.5561 120.564 53.2601 121.324 53.8405C121.916 54.2921 122.409 54.6689 122.409 55.5249C122.409 56.5147 121.739 57.3155 121.025 58.1693C120.667 58.5976 120.298 59.0393 119.996 59.5249C120.762 61.3501 122.393 61.9566 125.517 61.9566H128.231C130.376 61.9566 131.826 61.6615 132.772 60.8637C134.523 59.6561 137.149 56.9948 137.149 55.3555C137.149 54.5957 136.723 54.241 136.196 53.8035C135.5 53.2247 134.629 52.5011 134.342 50.503ZM130.261 56.8692C131.552 56.8692 132.001 56.4156 132.001 55.2954C132.001 54.4399 131.509 54.0741 130.918 53.6355C130.035 52.9785 128.931 52.158 128.931 49.2844V45.1369C128.931 43.6842 129.813 42.661 130.638 41.7026C131.366 40.8583 132.05 40.0642 132.05 39.0712C132.05 38.2237 131.559 37.8495 130.971 37.4001C130.086 36.7253 128.98 35.8813 128.98 33.0111V29.1532C128.98 27.6997 129.849 26.6575 130.662 25.682C131.378 24.8238 132.05 24.0172 132.05 23.0274C132.05 22.1828 131.56 21.8089 130.972 21.3597C130.088 20.6844 128.98 19.839 128.98 16.9673H128.937V12.5028C129.03 11.17 129.847 10.1918 130.613 9.27451C131.326 8.42049 131.995 7.6193 131.995 6.63391C131.988 5.99989 131.65 5.41564 131.103 5.09292H127.727C127.546 5.07154 127.363 5.06241 127.18 5.0656H126.939C127.458 5.38597 127.778 5.94827 127.788 6.55741C127.788 7.54673 127.117 8.34809 126.403 9.20207C125.646 10.1075 124.839 11.0721 124.729 12.3826V17.2679C124.854 19.7207 125.875 20.4998 126.703 21.132C127.294 21.5828 127.788 21.959 127.788 22.8143C127.788 23.8136 127.115 24.6164 126.399 25.4704C125.643 26.3724 124.839 27.3315 124.729 28.6395V33.5193C124.854 35.9722 125.875 36.7512 126.703 37.3834C127.294 37.8343 127.788 38.2104 127.788 39.0658C127.788 40.0651 127.115 40.8679 126.399 41.7219C125.643 42.6238 124.839 43.5829 124.729 44.8909V49.7708C124.854 52.2236 125.875 53.0027 126.703 53.6349C127.294 54.0857 127.788 54.4619 127.788 55.3172C127.766 55.8811 127.575 56.4256 127.24 56.8801C127.403 56.8814 127.566 56.8704 127.727 56.8473H130.261V56.8692ZM153.925 30.6395V28.9619C153.925 27.5119 154.791 26.4713 155.604 25.4945C156.323 24.6308 157 23.817 157 22.8143C157 21.9583 156.507 21.5829 155.917 21.133C155.033 20.4599 153.931 19.6199 153.931 16.7542V12.5028C153.996 11.1333 154.829 10.1377 155.609 9.20407C156.324 8.34962 156.995 7.5471 156.995 6.55741C156.995 5.67026 156.535 5.28931 155.958 4.81165C155.288 4.2566 154.46 3.57097 154.013 1.80875C153.723 0.672135 150.768 0.437161 148.738 0.437161H147.901H139.146V1.37706C139.341 3.57959 140.309 4.31992 141.099 4.92457C141.688 5.37452 142.178 5.74934 142.178 6.59566C142.178 7.58569 141.507 8.38924 140.793 9.24476C140.077 10.1034 139.316 11.0143 139.146 12.2186V17.6285C139.341 19.831 140.309 20.5714 141.099 21.176C141.688 21.626 142.178 22.0008 142.178 22.8471C142.178 23.8371 141.507 24.6407 140.793 25.4962C140.077 26.3548 139.316 27.2657 139.146 28.4701V33.88C139.341 36.0711 140.314 36.8134 141.11 37.4206C141.704 37.8735 142.2 38.2512 142.2 39.0986C142.2 40.0886 141.529 40.8921 140.815 41.7477C140.098 42.6063 139.338 43.5172 139.168 44.7215V50.1314C139.363 52.334 140.331 53.0743 141.121 53.6789C141.71 54.1289 142.2 54.5037 142.2 55.35C142.2 56.34 141.529 57.1436 140.815 57.9991C140.098 58.8577 139.338 59.7687 139.168 60.973V61.5195H144.585V60.9293C144.762 59.7364 145.516 58.8368 146.227 57.9874C146.943 57.1326 147.616 56.3287 147.616 55.3282C147.616 54.4741 147.126 54.1029 146.537 53.6574C145.75 53.0625 144.788 52.335 144.585 50.1478V44.6833C144.763 43.4881 145.519 42.5832 146.231 41.7304C146.946 40.8753 147.616 40.0726 147.616 39.0822C147.616 38.2687 147.143 37.8908 146.605 37.4614L146.582 37.4428H147.906C152.699 37.4428 153.925 35.8745 153.925 30.6395ZM151.611 22.8499C151.61 21.9949 151.117 21.6184 150.527 21.1675C149.743 20.5682 148.788 19.8376 148.585 17.6777V12.4755C148.801 11.3613 149.518 10.5007 150.197 9.68534C150.914 8.82516 151.589 8.01527 151.589 7.01097C151.579 6.37613 151.239 5.79212 150.691 5.46997H147.184C147.452 5.76991 147.593 6.16147 147.578 6.56288C147.578 7.55325 146.907 8.35598 146.193 9.21107C145.48 10.0639 144.724 10.9688 144.547 12.164V17.6285C144.75 19.8157 145.712 20.5432 146.498 21.1381C147.087 21.5836 147.578 21.9548 147.578 22.8089C147.578 23.8094 146.905 24.6133 146.189 25.4681C145.478 26.3175 144.724 27.2171 144.547 28.41V32.3554H146.818C148.393 32.3554 148.568 31.7433 148.568 29.9127V28.4155C148.753 27.2399 149.505 26.3449 150.215 25.4999L150.216 25.4996C150.934 24.6447 151.609 23.8412 151.611 22.8499ZM47.7829 0.437161H60.4495V5.40987H56.8054C57.1146 5.71718 57.2829 6.13837 57.2705 6.57381C57.2705 7.56583 56.5994 8.36915 55.8849 9.22447C55.1353 10.1218 54.3379 11.0764 54.2174 12.3662V17.3334C54.3545 19.7507 55.3689 20.5271 56.1914 21.1567C56.7801 21.6073 57.2705 21.9827 57.2705 22.8307C57.2705 23.8222 56.6002 24.6251 55.8862 25.4805C55.1362 26.379 54.3379 27.3353 54.2174 28.6286V33.5849C54.3545 36.0022 55.3689 36.7786 56.1914 37.4081C56.7801 37.8588 57.2705 38.2341 57.2705 39.0822C57.2705 40.0736 56.6002 40.8766 55.8862 41.7319C55.1362 42.6304 54.3379 43.5867 54.2174 44.88V49.8145C54.3545 52.2318 55.3689 53.0082 56.1914 53.6377C56.7801 54.0884 57.2705 54.4637 57.2705 55.3118C57.2705 56.3032 56.6002 57.1062 55.8862 57.9615C55.1362 58.86 54.3379 59.8163 54.2174 61.1096V61.5031H48.8881V60.9566C49.0577 59.7545 49.8169 58.8488 50.5336 57.9936C51.2504 57.1384 51.9248 56.3337 51.9248 55.3336C51.9248 54.4772 51.4302 54.0987 50.8379 53.6455C50.047 53.0404 49.0821 52.3021 48.8881 50.115V44.7052C49.0655 43.5059 49.8215 42.6057 50.5347 41.7564C51.2513 40.903 51.9248 40.101 51.9248 39.0986C51.9248 38.2421 51.4302 37.8636 50.8379 37.4105C50.047 36.8054 49.0821 36.0671 48.8881 33.88V28.4537C49.0654 27.255 49.8181 26.351 50.5283 25.4979C51.2425 24.64 51.9139 23.8336 51.9139 22.8307C51.9139 21.9743 51.4192 21.5958 50.8269 21.1426C50.0361 20.5375 49.0712 19.7992 48.8772 17.6121V12.2132C49.0473 11.0051 49.81 10.0937 50.5284 9.23514C51.243 8.38109 51.9139 7.57942 51.9139 6.5902C51.9279 6.14642 51.753 5.7175 51.4324 5.40987H47.7829V0.437161Z" fill="#FF007B"/>
<path fill-rule="evenodd" clip-rule="evenodd" d="M76.2567 22.8253C76.2387 23.3737 76.0578 23.9044 75.7369 24.3499L70.6429 24.3444C70.9883 23.8772 71.1949 23.3223 71.2393 22.7433C71.2393 21.8864 70.7456 21.5103 70.1541 21.0597C69.2709 20.3869 68.1698 19.548 68.1698 16.6941V12.1421C68.3622 10.9755 69.1051 10.0864 69.8059 9.24765C70.5198 8.39323 71.19 7.59111 71.19 6.60113C71.1819 5.96736 70.8412 5.38438 70.2927 5.0656H66.7362C66.625 5.05987 66.5136 5.05987 66.4025 5.0656H66.1344C66.677 5.3861 67.013 5.96607 67.0207 6.59566C67.0207 7.58597 66.3504 8.38786 65.6362 9.24223C64.8608 10.1699 64.0336 11.1594 63.9567 12.5192V17.1312C64.0439 19.7277 65.0956 20.5327 65.9429 21.1812C66.5311 21.6314 67.0207 22.0062 67.0207 22.8526C67.0207 23.8435 66.3496 24.647 65.6349 25.5026C64.8598 26.4306 64.0335 27.42 63.9567 28.7761V33.3827C64.0439 35.9791 65.0956 36.7841 65.9429 37.4326C66.5311 37.8828 67.0207 38.2576 67.0207 39.104C67.0207 40.0949 66.3496 40.8985 65.6349 41.7541C64.8598 42.6821 64.0335 43.6714 63.9567 45.0276V49.6615C64.0437 52.2484 65.0905 53.0488 65.9367 53.6957C66.5277 54.1475 67.0207 54.5245 67.0207 55.3828C67.0033 55.922 66.8284 56.4444 66.5174 56.8856C66.6638 56.8838 66.81 56.8729 66.9551 56.8528H69.4665C70.7578 56.8528 71.2065 56.3719 71.2065 55.279C71.2065 54.4363 70.7169 54.0654 70.1289 53.6198C69.3061 52.9964 68.2906 52.2269 68.1533 49.8145V45.1095C68.2302 43.7561 69.0567 42.768 69.8319 41.8414C70.5464 40.9871 71.2174 40.1851 71.2174 39.1969C71.2174 38.341 70.7268 37.9689 70.1376 37.522C69.4855 37.0274 68.7125 36.4411 68.3503 35.0057H73.3841C73.7535 36.3679 74.5066 36.943 75.1453 37.4308C75.7363 37.8822 76.2293 38.2587 76.2293 39.115C76.2293 40.096 75.5614 40.8947 74.8487 41.7468C74.1601 42.5702 73.4297 43.4435 73.22 44.5795V49.8145C73.3828 52.3611 74.3713 53.181 75.145 53.8227C75.6712 54.2591 76.098 54.6131 76.098 55.3719C76.098 57.0659 73.3732 59.7708 71.6168 60.9457C70.6867 61.6943 69.275 61.9785 67.1904 61.9785H64.7446C61.582 61.9785 59.957 61.3555 59.1965 59.4812C59.5109 58.9456 59.9137 58.4644 60.3035 57.9987L60.3036 57.9987C61.0195 57.1434 61.6915 56.3406 61.6915 55.35C61.6915 54.4925 61.1981 54.1165 60.6067 53.6658C59.7697 53.028 58.7364 52.2406 58.6274 49.727V44.9893C58.7235 43.6543 59.5378 42.6866 60.3027 41.7776C61.0187 40.9267 61.6915 40.1272 61.6915 39.1259C61.6915 38.2684 61.1981 37.8924 60.6067 37.4417C59.7697 36.8039 58.7364 36.0164 58.6274 33.5029V28.716C58.7236 27.3774 59.5387 26.4081 60.3039 25.498C61.0195 24.647 61.6915 23.8479 61.6915 22.8471C61.6915 21.9896 61.1981 21.6136 60.6067 21.1629C59.7697 20.5251 58.7364 19.7377 58.6274 17.2241V12.47C58.7238 11.1281 59.5427 10.1514 60.3097 9.23668C61.0231 8.38584 61.6915 7.58867 61.6915 6.60113C61.6915 5.74308 61.1978 5.36638 60.6063 4.9151C60.0564 4.49556 59.422 4.01156 59.0214 3.01641C59.6834 0.737709 61.3085 0 64.7446 0H67.1904C69.1273 0 70.4787 0.240438 71.4034 0.874322C73.9641 2.1858 76.2567 4.68308 76.2567 6.61206C76.2567 7.59307 75.5887 8.39176 74.8761 9.24389C74.1874 10.0673 73.4571 10.9406 73.2473 12.0766V17.8307C73.4877 19.8531 74.4122 20.5594 75.1738 21.1412C75.7642 21.5923 76.2567 21.9686 76.2567 22.8253ZM12.5845 22.8526C12.5444 23.401 12.3552 23.9282 12.0374 24.3772H13.542L17.1368 24.41C17.4539 23.9609 17.6326 23.4291 17.6511 22.8799C17.6511 22.0226 17.158 21.6466 16.5672 21.1961C15.7307 20.5582 14.6984 19.771 14.5926 17.2569V12.47C14.6858 11.1331 15.4976 10.1688 16.2614 9.26164C16.9774 8.41129 17.6511 7.61111 17.6511 6.60113C17.6511 4.51369 14.9646 1.72679 12.1358 0.55738L11.9991 0.502735L11.917 0.469948C10.8321 0.134377 9.69773 -0.013473 8.56294 0.0327871H6.11717C2.67558 0.0327871 1.05053 0.765032 0.388478 3.0492C0.790062 4.02434 1.41828 4.50404 1.96329 4.9202C2.55441 5.37157 3.04764 5.74818 3.04764 6.60113C3.04764 7.58941 2.37895 8.38764 1.66571 9.23905C0.927661 10.1201 0.141909 11.058 0 12.3225V17.4864C0.161419 19.8003 1.15589 20.5599 1.96562 21.1784C2.55568 21.6291 3.04764 22.0049 3.04764 22.8526C3.04764 23.8429 2.37622 24.6463 1.66134 25.5018C0.924565 26.3834 0.141629 27.3203 0 28.5739V33.7215C0.161575 36.0471 1.15781 36.8044 1.96797 37.4203C2.55699 37.8681 3.04764 38.2411 3.04764 39.0876C3.04764 40.0722 2.31716 40.9401 1.57146 41.8261C0.794002 42.7499 0 43.6933 0 44.809V49.9729C0.161199 52.2931 1.15318 53.0505 1.9623 53.6683C2.55384 54.12 3.04764 54.497 3.04764 55.3555C3.04764 56.3424 2.37817 57.1438 1.66553 57.9969L1.66551 57.997C1.27725 58.4618 0.876172 58.9419 0.563567 59.4757C1.31317 61.3665 2.94368 61.9894 6.11717 61.9894H8.56841C9.76647 62.0463 10.9644 61.8738 12.0975 61.4812C13.3834 61.2025 17.6511 57.4265 17.6511 55.3555C17.6511 54.4986 17.1584 54.1225 16.5679 53.6718C15.7313 53.0333 14.6984 52.245 14.5926 49.727V44.9838C14.6859 43.6444 15.5007 42.6747 16.2657 41.7641C16.9801 40.9138 17.6511 40.115 17.6511 39.115C17.6511 38.258 17.1584 37.882 16.5679 37.4313C15.7313 36.7928 14.6984 36.0044 14.5926 33.4865V28.6668H7.42486V33.6395H9.54234C9.68124 36.0136 10.6762 36.7632 11.4931 37.3788C12.0921 37.8301 12.5955 38.2094 12.5955 39.104C12.5955 40.0938 11.9231 40.9004 11.2077 41.7586C10.3946 42.7341 9.52593 43.7762 9.52593 45.2298V49.2899C9.52593 52.1517 10.6281 52.9926 11.5115 53.6667C12.1024 54.1175 12.5955 54.4937 12.5955 55.35C12.5955 56.4702 12.1468 56.9238 10.8555 56.9238H7.879C8.2131 56.4668 8.40356 55.9209 8.42615 55.3555C8.42615 54.4992 7.93309 54.123 7.3422 53.6721C6.45876 52.9981 5.35663 52.1572 5.35663 49.2953V45.2298C5.35663 43.769 6.22356 42.7296 7.03597 41.7555C7.75225 40.8967 8.42615 40.0888 8.42615 39.0876C8.42615 38.2313 7.93309 37.8551 7.3422 37.4043C6.45876 36.7302 5.35663 35.8893 5.35663 33.0275V28.9619C5.35663 27.5119 6.21034 26.4851 7.01165 25.5214C7.72024 24.6692 8.38785 23.8662 8.38785 22.8635C8.38785 22.0072 7.89479 21.631 7.3039 21.1801C6.42046 20.5061 5.31832 19.6652 5.31832 16.8034V12.3662C5.44653 11.1025 6.2363 10.1564 6.98039 9.26498C7.6971 8.4064 8.37144 7.59857 8.37144 6.60659C8.36755 5.99162 8.04441 5.42272 7.51788 5.10385H7.7641C7.86615 5.09814 7.96845 5.09814 8.0705 5.10385H11.7364C12.26 5.42227 12.581 5.98892 12.5845 6.60113C12.5845 7.6737 11.9343 8.51884 11.2252 9.44046C10.5182 10.3594 9.75266 11.3545 9.51499 12.7268V16.7924C9.51499 19.6543 10.6171 20.4952 11.5006 21.1692C12.0915 21.6201 12.5845 21.9963 12.5845 22.8526ZM27.8063 55.3719C27.7995 55.7529 27.704 56.1271 27.5273 56.4648L31.1877 56.4484V61.5085H19.3254V61.4648C19.3254 60.0041 20.1924 58.9693 21.0048 57.9996C21.7211 57.1446 22.395 56.3402 22.395 55.3391C22.395 54.4828 21.9019 54.1066 21.311 53.6557C20.4276 52.9817 19.3254 52.1408 19.3254 49.279V45.2134C19.3254 43.7526 20.1924 42.7178 21.0048 41.7481C21.7211 40.8931 22.395 40.0888 22.395 39.0876C22.395 38.2313 21.9019 37.8551 21.311 37.4043C20.4276 36.7302 19.3254 35.8893 19.3254 33.0275V28.9619C19.3254 27.5119 20.1915 26.4836 21.0044 25.5184C21.7232 24.6649 22.4004 23.8608 22.4004 22.858C22.4004 22.0017 21.9074 21.6255 21.3165 21.1747C20.433 20.5006 19.3309 19.6597 19.3309 16.7979V12.7323C19.3309 11.2716 20.1978 10.2368 21.0103 9.26706C21.7265 8.4121 22.4004 7.60772 22.4004 6.60659C22.4004 5.75026 21.9074 5.37407 21.3165 4.92323C20.433 4.24918 19.3309 3.40828 19.3309 0.546451V0.437161H24.7477V0.546451C24.7477 3.4063 25.8494 4.25056 26.7304 4.92568C27.3173 5.37543 27.8063 5.75012 27.8063 6.59566C27.8063 7.58542 27.1339 8.39204 26.4186 9.25025C25.6055 10.2257 24.7368 11.2679 24.7368 12.7214V16.776C24.7368 19.6438 25.8435 20.4901 26.7278 21.1664C27.3163 21.6165 27.8063 21.9912 27.8063 22.8362C27.8063 23.8259 27.1339 24.6326 26.4186 25.4908C25.6055 26.4663 24.7368 27.5084 24.7368 28.9619V33.0439C24.7368 35.9116 25.8435 36.758 26.7278 37.4343C27.3163 37.8843 27.8063 38.2591 27.8063 39.104C27.8063 40.0938 27.1339 40.9004 26.4186 41.7586C25.6055 42.7341 24.7368 43.7762 24.7368 45.2298V49.3117C24.7368 52.1736 25.8389 53.0145 26.7223 53.6885C27.3132 54.1394 27.8063 54.5155 27.8063 55.3719ZM39.0776 28.9619C39.0776 27.5093 39.9453 26.4691 40.758 25.4947C41.4739 24.6364 42.1472 23.8292 42.1472 22.8362C42.1472 21.9887 41.6567 21.6144 41.0679 21.1651C40.1837 20.4903 39.0776 19.6462 39.0776 16.776V12.6995C39.0776 11.2469 39.9453 10.2067 40.758 9.23232C41.4739 8.37401 42.1472 7.5668 42.1472 6.57381C42.1472 5.7263 41.6567 5.35202 41.0679 4.90268C40.1837 4.2279 39.0776 3.38384 39.0776 0.513664V0.437161H33.6608V1.31148C33.8341 3.5551 34.8021 4.29472 35.5921 4.89833C36.1739 5.34293 36.6592 5.71374 36.6592 6.55741C36.6592 7.5431 35.9874 8.34361 35.2723 9.19567C34.5444 10.063 33.7716 10.9838 33.6171 12.2077V17.5411C33.8028 19.7825 34.7817 20.5301 35.5796 21.1396C36.1687 21.5895 36.6592 21.9641 36.6592 22.8089C36.6592 23.7946 35.9874 24.5951 35.2723 25.4471C34.5444 26.3145 33.7716 27.2353 33.6171 28.4592V33.7925C33.8028 36.034 34.7817 36.7816 35.5796 37.391C36.1687 37.8409 36.6592 38.2155 36.6592 39.0603C36.6592 40.046 35.9874 40.8465 35.2723 41.6986C34.5444 42.5659 33.7716 43.4867 33.6171 44.7106V50.044C33.8028 52.2854 34.7817 53.033 35.5796 53.6425C36.1687 54.0924 36.6592 54.467 36.6592 55.3118C36.6592 56.2975 35.9874 57.098 35.2723 57.95C34.5444 58.8174 33.7716 59.7382 33.6171 60.9621V61.5085H39.0339V61.443C39.0339 59.9903 39.9015 58.9501 40.7142 57.9758C41.4301 57.1174 42.1034 56.3102 42.1034 55.3172C42.1034 54.4697 41.613 54.0954 41.0241 53.6461C40.1399 52.9713 39.0339 52.1273 39.0339 49.2571V45.2079C39.0339 43.7553 39.9015 42.7151 40.7142 41.7407C41.4301 40.8824 42.1034 40.0752 42.1034 39.0822C42.1034 38.2347 41.613 37.8604 41.0241 37.4111C40.1399 36.7363 39.0339 35.8922 39.0339 33.022V28.9619H39.0776ZM95.9815 22.8362C95.9815 21.9798 95.4884 21.6033 94.8972 21.1521C94.0361 20.4946 92.9672 19.6785 92.912 16.9892V12.5684C92.9608 11.173 93.8023 10.1652 94.5918 9.21973C95.3081 8.362 95.9815 7.55553 95.9815 6.55741C95.9815 5.70425 95.4895 5.32805 94.8992 4.87678C94.0378 4.21815 92.9672 3.39962 92.912 0.704922V0.437161H87.5444V1.16394C87.6997 3.5122 88.6973 4.27502 89.5096 4.89606C90.0998 5.34735 90.5921 5.72377 90.5921 6.57927C90.5921 7.58036 89.9193 8.38531 89.2037 9.24148C88.4662 10.1238 87.6833 11.0606 87.5444 12.3225V17.4154C87.6997 19.7637 88.6973 20.5265 89.5096 21.1475C90.0998 21.5988 90.5921 21.9752 90.5921 22.8307C90.5921 23.8194 89.9237 24.6201 89.2115 25.4732C88.7783 25.9921 88.329 26.5304 88.004 27.1422H83.8129C84.1433 26.5157 84.6 25.9689 85.0381 25.4444C85.7464 24.5964 86.4064 23.8064 86.4064 22.8307C86.4064 21.9748 85.9129 21.5984 85.3214 21.1473C84.4967 20.5183 83.4816 19.7441 83.3478 17.3225V12.4044C83.4657 11.1066 84.2675 10.148 85.0205 9.24784C85.7354 8.39321 86.4064 7.59113 86.4064 6.60113C86.4064 5.75437 85.9155 5.37885 85.3262 4.92794C84.5007 4.29637 83.4818 3.5169 83.3478 1.08744V0.437161H77.931V1.2623C78.0893 3.60231 79.0849 4.36314 79.8958 4.98278C80.4862 5.43393 80.9786 5.81023 80.9786 6.6667C80.9786 7.67112 80.3013 8.48343 79.5831 9.3449C78.8477 10.2269 78.0694 11.1604 77.931 12.4044V17.5138C78.0893 19.8538 79.0849 20.6146 79.8958 21.2342C80.4862 21.6854 80.9786 22.0617 80.9786 22.9182C80.9786 23.9226 80.3013 24.7349 79.5831 25.5964C78.8477 26.4784 78.0694 27.4119 77.931 28.6559V33.7652C78.0893 36.1052 79.0849 36.8661 79.8958 37.4857C80.4862 37.9368 80.9786 38.3131 80.9786 39.1696C80.9786 40.174 80.3013 40.9863 79.5831 41.8478C78.8477 42.7298 78.0694 43.6633 77.931 44.9073V50.0167C78.0893 52.3567 79.0849 53.1175 79.8958 53.7371C80.4862 54.1883 80.9786 54.5646 80.9786 55.4211C80.9786 56.4255 80.3013 57.2378 79.5831 58.0993C78.8477 58.9813 78.0694 59.9148 77.931 61.1588V61.5249H83.3478V61.1369C83.4656 59.8427 84.2665 58.8844 85.0191 57.984C85.7345 57.128 86.4064 56.3243 86.4064 55.3336C86.4064 54.4865 85.9151 54.1111 85.3255 53.6603C84.5001 53.0294 83.4818 52.251 83.3478 49.8254V44.9073C83.4656 43.6131 84.2665 42.6549 85.0191 41.7544C85.7345 40.8984 86.4064 40.0947 86.4064 39.104C86.4064 38.2569 85.9151 37.8815 85.3255 37.4307C84.5001 36.7998 83.4818 36.0214 83.3478 33.5958V32.2024H87.5444V33.6668C87.6997 36.0151 88.6973 36.7779 89.5096 37.399C90.0998 37.8503 90.5921 38.2267 90.5921 39.0822C90.5921 40.0851 89.9168 40.8912 89.1997 41.7472C88.4634 42.6261 87.683 43.5576 87.5444 44.809V49.9019C87.6997 52.2502 88.6973 53.013 89.5096 53.634C90.0998 54.0853 90.5921 54.4617 90.5921 55.3172C90.5921 56.3202 89.9154 57.1316 89.1976 57.9924C88.4606 58.8762 87.6803 59.8119 87.5444 61.0604V61.5085H92.8737V61.3227C92.9225 59.9265 93.765 58.9168 94.555 57.9702C95.2707 57.1125 95.9432 56.3066 95.9432 55.3118C95.9432 54.4612 95.4516 54.0854 94.8617 53.6344C94.0001 52.9758 92.9289 52.157 92.8737 49.4647V45.0931C92.9225 43.6969 93.765 42.6872 94.555 41.7406C95.2707 40.883 95.9432 40.077 95.9432 39.0822C95.9432 38.2316 95.4516 37.8558 94.8617 37.4048C94.0001 36.7462 92.9289 35.9274 92.8737 33.2351V28.8635C92.9255 27.4494 93.7736 26.4314 94.5659 25.4802C95.2799 24.623 95.9487 23.8202 95.9487 22.8307L95.9815 22.8362ZM112.659 30.645V28.8471L112.626 28.8362C112.672 27.4407 113.521 26.4314 114.319 25.4837C115.042 24.624 115.723 23.815 115.723 22.8143C115.723 21.9585 115.229 21.582 114.638 21.1307C113.776 20.4726 112.705 19.6556 112.653 16.9618V12.317C112.784 11.0543 113.573 10.1087 114.316 9.21786C115.032 8.35851 115.706 7.55019 115.706 6.55741C115.706 5.67026 115.246 5.28931 114.67 4.81165C113.999 4.2566 113.171 3.57097 112.724 1.80875C112.434 0.677599 109.496 0.437161 107.461 0.437161H106.624H97.8692V1.25684C98.046 3.53967 99.0316 4.29424 99.8338 4.90837C100.422 5.35856 100.911 5.73329 100.911 6.57927C100.911 7.56856 100.241 8.37201 99.5264 9.22769C98.7966 10.1019 98.0213 11.0307 97.8692 12.2678V17.5083C98.046 19.7911 99.0316 20.5457 99.8338 21.1598C100.422 21.61 100.911 21.9847 100.911 22.8307C100.911 23.82 100.241 24.6235 99.5264 25.4791C98.7966 26.3534 98.0213 27.2821 97.8692 28.5193V33.7597C98.046 36.0426 99.0316 36.7971 99.8338 37.4113C100.422 37.8615 100.911 38.2362 100.911 39.0822C100.911 40.0715 100.241 40.8749 99.5264 41.7306C98.7966 42.6048 98.0213 43.5336 97.8692 44.7707V50.0167C98.046 52.2995 99.0316 53.0541 99.8338 53.6682C100.422 54.1184 100.911 54.4931 100.911 55.3391C100.911 56.3284 100.241 57.1318 99.5264 57.9875C98.7966 58.8617 98.0213 59.7905 97.8692 61.0276V61.5304H103.286V61.4648C103.286 60.0041 104.155 58.9693 104.968 57.9996C105.686 57.1446 106.361 56.3402 106.361 55.3391C106.361 54.4831 105.867 54.1077 105.276 53.6578C104.391 52.9847 103.286 52.1447 103.286 49.279V45.2134C103.286 43.75 104.158 42.7094 104.973 41.7363C105.689 40.8817 106.361 40.0791 106.361 39.0876C106.361 38.2742 105.888 37.8962 105.35 37.4669L105.327 37.4483H106.64C111.433 37.4483 112.659 35.88 112.659 30.645ZM107.329 17.9181V12.5684C107.519 11.4007 108.263 10.5098 108.965 9.66909C109.679 8.81407 110.35 8.01107 110.35 7.0219C110.333 6.38623 109.984 5.80572 109.431 5.49183H105.973C106.238 5.79292 106.379 6.18368 106.366 6.58473C106.366 7.57615 105.694 8.37878 104.978 9.23343C104.163 10.2065 103.291 11.2471 103.291 12.7105V16.7815C103.291 19.6473 104.396 20.4873 105.281 21.1603C105.873 21.6103 106.366 21.9856 106.366 22.8417C106.366 23.8444 105.688 24.6521 104.968 25.5095C104.154 26.479 103.286 27.5119 103.286 28.9619V32.3827H105.562C107.132 32.3827 107.308 31.7707 107.308 29.9401V28.3007C107.524 27.1822 108.243 26.3193 108.923 25.5028C109.639 24.6439 110.311 23.8363 110.311 22.8362C110.311 21.9812 109.818 21.607 109.225 21.1582C108.466 20.583 107.546 19.8854 107.297 17.8963L107.329 17.9181ZM131.672 50.503V44.809C131.814 43.5545 132.593 42.6186 133.328 41.7367C134.042 40.8783 134.714 40.0712 134.714 39.0712C134.714 38.2164 134.222 37.8406 133.632 37.3898C132.822 36.7716 131.828 36.0125 131.667 33.6832V28.5466C131.808 27.2919 132.589 26.3586 133.325 25.4793C134.041 24.6239 134.714 23.8195 134.714 22.8198C134.714 21.965 134.222 21.5891 133.632 21.1384C132.822 20.5201 131.828 19.761 131.667 17.4318V12.0383C131.667 10.969 132.452 10.0666 133.221 9.18394C133.956 8.33891 134.676 7.51191 134.676 6.57381C134.676 5.64592 134.197 5.24365 133.571 4.718C132.904 4.15707 132.069 3.45566 131.47 1.82515C130.983 0.486341 128.838 0 126.102 0H125.555H122.847C119.323 0 117.703 0.770496 117.08 3.19674C117.481 4.19017 118.115 4.6766 118.664 5.09781C119.253 5.55008 119.744 5.92717 119.744 6.77599C119.744 7.76569 119.075 8.56765 118.362 9.42204C117.677 10.2423 116.952 11.111 116.741 12.2405V18.0547C116.984 20.0622 117.907 20.7703 118.666 21.3529C119.254 21.8044 119.744 22.1805 119.744 23.0274C119.744 24.0171 119.075 24.8191 118.362 25.6735C117.677 26.4938 116.952 27.3624 116.741 28.492V34.3062C116.984 36.3136 117.907 37.0217 118.666 37.6044C119.254 38.0559 119.744 38.432 119.744 39.2789C119.744 40.2686 119.075 41.0706 118.362 41.9249C117.677 42.7452 116.952 43.6139 116.741 44.7434V50.5522C116.984 52.556 117.903 53.26 118.662 53.8405C119.252 54.292 119.744 54.6689 119.744 55.5249C119.744 56.5147 119.075 57.3155 118.361 58.1693C118.002 58.5976 117.633 59.0393 117.331 59.5249C118.103 61.3501 119.728 61.9566 122.852 61.9566H125.561C127.711 61.9566 129.155 61.6615 130.102 60.8637C131.853 59.6561 134.479 56.9948 134.479 55.3555C134.479 54.5957 134.052 54.241 133.526 53.8035C132.83 53.2247 131.959 52.5011 131.672 50.503ZM127.596 56.8692C128.887 56.8692 129.336 56.4156 129.336 55.2954C129.336 54.4399 128.843 54.0741 128.252 53.6355C127.367 52.9785 126.261 52.158 126.261 49.2844V45.1369C126.261 43.6842 127.144 42.661 127.971 41.7026C128.7 40.8583 129.385 40.0642 129.385 39.0712C129.385 38.2237 128.895 37.8495 128.306 37.4001C127.422 36.7253 126.316 35.8813 126.316 33.0111V29.1532C126.316 27.6997 127.184 26.6575 127.997 25.682C128.713 24.8238 129.385 24.0172 129.385 23.0274C129.385 22.1828 128.896 21.8089 128.307 21.3597C127.423 20.6844 126.316 19.839 126.316 16.9673H126.266V12.5028C126.36 11.1699 127.178 10.1917 127.946 9.27439C128.66 8.42041 129.33 7.61926 129.33 6.63391C129.321 5.99908 128.981 5.41507 128.433 5.09292H125.063C124.881 5.07154 124.698 5.06241 124.516 5.0656H124.264C124.786 5.38392 125.108 5.94691 125.117 6.55741C125.117 7.54678 124.448 8.34818 123.735 9.20221C122.979 10.1076 122.174 11.0722 122.064 12.3826V17.2679C122.189 19.7207 123.208 20.4997 124.035 21.1319C124.625 21.5828 125.117 21.959 125.117 22.8143C125.117 23.8137 124.446 24.6165 123.731 25.4706C122.976 26.3725 122.174 27.3316 122.064 28.6395V33.5193C122.189 35.9721 123.208 36.7512 124.035 37.3834C124.625 37.8343 125.117 38.2104 125.117 39.0658C125.117 40.0651 124.446 40.8679 123.731 41.722C122.976 42.6239 122.174 43.583 122.064 44.8909V49.7708C122.189 52.2236 123.208 53.0027 124.035 53.6348C124.625 54.0857 125.117 54.4619 125.117 55.3172C125.096 55.8812 124.905 56.4257 124.57 56.8801C124.733 56.8812 124.896 56.8703 125.057 56.8473H127.591L127.596 56.8692ZM151.255 30.6395V28.9619C151.255 27.5119 152.113 26.4713 152.919 25.4945C153.631 24.6308 154.303 23.817 154.303 22.8143C154.303 21.9583 153.81 21.5829 153.219 21.133C152.336 20.4599 151.233 19.6199 151.233 16.7542V12.5028C151.302 11.1342 152.133 10.139 152.912 9.20589C153.626 8.35075 154.297 7.54781 154.297 6.55741C154.297 5.67974 153.843 5.29793 153.273 4.81943C152.608 4.26117 151.787 3.57128 151.348 1.80875C151.058 0.672135 148.103 0.437161 146.068 0.437161H145.231H136.476V1.37706C136.674 3.57906 137.643 4.31957 138.434 4.92414C139.023 5.37428 139.513 5.74907 139.513 6.59566C139.513 7.58646 138.841 8.39048 138.126 9.24675C137.409 10.1048 136.649 11.0152 136.476 12.2186V17.6285C136.674 19.8305 137.643 20.571 138.434 21.1756C139.023 21.6257 139.513 22.0005 139.513 22.8471C139.513 23.8379 138.841 24.6419 138.126 25.4982C137.409 26.3562 136.649 27.2667 136.476 28.4701V33.88C136.674 36.0703 137.643 36.8129 138.435 37.42C139.026 37.8732 139.518 38.2508 139.518 39.0986C139.518 40.0894 138.847 40.8934 138.132 41.7496C137.415 42.6077 136.654 43.5181 136.482 44.7215V50.1314C136.679 52.3334 137.648 53.0739 138.439 53.6785C139.028 54.1286 139.518 54.5034 139.518 55.35C139.518 56.3408 138.847 57.1448 138.132 58.0011C137.415 58.8591 136.654 59.7696 136.482 60.973V61.5195H141.899V60.9293C142.076 59.7364 142.829 58.8368 143.541 57.9874C144.257 57.1326 144.93 56.3287 144.93 55.3282C144.93 54.4741 144.439 54.1029 143.85 53.6574C143.064 53.0625 142.102 52.335 141.899 50.1478V44.6833C142.076 43.4881 142.832 42.5832 143.545 41.7304C144.259 40.8753 144.93 40.0726 144.93 39.0822C144.93 38.2646 144.457 37.8869 143.916 37.4548L143.901 37.4428H145.236C150.035 37.4428 151.255 35.8745 151.255 30.6395ZM148.946 22.8499C148.945 21.9946 148.452 21.6181 147.862 21.167C147.077 20.5679 146.121 19.8371 145.915 17.6777V12.4755C146.13 11.3613 146.847 10.5007 147.527 9.68534C148.244 8.82516 148.919 8.01527 148.919 7.01097C148.911 6.37694 148.573 5.79269 148.027 5.46997H144.536C144.799 5.77189 144.938 6.16256 144.924 6.56288C144.924 7.55325 144.254 8.35598 143.539 9.21107C142.827 10.0639 142.071 10.9688 141.893 12.164V17.6285C142.096 19.8157 143.058 20.5432 143.845 21.1381C144.434 21.5836 144.924 21.9548 144.924 22.8089C144.924 23.8135 144.248 24.6254 143.53 25.4876C142.823 26.3372 142.075 27.2357 141.893 28.4155V32.3608H144.169C145.74 32.3608 145.915 31.7488 145.915 29.9182V28.4155C146.094 27.238 146.846 26.342 147.556 25.4958L147.556 25.4956C148.272 24.6422 148.945 23.8396 148.946 22.8499ZM45.1127 0.437161H57.7848L57.8122 5.40987H54.1681C54.4631 5.71774 54.6209 6.13158 54.6058 6.55741C54.6058 7.55893 53.9314 8.36465 53.2138 9.22211C52.463 10.1191 51.6649 11.0727 51.5418 12.3662V17.3334C51.6757 19.7513 52.6911 20.5275 53.5147 21.1571C54.1038 21.6075 54.5949 21.983 54.5949 22.8307C54.5949 23.8214 53.9244 24.6239 53.2103 25.4785C52.459 26.3775 51.6596 27.3343 51.5418 28.6286V33.5849C51.6757 36.0027 52.6911 36.7789 53.5147 37.4086C54.1038 37.859 54.5949 38.2344 54.5949 39.0822C54.5949 40.0728 53.9244 40.8753 53.2103 41.7299C52.459 42.629 51.6596 43.5857 51.5418 44.88V49.8145C51.6757 52.2323 52.6911 53.0085 53.5147 53.6382C54.1038 54.0886 54.5949 54.464 54.5949 55.3118C54.5949 56.3024 53.9244 57.1049 53.2103 57.9595C52.459 58.8586 51.6596 59.8153 51.5418 61.1096V61.5031H46.2125V60.9566C46.3821 59.7546 47.1397 58.8489 47.855 57.9939C48.5706 57.1385 49.2437 56.3338 49.2437 55.3336C49.2437 54.4771 48.7501 54.0987 48.1589 53.6455C47.3696 53.0404 46.4065 52.3021 46.2125 50.115V44.7052C46.3821 43.5031 47.1397 42.5975 47.855 41.7424C48.5706 40.8871 49.2437 40.0823 49.2437 39.0822C49.2437 38.2252 48.7515 37.8498 48.1613 37.3997C47.3741 36.7994 46.4126 36.0661 46.2125 33.88V28.4537C46.3821 27.2517 47.1397 26.346 47.855 25.4909C48.5706 24.6356 49.2437 23.8309 49.2437 22.8307C49.2437 21.9742 48.7501 21.5958 48.1589 21.1426C47.3696 20.5375 46.4065 19.7992 46.2125 17.6121V12.2132C46.3826 11.0052 47.1438 10.0938 47.8607 9.23539C48.5741 8.38125 49.2437 7.57951 49.2437 6.5902C49.26 6.14925 49.0915 5.72149 48.7787 5.40987H45.1127V0.437161Z" fill="black"/>
</svg>
