<?xml version="1.0" encoding="UTF-8"?>
<svg width="56px" height="56px" viewBox="0 0 56 56" version="1.1" xmlns="http://www.w3.org/2000/svg" xmlns:xlink="http://www.w3.org/1999/xlink">
    <title>twitter-button</title>
    <g id="Page-1" stroke="none" stroke-width="1" fill="none" fill-rule="evenodd">
        <g id="Desktop-1Pager-v01" transform="translate(-773.000000, -4692.000000)">
            <g id="Iris-Artist-Call-Out" transform="translate(242.000000, 4363.000000)">
                <g id="twitter-button" transform="translate(534.000000, 332.000000)">
                    <rect id="Rectangle-Copy" stroke="#D627FF" stroke-width="3" fill="#F7E9FF" x="-1.5" y="-1.5" width="53" height="53"></rect>
                    <g id="twitter" transform="translate(10.000000, 12.307692)" fill="#2B00D0" fill-rule="nonzero">
                        <path d="M30.7089744,3.02386161 C29.5570277,3.53867463 28.3366721,3.8784967 27.0871795,4.03239215 C28.4027074,3.22979758 29.3876999,1.97114462 29.8602564,0.4888713 C28.6410256,1.2111093 27.2897436,1.73684651 25.8512821,2.0296457 C23.8999709,-0.0883504185 20.789867,-0.610704415 18.270432,0.75641259 C15.7509971,2.1235296 14.4513541,5.0387376 15.1025641,7.86220553 C9.85897436,7.61104889 5.21410256,5.05393598 2.1025641,1.19158935 C1.53691512,2.16734423 1.24187691,3.28025718 1.24871795,4.41238043 C1.24871795,6.63765426 2.36410256,8.59355284 4.05384615,9.74262699 C3.05238229,9.71026988 2.07304042,9.4354287 1.1974359,8.94100787 L1.1974359,9.01908766 C1.19626461,12.06811 3.31230453,14.695509 6.25641026,15.3006062 C5.33115231,15.5522588 4.36206807,15.5900576 3.42051282,15.4112193 C4.25134579,18.0202774 6.62220731,19.8063447 9.32307692,19.857863 C7.09170217,21.6354116 4.33650837,22.6001599 1.5,22.597162 C1,22.597162 0.501282051,22.5672314 0,22.5099729 C2.89193453,24.3895157 6.2545038,25.3872146 9.68846154,25.3846154 C21.2948718,25.3846154 27.6346154,15.6298427 27.6346154,7.18551407 C27.6346154,6.91223483 27.6346154,6.63895559 27.6153846,6.36567635 C28.8538373,5.46107415 29.9220904,4.33796895 30.7692308,3.0498882 L30.7089744,3.02386161 Z" id="Path"></path>
                    </g>
                </g>
            </g>
        </g>
    </g>
</svg>