<svg width="63" height="63" viewBox="0 0 63 63" fill="none" xmlns="http://www.w3.org/2000/svg">
<rect x="1.5" y="1.5" width="60" height="60" fill="white" stroke="#00D3FF" stroke-width="3"/>
<path fill-rule="evenodd" clip-rule="evenodd" d="M44.0941 20.9655C41.8199 19.9383 39.42 19.2059 36.9543 18.7864C36.9084 18.778 36.8621 18.7995 36.8396 18.8398C36.5312 19.3795 36.1896 20.0835 35.9505 20.6367C33.2544 20.2395 30.5721 20.2395 27.9314 20.6367C27.6923 20.0711 27.3383 19.3795 27.0286 18.8398C27.0051 18.8005 26.9596 18.7794 26.9138 18.7866C24.4479 19.205 22.0478 19.9374 19.774 20.9653C19.7545 20.9735 19.7381 20.9874 19.727 21.0051C15.1796 27.69 13.9338 34.2105 14.545 40.6502C14.5485 40.6821 14.565 40.7112 14.5906 40.7309C17.5909 42.899 20.4971 44.2152 23.3495 45.0875C23.3949 45.1008 23.4439 45.085 23.4725 45.0478C24.1472 44.1412 24.7486 43.1852 25.2644 42.1799C25.2787 42.1521 25.2803 42.1196 25.2686 42.0905C25.257 42.0615 25.2333 42.0387 25.2036 42.0279C24.2495 41.6719 23.3411 41.2377 22.4673 40.7447C22.4349 40.726 22.4142 40.6927 22.4119 40.6558C22.4097 40.6189 22.4263 40.5834 22.4562 40.5611C22.64 40.4255 22.824 40.2845 22.9996 40.142C23.0314 40.1162 23.0753 40.1103 23.113 40.1269C28.8536 42.7059 35.0683 42.7059 40.7412 40.1269C40.7789 40.1093 40.8235 40.1146 40.8559 40.1406C41.0316 40.2829 41.2154 40.4255 41.4007 40.5611C41.4307 40.5832 41.4475 40.6185 41.4456 40.6553C41.4436 40.6922 41.4232 40.7256 41.3911 40.7446C40.5169 41.247 39.6012 41.6758 38.6536 42.0265C38.6239 42.0377 38.6004 42.0608 38.589 42.0901C38.5777 42.1194 38.5795 42.1521 38.5942 42.1799C39.1209 43.1837 39.7223 44.1398 40.3845 45.0464C40.4123 45.0847 40.4619 45.1013 40.5076 45.0875C43.3737 44.215 46.2799 42.8989 49.2802 40.7309C49.3063 40.7122 49.323 40.6832 49.3259 40.6515C50.0573 33.2065 48.1009 26.7394 44.1397 21.0064C44.1299 20.9878 44.1138 20.9732 44.0941 20.9653V20.9655ZM26.1216 36.7291C24.3933 36.7291 22.9692 35.1677 22.9692 33.2503C22.9692 31.333 24.3657 29.7717 26.1217 29.7717C27.8913 29.7717 29.3016 31.3467 29.2739 33.2505C29.2739 35.1677 27.8774 36.7291 26.1216 36.7291ZM34.6246 33.2503C34.6246 35.1677 36.0487 36.7291 37.777 36.7291C39.5466 36.7291 40.9293 35.1677 40.9293 33.2505C40.9569 31.3467 39.5466 29.7717 37.777 29.7717C36.021 29.7717 34.6246 31.333 34.6246 33.2503Z" fill="black"/>
<path d="M60 31.5C60 47.2392 47.2392 60 31.5 60C15.7608 60 3 47.2392 3 31.5C3 15.7608 15.7608 3 31.5 3C47.2425 3 60 15.7608 60 31.5Z" fill="white"/>
<path d="M17.0607 32.4576L17.1837 32.2644L24.5977 20.6661C24.706 20.4963 24.9608 20.5139 25.0428 20.6983C26.2813 23.4742 27.3501 26.9264 26.8494 29.0757C26.6357 29.9599 26.05 31.1576 25.3912 32.2644C25.3063 32.4254 25.2126 32.5836 25.113 32.7358C25.0662 32.8061 24.9871 32.8471 24.9022 32.8471H17.2774C17.0724 32.8471 16.9524 32.6245 17.0607 32.4576Z" fill="#2081E2"/>
<path d="M50.1073 34.6128V36.4487C50.1073 36.5541 50.0429 36.6478 49.9492 36.6888C49.3753 36.9348 47.4105 37.8366 46.5936 38.9727C44.5088 41.8744 42.9159 46.0236 39.3553 46.0236H24.5009C19.2362 46.0236 14.97 41.7427 14.97 36.4604V36.2905C14.97 36.15 15.0842 36.0358 15.2247 36.0358H23.5054C23.6694 36.0358 23.7895 36.1881 23.7748 36.3491C23.7162 36.8879 23.8158 37.4384 24.0705 37.9391C24.5624 38.9375 25.5815 39.5612 26.6824 39.5612H30.7818V36.3608H26.7293C26.5213 36.3608 26.3984 36.1207 26.5184 35.9509C26.5624 35.8835 26.6122 35.8132 26.6649 35.7342C27.0484 35.1896 27.596 34.3433 28.1406 33.38C28.5125 32.73 28.8727 32.036 29.1625 31.3391C29.2211 31.2132 29.2679 31.0844 29.3148 30.9584C29.3938 30.7359 29.4758 30.528 29.5344 30.3202C29.5929 30.1445 29.6398 29.96 29.6867 29.7872C29.8243 29.1957 29.8828 28.5691 29.8828 27.9191C29.8828 27.6643 29.8711 27.3979 29.8477 27.1431C29.836 26.8649 29.8009 26.5868 29.7657 26.3086C29.7423 26.0626 29.6984 25.8196 29.6515 25.5649C29.5929 25.193 29.511 24.8241 29.4173 24.4522L29.3851 24.3117C29.3148 24.0569 29.2562 23.8139 29.1742 23.5591C28.9429 22.7597 28.6764 21.9809 28.3954 21.2518C28.2929 20.9619 28.1757 20.6837 28.0586 20.4056C27.8859 19.9868 27.7102 19.6062 27.5491 19.246C27.4672 19.082 27.3969 18.9327 27.3266 18.7804C27.2475 18.6077 27.1656 18.435 27.0835 18.2709C27.025 18.145 26.9576 18.0279 26.9108 17.9108L26.4101 16.9855C26.3398 16.8596 26.4569 16.7103 26.5946 16.7483L29.7277 17.5975H29.7365C29.7423 17.5975 29.7452 17.6004 29.7482 17.6004L30.161 17.7146L30.6149 17.8434L30.7818 17.8903V16.028C30.7818 15.1291 31.5021 14.4 32.3922 14.4C32.8373 14.4 33.2414 14.5815 33.5313 14.8773C33.8211 15.173 34.0027 15.5771 34.0027 16.028V18.7922L34.3365 18.8858C34.3628 18.8946 34.3892 18.9064 34.4126 18.9239C34.4946 18.9854 34.6117 19.0762 34.7611 19.1874C34.8782 19.2812 35.0041 19.3953 35.1564 19.5125C35.458 19.7555 35.8181 20.0688 36.2134 20.4289C36.3188 20.5198 36.4213 20.6134 36.515 20.7072C37.0245 21.1815 37.5955 21.7379 38.1401 22.3528C38.2923 22.5255 38.4417 22.7012 38.5939 22.8856C38.7463 23.0731 38.9072 23.2575 39.0478 23.442C39.2323 23.688 39.4314 23.9427 39.6042 24.2092C39.6861 24.3351 39.7799 24.4639 39.8589 24.5898C40.0815 24.9266 40.2777 25.275 40.4651 25.6234C40.5441 25.7845 40.6261 25.9602 40.6964 26.1329C40.9042 26.5985 41.0682 27.0729 41.1736 27.5472C41.2059 27.6497 41.2292 27.761 41.241 27.8605V27.8839C41.2761 28.0245 41.2878 28.1739 41.2995 28.3261C41.3464 28.8121 41.323 29.2982 41.2175 29.7872C41.1736 29.9951 41.115 30.1913 41.0448 30.3992C40.9745 30.5983 40.9042 30.8062 40.8135 31.0024C40.6378 31.4094 40.4299 31.8164 40.1839 32.197C40.1049 32.3376 40.0111 32.4869 39.9175 32.6275C39.815 32.7768 39.7096 32.9174 39.6159 33.055C39.4871 33.2307 39.3494 33.4151 39.2088 33.5791C39.0829 33.7519 38.9541 33.9246 38.8136 34.0769C38.6174 34.3082 38.43 34.5278 38.2338 34.7387C38.1167 34.8763 37.9908 35.0168 37.8619 35.1427C37.736 35.2833 37.6072 35.4092 37.49 35.5263C37.2939 35.7225 37.1299 35.8747 36.9923 36.0007L36.6702 36.2964C36.6233 36.3374 36.5618 36.3608 36.4974 36.3608H34.0027V39.5612H37.1416C37.8444 39.5612 38.512 39.3124 39.0508 38.8556C39.2352 38.6945 40.0405 37.9976 40.9921 36.9465C41.0243 36.9113 41.0653 36.885 41.1121 36.8733L49.7823 34.3668C49.9433 34.3199 50.1073 34.4429 50.1073 34.6128Z" fill="#2081E2"/>
</svg>
