<svg width="49" height="49" viewBox="0 0 49 49" fill="none" xmlns="http://www.w3.org/2000/svg">
<rect x="1.71" y="1.71" width="45.58" height="45.58" fill="white" stroke="#00D3FF" stroke-width="2.58"/>
<path d="M38.0097 16.185C37.019 16.6277 35.9695 16.92 34.895 17.0523C36.0263 16.3621 36.8734 15.2797 37.2798 14.0049C36.2313 14.626 35.0692 15.0782 33.8321 15.33C32.154 13.5085 29.4793 13.0593 27.3125 14.235C25.1458 15.4107 24.0281 17.9178 24.5882 20.346C20.0787 20.13 16.0841 17.9309 13.4082 14.6092C12.9217 15.4484 12.668 16.4055 12.6739 17.3791C12.6739 19.2929 13.6331 20.9749 15.0863 21.9631C14.225 21.9353 13.3828 21.6989 12.6298 21.2737V21.3409C12.6288 23.963 14.4486 26.2226 16.9805 26.743C16.1848 26.9594 15.3514 26.9919 14.5416 26.8381C15.2561 29.0819 17.2951 30.6179 19.6178 30.6622C17.6988 32.1909 15.3294 33.0206 12.89 33.018C12.46 33.018 12.0311 32.9923 11.6 32.943C14.087 34.5595 16.9788 35.4175 19.9321 35.4152C29.9136 35.4152 35.3657 27.0261 35.3657 19.764C35.3657 19.529 35.3657 19.294 35.3492 19.059C36.4143 18.281 37.333 17.3151 38.0615 16.2074L38.0097 16.185Z" fill="black"/>
</svg>
