<svg width="139" height="61" viewBox="0 0 139 61" fill="none" xmlns="http://www.w3.org/2000/svg">
<rect x="2" y="2" width="135" height="57" fill="white"/>
<path d="M32.794 22.368C32.794 21.042 32.896 20.634 34.018 20.634H34.562C35.684 20.634 35.786 21.042 35.786 22.368V26.108H39.39V21.858C39.39 18.118 38.506 17.03 35.072 17.03H33.304C29.836 17.03 28.952 18.118 28.952 21.858V36.342C28.952 40.082 29.836 41.17 33.304 41.17H35.072C38.506 41.17 39.39 40.082 39.39 36.342V31.072H35.786V35.832C35.786 37.158 35.684 37.566 34.562 37.566H34.018C32.896 37.566 32.794 37.158 32.794 35.832V22.368ZM41.2704 36.342C41.2704 40.082 42.1544 41.17 45.6224 41.17H47.5944C51.0284 41.17 51.9464 40.082 51.9464 36.342V21.858C51.9464 18.118 51.0284 17.03 47.5944 17.03H45.6224C42.1544 17.03 41.2704 18.118 41.2704 21.858V36.342ZM48.1044 35.832C48.1044 37.158 48.0024 37.566 46.8804 37.566H46.3364C45.2144 37.566 45.1124 37.158 45.1124 35.832V22.368C45.1124 21.042 45.2144 20.634 46.3364 20.634H46.8804C48.0024 20.634 48.1044 21.042 48.1044 22.368V35.832ZM60.4503 41H64.8363V17.2H61.5383V27.57C61.5383 29.168 61.6403 30.664 61.6743 32.194C61.4703 30.664 61.2323 29.168 60.9263 27.604L58.8523 17.2H53.9903V41H57.3223V29.406C57.3223 27.808 57.2203 26.448 57.1523 24.918C57.3903 26.448 57.5943 27.808 57.9343 29.406L60.4503 41ZM73.466 41H77.852V17.2H74.554V27.57C74.554 29.168 74.656 30.664 74.69 32.194C74.486 30.664 74.248 29.168 73.942 27.604L71.868 17.2H67.006V41H70.338V29.406C70.338 27.808 70.236 26.448 70.168 24.918C70.406 26.448 70.61 27.808 70.95 29.406L73.466 41ZM83.8976 20.804H88.2156V17.2H80.0556V41H88.2156V37.396H83.8976V30.392H87.3996V26.788H83.8976V20.804ZM93.5889 22.368C93.5889 21.042 93.6909 20.634 94.8129 20.634H95.3569C96.4789 20.634 96.5809 21.042 96.5809 22.368V26.108H100.185V21.858C100.185 18.118 99.3009 17.03 95.8669 17.03H94.0989C90.6309 17.03 89.7469 18.118 89.7469 21.858V36.342C89.7469 40.082 90.6309 41.17 94.0989 41.17H95.8669C99.3009 41.17 100.185 40.082 100.185 36.342V31.072H96.5809V35.832C96.5809 37.158 96.4789 37.566 95.3569 37.566H94.8129C93.6909 37.566 93.5889 37.158 93.5889 35.832V22.368ZM107.607 41V20.77H110.157V17.2H101.215V20.77H103.765V41H107.607Z" fill="black"/>
<rect x="2" y="2" width="135" height="57" stroke="#FF007B" stroke-width="4" stroke-miterlimit="0" stroke-linejoin="bevel"/>
</svg>
