<svg width="63" height="63" viewBox="0 0 63 63" fill="none" xmlns="http://www.w3.org/2000/svg">
<rect x="1.5" y="1.5" width="60" height="60" fill="white" stroke="#00D3FF" stroke-width="3"/>
<path d="M49.4083 20.478C48.095 21.0649 46.7038 21.4522 45.2794 21.6277C46.7791 20.7127 47.902 19.2779 48.4407 17.5881C47.0508 18.4114 45.5103 19.0108 43.8705 19.3446C41.646 16.93 38.1005 16.3346 35.2283 17.8931C32.3562 19.4516 30.8746 22.7749 31.6169 25.9937C25.6393 25.7074 20.3441 22.7922 16.7969 18.3892C16.1521 19.5015 15.8158 20.7703 15.8236 22.0609C15.8236 24.5977 17.0951 26.8274 19.0214 28.1374C17.8797 28.1005 16.7633 27.7872 15.7651 27.2235V27.3125C15.7638 30.7884 18.1761 33.7836 21.5323 34.4735C20.4775 34.7603 19.3728 34.8034 18.2994 34.5996C19.2466 37.5739 21.9493 39.61 25.0283 39.6687C22.4846 41.6951 19.3436 42.7949 16.11 42.7915C15.54 42.7915 14.9715 42.7574 14.4 42.6921C17.6968 44.8348 21.5302 45.9722 25.4449 45.9692C38.6762 45.9692 45.9035 34.8488 45.9035 25.2222C45.9035 24.9107 45.9035 24.5992 45.8816 24.2876C47.2934 23.2564 48.5112 21.976 49.4769 20.5076L49.4083 20.478Z" fill="black"/>
</svg>
