<svg width="63" height="63" viewBox="0 0 63 63" fill="none" xmlns="http://www.w3.org/2000/svg">
<rect x="1.5" y="1.5" width="60" height="60" fill="white" stroke="#00D3FF" stroke-width="3"/>
<path fill-rule="evenodd" clip-rule="evenodd" d="M44.0941 20.9655C41.8199 19.9383 39.42 19.2059 36.9543 18.7864C36.9084 18.778 36.8621 18.7995 36.8396 18.8398C36.5312 19.3795 36.1896 20.0835 35.9505 20.6367C33.2544 20.2395 30.5721 20.2395 27.9314 20.6367C27.6923 20.0711 27.3383 19.3795 27.0286 18.8398C27.0051 18.8005 26.9596 18.7794 26.9138 18.7866C24.4479 19.205 22.0478 19.9374 19.774 20.9653C19.7545 20.9735 19.7381 20.9874 19.727 21.0051C15.1796 27.69 13.9338 34.2105 14.545 40.6502C14.5485 40.6821 14.565 40.7112 14.5906 40.7309C17.5909 42.899 20.4971 44.2152 23.3495 45.0875C23.3949 45.1008 23.4439 45.085 23.4725 45.0478C24.1472 44.1412 24.7486 43.1852 25.2644 42.1799C25.2787 42.1521 25.2803 42.1196 25.2686 42.0905C25.257 42.0615 25.2333 42.0387 25.2036 42.0279C24.2495 41.6719 23.3411 41.2377 22.4673 40.7447C22.4349 40.726 22.4142 40.6927 22.4119 40.6558C22.4097 40.6189 22.4263 40.5834 22.4562 40.5611C22.64 40.4255 22.824 40.2845 22.9996 40.142C23.0314 40.1162 23.0753 40.1103 23.113 40.1269C28.8536 42.7059 35.0683 42.7059 40.7412 40.1269C40.7789 40.1093 40.8235 40.1146 40.8559 40.1406C41.0316 40.2829 41.2154 40.4255 41.4007 40.5611C41.4307 40.5832 41.4475 40.6185 41.4456 40.6553C41.4436 40.6922 41.4232 40.7256 41.3911 40.7446C40.5169 41.247 39.6012 41.6758 38.6536 42.0265C38.6239 42.0377 38.6004 42.0608 38.589 42.0901C38.5777 42.1194 38.5795 42.1521 38.5942 42.1799C39.1209 43.1837 39.7223 44.1398 40.3845 45.0464C40.4123 45.0847 40.4619 45.1013 40.5076 45.0875C43.3737 44.215 46.2799 42.8989 49.2802 40.7309C49.3063 40.7122 49.323 40.6832 49.3259 40.6515C50.0573 33.2065 48.1009 26.7394 44.1397 21.0064C44.1299 20.9878 44.1138 20.9732 44.0941 20.9653V20.9655ZM26.1216 36.7291C24.3933 36.7291 22.9692 35.1677 22.9692 33.2503C22.9692 31.333 24.3657 29.7717 26.1217 29.7717C27.8913 29.7717 29.3016 31.3467 29.2739 33.2505C29.2739 35.1677 27.8774 36.7291 26.1216 36.7291ZM34.6246 33.2503C34.6246 35.1677 36.0487 36.7291 37.777 36.7291C39.5466 36.7291 40.9293 35.1677 40.9293 33.2505C40.9569 31.3467 39.5466 29.7717 37.777 29.7717C36.021 29.7717 34.6246 31.333 34.6246 33.2503Z" fill="black"/>
</svg>
