<svg width="63" height="63" viewBox="0 0 56 56" fill="none" xmlns="http://www.w3.org/2000/svg">
<rect x="1.5" y="1.5" width="53" height="53" fill="white" stroke="#00D3FF" stroke-width="3"/>
<path fill-rule="evenodd" clip-rule="evenodd" d="M28 14C24.1967 14 23.7218 14.0175 22.2285 14.084C20.7375 14.154 19.7225 14.3885 18.83 14.735C17.9095 15.092 17.1278 15.5715 16.3497 16.3497C15.5715 17.1278 15.0908 17.9083 14.735 18.83C14.3885 19.7225 14.1528 20.7375 14.084 22.2285C14.014 23.7218 14 24.1967 14 28C14 31.8033 14.0175 32.2782 14.084 33.7715C14.154 35.2613 14.3885 36.2775 14.735 37.17C15.092 38.0893 15.5715 38.8722 16.3497 39.6503C17.1278 40.4273 17.9083 40.9092 18.83 41.265C19.7237 41.6103 20.7387 41.8472 22.2285 41.916C23.7218 41.986 24.1967 42 28 42C31.8033 42 32.2782 41.9825 33.7715 41.916C35.2613 41.846 36.2775 41.6103 37.17 41.265C38.0893 40.908 38.8722 40.4273 39.6503 39.6503C40.4273 38.8722 40.9092 38.0928 41.265 37.17C41.6103 36.2775 41.8472 35.2613 41.916 33.7715C41.986 32.2782 42 31.8033 42 28C42 24.1967 41.9825 23.7218 41.916 22.2285C41.846 20.7387 41.6103 19.7213 41.265 18.83C40.908 17.9095 40.4273 17.1278 39.6503 16.3497C38.8722 15.5715 38.0928 15.0908 37.17 14.735C36.2775 14.3885 35.2613 14.1528 33.7715 14.084C32.2782 14.014 31.8033 14 28 14ZM28 16.52C31.7368 16.52 32.1825 16.5387 33.6583 16.6028C35.0233 16.667 35.7642 16.8933 36.2565 17.087C36.9122 17.3402 37.3765 17.6435 37.8688 18.1323C38.3577 18.6223 38.661 19.0878 38.9142 19.7435C39.1055 20.2358 39.3342 20.9767 39.396 22.3417C39.4625 23.8187 39.4777 24.262 39.4777 28C39.4777 31.738 39.4602 32.1825 39.3913 33.6583C39.3202 35.0233 39.0927 35.7642 38.9002 36.2565C38.6388 36.9122 38.3413 37.3765 37.8513 37.8688C37.3625 38.3577 36.89 38.661 36.2413 38.9142C35.7513 39.1055 34.9988 39.3342 33.6338 39.396C32.1475 39.4625 31.71 39.4777 27.965 39.4777C24.2188 39.4777 23.7813 39.4602 22.2962 39.3913C20.93 39.3202 20.1775 39.0927 19.6875 38.9002C19.0237 38.6388 18.5675 38.3413 18.0787 37.8513C17.5875 37.3625 17.2737 36.89 17.0287 36.2413C16.8362 35.7513 16.6098 34.9988 16.5387 33.6338L16.5359 33.5553C16.4855 32.1464 16.4675 31.6428 16.4675 27.9825C16.4675 24.3258 16.4855 23.8176 16.5357 22.3963L16.5387 22.3113C16.6098 20.9463 16.8362 20.195 17.0287 19.705C17.2737 19.04 17.5875 18.585 18.0787 18.0938C18.5675 17.605 19.0237 17.29 19.6875 17.0462C20.1775 16.8525 20.9137 16.625 22.2787 16.555L22.3461 16.5526C23.7803 16.502 24.2608 16.485 27.9475 16.485L28 16.52ZM20.811 28C20.811 24.031 24.0275 20.811 28 20.811C31.969 20.811 35.189 24.0275 35.189 28C35.189 31.969 31.9725 35.189 28 35.189C24.031 35.189 20.811 31.9725 20.811 28ZM28 32.6667C25.4217 32.6667 23.3333 30.5783 23.3333 28C23.3333 25.4217 25.4217 23.3333 28 23.3333C30.5783 23.3333 32.6667 25.4217 32.6667 28C32.6667 30.5783 30.5783 32.6667 28 32.6667ZM35.4737 22.2075C36.4 22.2075 37.1537 21.455 37.1537 20.5275C37.1537 19.6012 36.3988 18.8475 35.4737 18.8487C34.5473 18.8487 33.7937 19.6012 33.7937 20.5275C33.7937 21.4538 34.5462 22.2075 35.4737 22.2075Z" fill="black"/>
</svg>
