<svg width="694" height="328" viewBox="0 0 694 328" fill="none" xmlns="http://www.w3.org/2000/svg">
<path d="M33.642 39L41.958 11.112H34.146L29.526 27.744H29.442L24.612 11.112H18.144L13.272 27.66H13.188L8.652 11.112H0.63L8.904 39H16.674L21.252 23.418H21.336L25.872 39H33.642ZM56.306 21.99V17.916H69.83V11.112H48.662V39H69.83V32.196H56.306V28.206H66.806V21.99H56.306ZM110.226 39H118.416L106.992 11.112H99.558L88.134 39H96.114L97.584 35.01H108.756L110.226 39ZM103.212 19.932L106.362 28.626H99.978L103.128 19.932H103.212ZM132.617 29.928H135.431L140.471 39H149.417L143.159 29.088C146.729 27.786 148.577 24.888 148.577 20.52C148.577 14.304 144.881 11.112 137.699 11.112H124.973V39H132.617V29.928ZM132.617 23.124V17.916H137.363C139.799 17.916 140.849 18.714 140.849 20.52C140.849 22.326 139.799 23.124 137.363 23.124H132.617ZM164.233 21.99V17.916H177.757V11.112H156.589V39H177.757V32.196H164.233V28.206H174.733V21.99H164.233Z" fill="black"/>
<g clip-path="url(#clip0_3_387)">
<path d="M97.9565 170.248C99.2868 168.362 100.08 166.151 100.253 163.85C100.253 154.934 87.3895 158.467 87.3895 138.417V121.375C89.3513 109.851 100.253 104.568 100.253 95.7409C100.253 92.6425 98.7145 91.0487 96.7081 89.4549H81.3704C80.9691 89.4549 80.5455 89.4549 80.0885 89.4549H79.0296C81.0471 91.0487 82.5965 92.6536 82.5965 95.7632C82.5965 104.234 70.8814 109.439 69.8113 119.926V138.417H69.9228C69.9228 158.478 82.786 154.878 82.786 163.85C82.786 172.823 69.9228 178.016 69.9228 189.485H69.8113V206.526H69.9228C69.9228 226.588 82.786 222.988 82.786 231.96C82.786 240.932 69.9228 246.115 69.9228 257.65H69.8113V274.747H69.9228C69.9228 294.809 82.786 291.198 82.786 300.17C82.6963 302.546 81.8965 304.84 80.4898 306.757H92.9628C98.3801 306.757 100.253 304.862 100.253 300.159C100.253 291.187 87.3895 294.787 87.3895 274.736V257.706C87.3895 246.17 100.253 240.888 100.253 232.016C100.253 223.423 88.4708 226.343 87.4564 209.034H78.606V188.181H108.613V208.432C109.382 226.443 121.442 223.345 121.442 232.038C121.442 240.731 109.382 245.858 108.613 256.647V276.597C109.382 294.597 121.442 291.51 121.442 300.192C121.442 309.109 103.608 324.601 98.1572 325.882C94.4899 327.409 89.6634 328.022 83.3656 328.022H73.1107C59.8239 328.022 53.0468 325.392 49.8366 317.468C53.5707 311.126 60.2475 306.59 60.2475 300.192C60.2475 291.677 48.655 294.475 47.4846 277.612V256.012C47.4846 246.873 60.2475 240.408 60.2475 232.016C60.2475 223.623 48.655 226.265 47.4846 209.424V187.847C48.5993 177.47 60.2475 172.243 60.2475 163.85C60.2475 155.458 48.655 158.122 47.4846 141.259V119.681C48.5993 109.316 60.2475 104.078 60.2475 95.6852C60.2475 88.7862 52.6344 89.31 49.1009 80.7838C51.8987 71.2099 58.7093 68.1226 73.1107 68.1226H83.3656C89.2399 68.1226 93.8323 68.6687 97.3992 69.9727L97.7336 70.1065L98.3021 70.3294C110.184 75.2334 121.498 86.9472 121.498 95.6852C121.498 104.423 109.382 109.517 108.613 120.305V140.367C109.382 158.378 121.498 155.291 121.498 163.973C121.4 166.278 120.625 168.504 119.269 170.371L104.221 170.248H97.9565ZM162.852 304.818C163.599 303.381 164 301.789 164.023 300.17C164.023 291.198 151.159 294.798 151.159 274.747H151.081V257.706H151.159C151.159 246.17 164.023 240.888 164.023 232.016C164.023 223.144 151.159 226.633 151.159 206.582H151.081V189.541H151.159C151.159 178.016 164.023 172.722 164.023 163.906C164.023 155.09 151.159 158.523 151.159 138.472H151.081V121.353H151.159C151.159 109.829 164.023 104.535 164.023 95.7186C164.023 86.9026 151.159 90.2908 151.159 70.2291H151.081V69.839H128.387V70.2291C128.387 90.2908 141.25 86.6797 141.25 95.6518C141.25 104.624 128.387 109.818 128.387 121.342V138.417C128.387 158.478 141.25 154.878 141.25 163.85C141.25 172.823 128.387 178.016 128.387 189.485V206.526C128.387 226.588 141.25 222.988 141.25 231.96C141.25 240.932 128.387 246.115 128.387 257.65V274.747C128.387 294.809 141.25 291.198 141.25 300.17C141.25 309.142 128.443 314.313 128.443 325.86V326.05H178.257V304.818H162.852ZM211.184 189.485C211.184 177.949 224.047 172.667 224.047 163.784C224.047 154.901 211.184 158.412 211.184 138.361H211.106V121.264H211.184C211.184 109.74 224.047 104.457 224.047 95.6295C224.047 86.8023 211.184 90.2574 211.184 70.2068H211.106V69.839H188.378V73.5058C189.738 89.8338 201.107 87.1701 201.107 95.6072C201.107 104.044 189.771 109.127 188.378 119.269V141.671C189.738 157.999 201.107 155.324 201.107 163.761C201.107 172.198 189.771 177.292 188.378 187.468V209.825C189.738 226.164 201.107 223.49 201.107 231.927C201.107 240.364 189.738 245.446 188.378 255.622V277.991C189.738 294.319 201.107 291.655 201.107 300.092C201.107 308.529 189.771 313.611 188.378 323.787V326.016H211.072V325.749H211.15C211.15 314.224 224.014 308.93 224.014 300.114C224.014 291.298 211.15 294.731 211.15 274.68H211.072V257.617H211.15C211.15 246.092 224.014 240.81 224.014 231.982C224.014 223.155 211.15 226.61 211.15 206.549H211.072V189.485H211.184ZM364.662 170.114C366.018 168.247 366.793 166.022 366.891 163.717C366.891 155.48 356.068 157.821 354.284 142.775V118.656C356.068 108.959 366.891 103.832 366.891 95.6852C366.891 87.5379 357.35 77.1392 346.66 71.678C342.736 69.0142 337.074 68 328.97 68H318.715C304.325 68 297.537 71.0761 294.739 80.6277C298.217 89.31 305.886 88.7305 305.886 95.674C305.886 104.267 293.825 109.505 293.067 120.283V140.233C293.825 158.222 305.886 155.135 305.886 163.817C305.886 172.499 293.858 177.649 293.156 188.426V208.488C293.914 226.477 305.975 223.389 305.975 232.072C305.975 240.754 293.914 245.892 293.156 256.681V276.486C293.914 294.475 305.975 291.376 305.975 300.07C305.975 306.478 299.287 311.014 295.542 317.39C298.707 325.247 305.574 327.855 318.771 327.855H329.026C337.765 327.855 343.673 326.674 347.563 323.52C354.909 318.604 366.345 307.258 366.345 300.114C366.345 292.234 355.444 294.731 354.284 276.787V254.975C356.068 245.279 366.891 240.152 366.891 232.016C366.891 224.526 357.974 225.786 354.975 214.774H333.83C336.706 226.142 345.824 224.805 345.824 232.339C345.824 240.988 333.63 246.237 332.994 257.16V276.898C333.997 294.241 345.779 291.332 345.779 299.914C345.779 304.628 343.907 306.512 338.501 306.512H327.989C327.376 306.594 326.758 306.639 326.139 306.645C327.448 304.796 328.185 302.602 328.257 300.337C328.257 291.599 315.996 294.764 315.427 276.352V256.859C316.029 245.914 328.257 240.665 328.257 232.016C328.257 223.367 315.996 226.443 315.427 208.02V188.694C316.029 177.749 328.257 172.51 328.257 163.85C328.257 155.191 315.996 158.278 315.427 139.866V120.506C316.029 109.561 328.257 104.312 328.257 95.6629C328.257 92.4753 326.63 90.8704 324.545 89.232H325.66C326.161 89.232 326.618 89.232 327.053 89.2877L326.975 89.232H341.889C343.996 90.8815 345.634 92.4865 345.634 95.6852C345.634 103.91 334.611 109.06 332.983 118.923V138.015C332.983 158.01 345.846 154.433 345.846 163.394C345.647 165.808 344.787 168.122 343.361 170.081L364.662 170.114ZM449.432 163.761C449.432 154.934 436.97 158.267 436.591 139.241V120.751C436.97 109.606 449.432 104.323 449.432 95.5737C449.432 86.8246 436.97 90.079 436.591 71.0538V69.839H414.298V72.8928C415.412 89.8896 427.072 87.0698 427.072 95.6072C427.072 104.145 415.379 109.238 414.253 119.681V141.058C415.368 158.055 427.027 155.224 427.027 163.761C427.027 170.449 419.793 175.063 416.17 181.828H398.626C402.237 175.052 409.482 170.415 409.482 163.75C409.482 155.146 397.645 158.099 396.686 140.635V119.904C397.645 109.316 409.482 104.1 409.482 95.5737C409.482 87.0475 397.645 89.9119 396.686 72.4582V69.839H373.992V73.2941C375.128 90.2908 386.788 87.4376 386.788 95.9638C386.788 104.49 375.162 109.606 374.025 120.016V141.459C375.14 158.412 386.788 155.592 386.788 164.129C386.788 172.667 375.162 177.771 374.025 188.181V209.625C375.14 226.577 386.788 223.757 386.788 232.294C386.788 240.832 375.128 245.936 373.992 256.357V277.801C375.106 294.764 386.754 291.945 386.754 300.471C386.754 308.997 375.128 314.113 373.992 324.523V326.072H396.686V324.433C397.645 313.845 409.482 308.629 409.482 300.114C409.482 291.599 397.645 294.452 396.686 276.987V256.257C397.645 245.658 409.482 240.442 409.482 231.927C409.482 223.412 397.645 226.265 396.686 208.811V203.071H414.253V209.212C415.368 226.22 427.027 223.389 427.027 231.927C427.027 240.464 415.379 245.58 414.253 256.001V277.378C415.368 294.374 427.027 291.555 427.027 300.092C427.027 308.629 415.379 313.745 414.253 324.166V326.05H436.546V325.258C436.925 314.113 449.387 308.83 449.387 300.092C449.387 291.354 436.925 294.586 436.546 275.572V257.093C436.925 245.948 449.387 240.665 449.387 231.927C449.387 223.189 436.925 226.421 436.546 207.407V188.939C436.948 177.771 449.432 172.51 449.432 163.761ZM519.31 188.95V196.473C519.31 218.441 514.183 225.028 494.052 225.028H488.724C491.098 226.844 493.049 228.438 493.049 231.927C493.049 240.843 480.185 246.092 480.185 257.561V274.602C480.185 294.664 493.049 291.064 493.049 300.036C493.049 309.008 480.185 314.202 480.185 325.671V325.938H457.446V323.82C458.706 313.556 470.187 308.362 470.187 299.98C470.187 291.599 458.706 294.229 457.446 277.634V255.778C458.706 245.502 470.187 240.319 470.187 231.927C470.187 223.534 458.706 226.187 457.446 209.636V187.612C458.706 177.336 470.187 172.154 470.187 163.761C470.187 155.369 458.706 158.021 457.446 141.471V119.447C458.706 109.182 470.187 103.989 470.187 95.6072C470.187 87.2258 458.706 89.8561 457.446 73.3164V69.839H494.052C495.278 69.839 496.448 69.8613 497.563 69.9059C506.079 69.9059 518.396 70.909 519.611 75.6569C523.089 89.3212 532.084 87.5379 532.084 95.5737C532.084 104.055 520.38 109.26 519.31 119.737V139.208C519.689 158.267 532.151 154.934 532.151 163.728C532.151 172.522 519.689 177.771 519.31 188.95V188.95ZM497.017 143.053V120.762C498.622 110.865 509.679 105.716 509.679 97.4796C509.679 94.2809 508.041 92.6759 505.923 91.0264H491.432C492.535 92.2752 493.121 93.8972 493.071 95.5626C493.071 104.479 480.208 109.728 480.208 121.253V138.339C480.208 158.4 493.071 154.789 493.071 163.761C493.071 172.733 480.185 177.927 480.185 189.485V203.818H489.705C496.292 203.818 497.028 201.254 497.028 193.575V186.687C498.878 177.069 509.613 171.953 509.613 163.839C509.613 155.725 498.834 157.91 496.983 143.053H497.017ZM599.142 255.934V279.818C601.238 294.542 610.902 292.758 610.902 300.181C610.902 307.147 599.889 318.203 592.543 323.263C588.575 326.607 582.511 327.877 573.516 327.877H562.135C549.038 327.877 542.228 325.325 539.006 317.679C542.785 311.594 549.105 307.136 549.105 300.906C549.105 292.691 538.326 294.998 536.509 280.052V255.655C538.326 245.992 549.105 240.876 549.105 232.74C549.105 224.604 538.326 226.844 536.509 211.887V187.49C538.326 177.838 549.105 172.711 549.105 164.586C549.105 156.461 538.326 158.679 536.509 143.722V119.336C538.326 109.673 549.105 104.557 549.105 96.4208C549.105 89.4883 541.425 90.0568 537.958 81.4079C540.611 71.2433 547.366 68 562.135 68H573.483C574.274 68 575.032 68 575.779 68C587.282 68 596.233 70.0396 598.284 75.6569C603.122 88.8976 611.66 87.5379 611.66 95.5737C611.66 103.61 599.053 109.717 599.053 118.544V141.17C600.168 158.044 611.816 155.246 611.816 163.761C611.816 172.276 600.212 177.392 599.053 187.769V209.324C600.168 226.209 611.816 223.412 611.816 231.927C611.816 240.442 600.268 245.557 599.109 255.934H599.142ZM582.01 306.512C587.427 306.512 589.3 304.628 589.3 299.914C589.3 290.997 576.437 294.798 576.437 274.747C576.437 274.747 576.437 257.294 576.437 257.36C576.437 245.836 589.511 240.81 589.511 231.927C589.511 223.044 576.648 226.555 576.648 206.493V190.276C576.648 178.752 589.511 173.458 589.511 164.642C589.511 155.826 576.648 159.259 576.648 139.208H576.459V120.439C577.217 109.65 589.277 104.423 589.277 95.8189C589.277 92.6202 587.639 91.0153 585.532 89.3769H571.354C570.615 89.2745 569.87 89.226 569.124 89.232H568.065C570.105 90.8481 571.677 92.4419 571.677 95.5737C571.677 104.122 559.761 109.338 558.869 120.004V140.445C559.761 158.077 571.677 155.09 571.677 163.717C571.677 172.343 559.761 177.481 558.869 188.147V208.599C559.761 226.242 571.677 223.244 571.677 231.882C571.677 240.52 559.728 245.691 558.836 256.357V276.82C559.728 294.464 571.643 291.465 571.643 300.103C571.567 302.457 570.791 304.735 569.414 306.645C570.093 306.65 570.771 306.605 571.443 306.512H582.054H582.01ZM681.137 189.485V196.495C681.137 218.463 676.009 225.05 655.879 225.05H650.305C652.691 226.867 654.641 228.46 654.641 231.949C654.641 240.241 643.428 245.401 641.934 255.432V278.37C643.428 294.307 654.641 291.744 654.641 300.114C654.641 308.484 643.428 313.556 641.934 323.586V326.072H619.228V323.687C620.666 313.589 631.947 308.429 631.947 300.114C631.947 291.8 620.666 294.33 619.228 278.225V255.499C620.666 245.468 631.947 240.241 631.947 231.927C631.947 223.612 620.666 226.142 619.228 210.037V187.334C620.666 177.303 631.947 172.076 631.947 163.761C631.947 155.447 620.666 157.977 619.228 141.872V119.18C620.666 109.082 631.947 103.922 631.947 95.6072C631.947 87.2927 620.666 89.8227 619.228 73.7176V69.839H655.834C657.06 69.839 658.23 69.8613 659.345 69.9059C667.861 69.9059 680.234 70.8978 681.449 75.6569C684.938 89.3212 693.933 87.5379 693.933 95.5737C693.933 104.256 681.672 109.505 681.092 120.517V138.35C681.092 158.412 693.955 154.8 693.955 163.772C693.955 172.745 681.137 177.927 681.137 189.485V189.485ZM671.462 163.85C671.462 155.48 660.315 158.044 658.766 142.15V120.383C660.627 110.776 671.35 105.66 671.35 97.5465C671.35 94.3477 669.711 92.7428 667.605 91.0933H652.98C654.091 92.3381 654.682 93.9619 654.63 95.6295C654.63 103.922 643.417 109.082 641.923 119.113V142.072C643.417 158.021 654.63 155.447 654.63 163.817C654.63 172.187 643.417 177.225 641.923 187.256V203.807H651.442C658.03 203.807 658.766 201.243 658.766 193.564V187.256C660.27 177.225 671.462 172.098 671.462 163.85ZM289.556 69.839H236.487V90.7032H241.124H251.825C252.486 91.3405 253.007 92.1088 253.354 92.959C253.702 93.8092 253.868 94.7225 253.842 95.6406C253.842 103.955 242.551 109.115 241.124 119.213V141.861C242.551 157.988 253.842 155.358 253.842 163.761C253.842 172.165 242.551 177.225 241.124 187.345V210.026C242.551 226.142 253.842 223.523 253.842 231.927C253.842 240.33 242.551 245.413 241.124 255.51V278.191C242.551 294.307 253.842 291.688 253.842 300.092C253.842 308.496 242.551 313.567 241.124 323.664V326.05H263.417V324.344C264.398 313.767 276.213 308.551 276.213 300.047C276.213 291.543 264.398 294.374 263.417 276.965V256.224C264.398 245.647 276.213 240.442 276.213 231.927C276.213 223.412 264.398 226.265 263.417 208.856V188.058C264.398 177.492 276.213 172.276 276.213 163.761C276.213 155.246 264.398 158.099 263.417 140.69V119.871C264.398 109.305 276.213 104.089 276.213 95.5737C276.241 94.6704 276.081 93.771 275.744 92.9327C275.406 92.0943 274.898 91.3351 274.252 90.7032H289.522L289.556 69.839Z" fill="#00FF70"/>
<path d="M86.0854 170.248C87.4156 168.362 88.2092 166.151 88.3816 163.85C88.3816 154.934 75.5184 158.467 75.5184 138.417V121.375C77.4802 109.851 88.3816 104.568 88.3816 95.7409C88.3816 92.6425 86.8434 91.0487 84.837 89.4549H69.4769C69.0756 89.4549 68.6521 89.4549 68.195 89.4549H67.1584C69.176 91.0487 70.7253 92.6536 70.7253 95.7632C70.7253 104.234 59.0102 109.439 57.9402 119.926V138.417H58.0516C58.0516 158.478 70.9148 154.878 70.9148 163.85C70.9148 172.823 58.0516 178.016 58.0516 189.485H57.9624V206.526H58.0739C58.0739 226.588 70.9371 222.988 70.9371 231.96C70.9371 240.932 58.0739 246.115 58.0739 257.65H57.9624V274.747H58.0739C58.0739 294.809 70.9371 291.198 70.9371 300.17C70.8474 302.546 70.0476 304.84 68.6409 306.757H81.0917C86.4978 306.757 88.3816 304.862 88.3816 300.159C88.3816 291.187 75.5184 294.787 75.5184 274.736V257.706C75.5184 246.17 88.3816 240.888 88.3816 232.016C88.3816 223.423 76.5996 226.343 75.5853 209.034H66.7348V188.181H96.7416V208.432C97.5107 226.443 109.571 223.345 109.571 232.038C109.571 240.731 97.5107 245.858 96.7416 256.647V276.597C97.5107 294.597 109.571 291.51 109.571 300.192C109.571 309.109 91.7367 324.601 86.286 325.882C82.6188 327.409 77.7923 328.022 71.4944 328.022H61.2396C47.9528 328.022 41.1756 325.392 37.9654 317.468C41.6995 311.126 48.3764 306.59 48.3764 300.192C48.3764 291.677 36.7839 294.475 35.6135 277.612V256.012C35.6135 246.873 48.3764 240.408 48.3764 232.016C48.3764 223.623 36.7839 226.265 35.6692 209.424V187.847C36.7839 177.47 48.3764 172.276 48.3764 163.85C48.3764 155.425 36.7839 158.122 35.6692 141.259V119.681C36.8396 109.316 48.4321 104.078 48.4321 95.6852C48.4321 88.7862 40.8189 89.31 37.2855 80.7838C40.0275 71.2099 46.8158 68.1226 61.2396 68.1226H71.4944C77.3687 68.1226 81.9611 68.6687 85.5281 69.9727L85.8624 70.1065L86.4309 70.3294C98.3132 75.2334 109.571 86.9472 109.571 95.6852C109.571 104.423 97.5107 109.517 96.7416 120.305V140.367C97.5107 158.378 109.571 155.291 109.571 163.973C109.473 166.278 108.698 168.504 107.342 170.371L92.2941 170.248H86.0854ZM150.981 304.818C151.728 303.381 152.129 301.789 152.151 300.17C152.151 291.198 139.288 294.798 139.288 274.747H139.21V257.706H139.333C139.333 246.17 152.196 240.888 152.196 232.016C152.196 223.144 139.333 226.633 139.333 206.582H139.255V189.541H139.333C139.333 178.016 152.151 172.767 152.151 163.85C152.151 154.934 139.333 158.467 139.333 138.417H139.255V121.353H139.333C139.333 109.829 152.196 104.535 152.196 95.7186C152.196 86.9026 139.333 90.2908 139.333 70.2291H139.255V69.839H116.516V70.2291C116.516 90.2908 129.379 86.6797 129.379 95.6518C129.379 104.624 116.516 109.818 116.516 121.342V138.417C116.516 158.478 129.379 154.878 129.379 163.85C129.379 172.823 116.516 178.016 116.516 189.485V206.526C116.516 226.588 129.379 222.988 129.379 231.96C129.379 240.932 116.516 246.115 116.516 257.65V274.747C116.516 294.809 129.379 291.198 129.379 300.17C129.379 309.142 116.571 314.313 116.571 325.86V326.05H166.386V304.818H150.981ZM199.313 189.485C199.313 177.949 212.176 172.667 212.176 163.784C212.176 154.901 199.313 158.412 199.313 138.361H199.235V121.264H199.313C199.313 109.74 212.176 104.457 212.176 95.6295C212.176 86.8023 199.313 90.2574 199.313 70.2068H199.235V69.839H176.54V73.5058C177.9 89.8338 189.27 87.1701 189.27 95.6072C189.27 104.044 177.9 109.127 176.54 119.269V141.671C177.9 157.999 189.27 155.324 189.27 163.761C189.27 172.198 177.9 177.292 176.54 187.468V209.825C177.9 226.164 189.27 223.49 189.27 231.927C189.27 240.364 177.9 245.446 176.54 255.622V277.991C177.9 294.319 189.27 291.655 189.27 300.092C189.27 308.529 177.9 313.611 176.54 323.787V326.016H199.235V325.749H199.313C199.313 314.224 212.176 308.93 212.176 300.114C212.176 291.298 199.313 294.731 199.313 274.68H199.235V257.617H199.313C199.313 246.092 212.176 240.81 212.176 231.982C212.176 223.155 199.313 226.61 199.313 206.549H199.235V189.485H199.313ZM352.791 170.114C354.127 168.241 354.883 166.016 354.964 163.717C354.964 155.48 344.141 157.821 342.357 142.775V118.656C344.141 108.959 354.964 103.832 354.964 95.6852C354.964 87.5379 345.478 77.1392 334.755 71.678C330.865 69.0142 325.203 68 317.099 68H306.844C292.454 68 285.666 71.0761 282.868 80.6277C286.346 89.31 294.015 88.7305 294.015 95.674C294.015 104.267 281.954 109.505 281.196 120.283V140.233C282.01 158.278 294.048 155.135 294.048 163.85C294.048 172.566 282.01 177.649 281.229 188.426V208.488C281.987 226.477 294.048 223.389 294.048 232.072C294.048 240.754 281.987 245.892 281.229 256.681V276.486C281.987 294.475 294.048 291.376 294.048 300.07C294.048 306.478 287.36 311.014 283.615 317.39C286.78 325.247 293.647 327.855 306.844 327.855H317.099C325.838 327.855 331.746 326.674 335.636 323.52C342.982 318.604 354.418 307.258 354.418 300.114C354.418 292.234 343.506 294.731 342.357 276.787V254.975C344.141 245.279 354.964 240.152 354.964 232.016C354.964 224.526 346.047 225.786 343.049 214.774H321.959C324.835 226.142 333.953 224.805 333.953 232.339C333.953 240.988 321.758 246.237 321.123 257.16V276.898C322.115 294.241 333.908 291.332 333.908 299.914C333.908 304.628 332.036 306.512 326.63 306.512H316.118C315.505 306.594 314.887 306.638 314.268 306.645C315.572 304.793 316.308 302.601 316.386 300.337C316.386 291.599 304.125 294.764 303.556 276.352V256.859C304.158 245.914 316.386 240.665 316.386 232.016C316.386 223.367 304.125 226.443 303.556 208.02V188.694C304.158 177.749 316.386 172.51 316.386 163.85C316.386 155.191 304.125 158.278 303.556 139.866V120.506C304.158 109.561 316.386 104.312 316.386 95.6629C316.386 92.4753 314.758 90.8704 312.674 89.232H313.789C314.29 89.232 314.747 89.232 315.182 89.2877L315.104 89.232H330.018C332.125 90.8815 333.763 92.4865 333.763 95.6852C333.763 103.91 322.739 109.06 321.112 118.923V138.015C321.112 158.01 333.975 154.433 333.975 163.394C333.777 165.811 332.913 168.125 331.478 170.081L352.791 170.114ZM437.561 163.761C437.561 154.934 425.099 158.267 424.709 139.241V120.751C425.099 109.606 437.561 104.323 437.561 95.5737C437.561 86.8246 425.099 90.079 424.709 71.0538V69.839H402.393V72.8928C403.508 89.8896 415.167 87.0698 415.167 95.6072C415.167 104.145 403.508 109.238 402.393 119.681V141.058C403.508 158.055 415.167 155.224 415.167 163.761C415.167 170.449 407.933 175.063 404.31 181.828H386.788C390.399 175.052 397.645 170.415 397.645 163.75C397.645 155.146 385.807 158.099 384.848 140.635V119.904C385.807 109.316 397.645 104.1 397.645 95.5737C397.645 87.0475 385.774 89.9119 384.815 72.4582V69.839H362.12V73.2941C363.235 90.2574 374.883 87.4376 374.883 95.9638C374.883 104.49 363.257 109.606 362.12 120.016V141.459C363.235 158.412 374.883 155.592 374.883 164.129C374.883 172.667 363.257 177.771 362.12 188.181V209.625C363.235 226.577 374.883 223.757 374.883 232.294C374.883 240.832 363.257 245.936 362.12 256.357V277.801C363.235 294.764 374.883 291.945 374.883 300.471C374.883 308.997 363.257 314.113 362.12 324.523V326.072H384.815V324.433C385.774 313.845 397.611 308.629 397.611 300.114C397.611 291.599 385.774 294.452 384.815 276.987V256.257C385.774 245.658 397.611 240.442 397.611 231.927C397.611 223.412 385.774 226.265 384.815 208.811V203.071H402.393V209.212C403.508 226.22 415.167 223.389 415.167 231.927C415.167 240.464 403.508 245.58 402.393 256.001V277.378C403.508 294.374 415.167 291.555 415.167 300.092C415.167 308.629 403.508 313.745 402.393 324.166V326.05H424.686V325.258C425.077 314.113 437.538 308.83 437.538 300.092C437.538 291.354 425.077 294.586 424.686 275.572V257.093C425.077 245.948 437.538 240.665 437.538 231.927C437.538 223.189 425.077 226.421 424.686 207.407V188.939C425.099 177.771 437.561 172.51 437.561 163.761ZM507.439 188.95V196.473C507.439 218.441 502.311 225.028 482.181 225.028H476.853C479.227 226.844 481.177 228.438 481.177 231.927C481.177 240.843 468.314 246.092 468.314 257.561V274.602C468.314 294.664 481.177 291.064 481.177 300.036C481.177 309.008 468.314 314.202 468.314 325.671V325.938H445.575V323.82C446.835 313.556 458.316 308.362 458.316 299.98C458.316 291.599 446.835 294.229 445.575 277.634V255.778C446.835 245.502 458.316 240.319 458.316 231.927C458.316 223.534 446.835 226.187 445.575 209.636V187.612C446.835 177.336 458.316 172.154 458.316 163.761C458.316 155.369 446.835 158.021 445.575 141.471V119.447C446.835 109.182 458.316 103.989 458.316 95.6072C458.316 87.2258 446.835 89.8561 445.575 73.3164V69.839H482.181C483.407 69.839 484.577 69.8613 485.692 69.9059C494.208 69.9059 506.525 70.909 507.74 75.6569C511.218 89.3212 520.213 87.5379 520.213 95.5737C520.213 104.055 508.509 109.26 507.439 119.737V139.208C507.818 158.267 520.28 154.934 520.28 163.728C520.28 172.522 507.818 177.771 507.439 188.95V188.95ZM485.146 143.053V120.762C486.751 110.865 497.808 105.716 497.808 97.4796C497.808 94.2809 496.17 92.6759 494.052 91.0264H479.561C480.664 92.2752 481.25 93.8972 481.2 95.5626C481.2 104.479 468.337 109.728 468.337 121.253V138.339C468.337 158.4 481.2 154.789 481.2 163.761C481.2 172.733 468.314 177.927 468.314 189.485V203.818H477.834C484.421 203.818 485.157 201.254 485.157 193.575V186.687C487.007 177.069 497.741 171.953 497.741 163.839C497.741 155.725 486.963 157.91 485.112 143.053H485.146ZM587.271 255.934V279.818C589.367 294.542 599.031 292.758 599.031 300.181C599.031 307.147 588.018 318.203 580.672 323.263C576.704 326.607 570.64 327.877 561.645 327.877H550.264C537.167 327.877 530.356 325.325 527.135 317.679C530.914 311.594 537.234 307.136 537.234 300.906C537.234 292.691 526.455 294.998 524.638 280.052V255.655C526.455 245.992 537.234 240.876 537.234 232.74C537.234 224.604 526.455 226.844 524.638 211.887V187.49C526.455 177.838 537.267 172.767 537.267 164.586C537.267 156.405 526.489 158.679 524.672 143.722V119.336C526.455 109.673 537.267 104.557 537.267 96.4208C537.267 89.4883 529.587 90.0568 526.121 81.4079C528.762 71.2433 535.54 68.0334 550.32 68.0334H561.667C562.459 68.0334 563.217 68.0334 563.964 68.0334V68C575.456 68 584.418 70.0396 586.469 75.6569C591.306 88.8976 599.844 87.5379 599.844 95.5737C599.844 103.61 587.238 109.717 587.238 118.544V141.17C588.352 158.044 599.989 155.246 599.989 163.761C599.989 172.276 588.397 177.392 587.238 187.769V209.324C588.352 226.209 599.989 223.412 599.989 231.927C599.989 240.442 588.397 245.557 587.238 255.934H587.271ZM570.139 306.512C575.556 306.512 577.429 304.628 577.429 299.914C577.429 290.997 564.565 294.798 564.565 274.747C564.565 274.747 564.565 257.294 564.565 257.36C564.565 245.836 577.64 240.81 577.64 231.927C577.64 223.044 564.777 226.555 564.777 206.493V190.276C564.777 178.752 577.64 173.458 577.64 164.642C577.64 155.826 564.777 159.259 564.777 139.208H564.588V120.439C565.301 109.65 577.395 104.423 577.395 95.8635C577.395 92.6648 575.757 91.0598 573.65 89.4215H559.483C558.744 89.3191 557.999 89.2706 557.253 89.2766H556.217C558.256 90.8927 559.828 92.4865 559.828 95.6183C559.828 104.167 547.912 109.383 547.021 120.049V140.445C547.912 158.077 559.828 155.09 559.828 163.717C559.828 172.343 547.857 177.526 546.965 188.192V208.644C547.857 226.287 559.772 223.289 559.772 231.927C559.772 240.564 547.857 245.691 546.965 256.357V276.82C547.857 294.464 559.772 291.465 559.772 300.103C559.685 302.464 558.888 304.743 557.487 306.645C558.181 306.652 558.874 306.607 559.561 306.512H570.172H570.139ZM669.266 189.485V196.495C669.266 218.463 664.138 225.05 644.007 225.05H638.434C640.808 226.867 642.759 228.46 642.759 231.949C642.759 240.241 631.612 245.401 630.063 255.432V278.37C631.557 294.307 642.759 291.744 642.759 300.114C642.759 308.484 631.612 313.556 630.063 323.586V326.072H607.357V323.687C608.795 313.589 620.076 308.429 620.076 300.114C620.076 291.8 608.795 294.33 607.357 278.225V255.499C608.795 245.468 620.076 240.241 620.076 231.927C620.076 223.612 608.795 226.142 607.357 210.037V187.334C608.795 177.303 620.076 172.076 620.076 163.761C620.076 155.447 608.795 157.977 607.357 141.872V119.18C608.795 109.082 620.076 103.922 620.076 95.6072C620.076 87.2927 608.795 89.8227 607.357 73.7176V69.839H643.963C645.189 69.839 646.359 69.8613 647.474 69.9059C655.99 69.9059 668.363 70.8978 669.578 75.6569C673.067 89.3212 682.062 87.5379 682.062 95.5737C682.062 104.256 669.801 109.505 669.221 120.517V138.35C669.221 158.412 682.084 154.8 682.084 163.772C682.084 172.745 669.266 177.927 669.266 189.485V189.485ZM659.59 163.85C659.59 155.48 648.444 158.044 646.894 142.15V120.383C648.756 110.776 659.479 105.66 659.479 97.5465C659.479 94.3477 657.84 92.7428 655.734 91.0933H641.109C642.217 92.3392 642.804 93.9632 642.748 95.6295C642.748 103.922 631.601 109.082 630.052 119.113V142.072C631.545 158.021 642.748 155.447 642.748 163.817C642.748 172.187 631.545 177.225 630.052 187.256V203.807H639.571C646.159 203.807 646.894 201.243 646.894 193.564V187.256C648.399 177.225 659.59 172.098 659.59 163.85V163.85ZM277.685 69.839H224.604V90.7032H229.253H239.953C240.613 91.3414 241.132 92.1102 241.477 92.9603C241.823 93.8105 241.987 94.7234 241.96 95.6406C241.96 103.955 230.679 109.115 229.253 119.213V141.861C230.679 157.988 241.96 155.358 241.96 163.761C241.96 172.165 230.735 177.225 229.253 187.345V210.026C230.679 226.142 241.96 223.523 241.96 231.927C241.96 240.33 230.679 245.413 229.253 255.51V278.191C230.679 294.307 241.96 291.688 241.96 300.092C241.96 308.496 230.679 313.567 229.253 323.664V326.05H251.546V324.344C252.527 313.767 264.342 308.551 264.342 300.047C264.342 291.543 252.527 294.374 251.546 276.965V256.224C252.527 245.647 264.342 240.442 264.342 231.927C264.342 223.412 252.527 226.265 251.546 208.856V188.058C252.527 177.492 264.342 172.276 264.342 163.761C264.342 155.246 252.527 158.099 251.546 140.69V119.871C252.527 109.305 264.342 104.089 264.342 95.5737C264.37 94.6704 264.21 93.771 263.872 92.9327C263.535 92.0943 263.027 91.3351 262.38 90.7032H277.651L277.685 69.839Z" fill="#00D3FF"/>
<path d="M74.2142 170.248C75.5445 168.362 76.3381 166.151 76.5104 163.85C76.5104 154.934 63.6472 158.467 63.6472 138.417V121.375C65.609 109.851 76.5104 104.568 76.5104 95.7409C76.5104 92.6425 74.9722 91.0487 72.9658 89.4549H57.6058C57.2045 89.4549 56.7809 89.4549 56.3239 89.4549H55.2873C57.3048 91.0487 58.8542 92.6536 58.8542 95.7632C58.8542 104.234 47.1391 109.439 46.069 119.926V138.417H46.1805C46.1805 158.467 59.0771 154.934 59.0771 163.85C59.0771 172.767 46.2139 178.016 46.2139 189.485H46.1024V206.526H46.2139C46.2139 226.588 59.0771 222.988 59.0771 231.96C59.0771 240.932 46.2139 246.115 46.2139 257.65H46.1024V274.747H46.2139C46.2139 294.809 59.0771 291.198 59.0771 300.17C58.9874 302.546 58.1876 304.84 56.7809 306.757H69.2205C74.6266 306.757 76.5104 304.862 76.5104 300.159C76.5104 291.187 63.6472 294.787 63.6472 274.736V257.706C63.6472 246.17 76.5104 240.888 76.5104 232.016C76.5104 223.423 64.7284 226.343 63.7141 209.034H54.8525V188.181H84.8704V208.432C85.6395 226.443 97.7002 223.345 97.7002 232.038C97.7002 240.731 85.6395 245.858 84.8704 256.647V276.597C85.6395 294.597 97.7002 291.51 97.7002 300.192C97.7002 309.109 79.8656 324.601 74.4149 325.882C70.7476 327.409 65.9211 328.022 59.6121 328.022H49.3684C36.0705 328.022 29.3045 325.392 26.0942 317.468C29.8284 311.126 36.5052 306.59 36.5052 300.192C36.5052 291.677 24.9127 294.475 23.7423 277.612V256.012C23.7423 246.873 36.5052 240.408 36.5052 232.016C36.5052 223.623 24.9127 226.265 23.7423 209.424V187.847C24.9127 177.47 36.5052 172.243 36.5052 163.85C36.5052 155.458 24.9127 158.122 23.7423 141.259V119.681C24.9127 109.316 36.5052 104.078 36.5052 95.6852C36.5052 88.7862 28.8921 89.31 25.3586 80.7838C28.1564 71.2099 34.967 68.1226 49.3684 68.1226H59.6121C65.4976 68.1226 70.09 68.6687 73.6569 69.9727L73.9913 70.1065L74.5486 70.3294C86.4421 75.2334 97.7002 86.9472 97.7002 95.6852C97.7002 104.423 85.6395 109.517 84.8704 120.305V140.367C85.6395 158.367 97.7002 155.28 97.7002 163.962C97.6022 166.267 96.8267 168.492 95.4708 170.359L80.4229 170.237L74.2142 170.248ZM139.11 304.818C139.837 303.376 140.219 301.785 140.225 300.17C140.225 291.198 127.361 294.798 127.361 274.747H127.283V257.706H127.361C127.361 246.17 140.225 240.888 140.225 232.016C140.225 223.144 127.361 226.633 127.361 206.582H127.283V189.541H127.361C127.361 178.016 140.225 172.722 140.225 163.906C140.225 155.09 127.361 158.523 127.361 138.472H127.283V121.353H127.361C127.361 109.829 140.225 104.535 140.225 95.7186C140.225 86.9026 127.417 90.2908 127.417 70.2291H127.339V69.839H104.645V70.2291H104.7C104.7 90.2908 117.563 86.6797 117.563 95.6518C117.563 104.624 104.7 109.851 104.7 121.375H104.645V138.417H104.7C104.7 158.478 117.563 154.878 117.563 163.85C117.563 172.823 104.7 178.016 104.7 189.485H104.645V206.526H104.7C104.7 226.588 117.563 222.988 117.563 231.96C117.563 240.932 104.7 246.115 104.7 257.65H104.645V274.747H104.7C104.7 294.809 117.563 291.198 117.563 300.17C117.563 309.142 104.7 314.313 104.7 325.86H104.645V326.05H154.459V304.818H139.11ZM187.442 189.485C187.442 177.949 200.305 172.667 200.305 163.784C200.305 154.901 187.442 158.412 187.442 138.361H187.364V121.264H187.442C187.442 109.74 200.305 104.457 200.305 95.6295C200.305 86.8023 187.442 90.2574 187.442 70.2068H187.364V69.839H164.669V73.5058C166.085 89.8338 177.399 87.1701 177.399 95.6072C177.399 104.044 166.085 109.127 164.669 119.269V141.671C166.029 157.999 177.399 155.324 177.399 163.761C177.399 172.198 166.085 177.292 164.669 187.468V209.825C166.029 226.164 177.399 223.49 177.399 231.927C177.399 240.364 166.029 245.446 164.669 255.622V277.991C166.029 294.319 177.399 291.655 177.399 300.092C177.399 308.529 166.085 313.611 164.669 323.787V326.016H187.364V325.749H187.442C187.442 314.224 200.305 308.93 200.305 300.114C200.305 291.298 187.442 294.731 187.442 274.68H187.364V257.617H187.442C187.442 246.092 200.305 240.81 200.305 231.982C200.305 223.155 187.442 226.61 187.442 206.549H187.364V189.485H187.442ZM340.92 170.114C342.256 168.241 343.011 166.016 343.093 163.717C343.093 155.48 332.27 157.821 330.486 142.775V118.656C332.27 108.959 343.093 103.832 343.093 95.6852C343.093 87.5379 333.607 77.1392 322.884 71.678C318.994 69.0142 313.332 68 305.228 68H294.973C280.583 68 273.795 71.0761 270.997 80.6277C274.474 89.31 282.143 88.7305 282.143 95.674C282.143 104.267 270.083 109.505 269.314 120.283V140.233C270.116 158.278 282.177 155.135 282.177 163.85C282.177 172.566 270.116 177.682 269.347 188.46V208.521C270.116 226.51 282.177 223.423 282.177 232.105C282.177 240.787 270.116 245.925 269.347 256.714V276.519C270.116 294.508 282.177 291.41 282.177 300.103C282.177 306.512 275.489 311.048 271.744 317.423C274.909 325.281 281.776 327.889 294.973 327.889H305.228C313.967 327.889 319.875 326.707 323.765 323.553C331.11 318.638 342.547 307.292 342.547 300.148C342.547 292.268 331.634 294.764 330.486 276.82V254.975C332.27 245.279 343.093 240.152 343.093 232.016C343.093 224.526 334.176 225.786 331.177 214.774H310.088C312.964 226.142 322.082 224.805 322.082 232.339C322.082 240.988 309.876 246.237 309.252 257.16V276.898C310.244 294.241 322.037 291.332 322.037 299.914C322.037 304.628 320.165 306.512 314.758 306.512H304.303C303.689 306.594 303.071 306.638 302.452 306.645C303.756 304.793 304.492 302.601 304.57 300.337C304.57 291.599 292.309 294.764 291.741 276.352V256.859C292.343 245.914 304.57 240.665 304.57 232.016C304.57 223.367 292.309 226.443 291.741 208.02V188.694C292.343 177.749 304.57 172.51 304.57 163.85C304.57 155.191 292.309 158.278 291.741 139.866V120.506C292.343 109.561 304.57 104.312 304.57 95.6629C304.57 92.4753 302.943 90.8704 300.859 89.232H301.973C302.475 89.232 302.932 89.232 303.367 89.2877L303.288 89.232H318.203C320.309 90.8815 321.948 92.4865 321.948 95.6852C321.948 103.91 310.924 109.06 309.297 118.923V138.015C309.297 158.01 322.16 154.433 322.16 163.394C321.962 165.811 321.097 168.125 319.663 170.081L340.92 170.114ZM425.634 163.761C425.634 154.934 413.172 158.267 412.782 139.241V120.751C413.172 109.606 425.634 104.323 425.634 95.5737C425.634 86.8246 413.172 90.079 412.782 71.0538V69.839H390.489V72.8928C391.603 89.8896 403.263 87.0698 403.263 95.6072C403.263 104.145 391.637 109.238 390.511 119.681V141.058C391.626 158.055 403.285 155.224 403.285 163.761C403.285 170.449 396.051 175.063 392.428 181.828H374.883C378.495 175.052 385.74 170.415 385.74 163.75C385.74 155.146 373.902 158.099 372.944 140.635V119.904C373.902 109.316 385.74 104.1 385.74 95.5737C385.74 87.0475 373.902 89.9119 372.944 72.4582V69.839H350.249V73.2941C351.364 90.2574 363.012 87.4376 363.012 95.9638C363.012 104.49 351.386 109.606 350.249 120.016V141.459C351.364 158.412 363.012 155.592 363.012 164.129C363.012 172.667 351.386 177.771 350.249 188.181V209.625C351.364 226.577 363.012 223.757 363.012 232.294C363.012 240.832 351.386 245.936 350.249 256.357V277.801C351.364 294.764 363.012 291.945 363.012 300.471C363.012 308.997 351.386 314.113 350.249 324.523V326.072H372.944V324.433C373.902 313.845 385.74 308.629 385.74 300.114C385.74 291.599 373.902 294.452 372.944 276.987V256.257C373.902 245.658 385.74 240.442 385.74 231.927C385.74 223.412 373.902 226.265 372.944 208.811V203.071H390.511V209.212C391.626 226.22 403.285 223.389 403.285 231.927C403.285 240.464 391.637 245.58 390.511 256.001V277.378C391.626 294.374 403.285 291.555 403.285 300.092C403.285 308.629 391.637 313.745 390.511 324.166V326.05H412.804V325.258C413.194 314.113 425.656 308.83 425.656 300.092C425.656 291.354 413.194 294.586 412.804 275.572V257.093C413.194 245.948 425.656 240.665 425.656 231.927C425.656 223.189 413.194 226.421 412.804 207.407V188.939C413.228 177.771 425.69 172.51 425.69 163.761H425.634ZM495.512 188.95V196.473C495.512 218.441 490.385 225.028 470.254 225.028H464.926C467.3 226.844 469.251 228.438 469.251 231.927C469.251 240.843 456.387 246.092 456.387 257.561V274.602C456.387 294.664 469.251 291.064 469.251 300.036C469.251 309.008 456.387 314.202 456.387 325.671V325.938H433.704V323.82C434.964 313.556 446.445 308.362 446.445 299.98C446.445 291.599 434.964 294.229 433.704 277.634V255.778C434.964 245.502 446.445 240.319 446.445 231.927C446.445 223.534 434.964 226.187 433.704 209.636V187.612C434.964 177.336 446.445 172.154 446.445 163.761C446.445 155.369 434.964 158.021 433.704 141.471V119.447C434.964 109.182 446.445 103.989 446.445 95.6072C446.445 87.2258 434.964 89.8561 433.704 73.3164V69.839H470.31C471.536 69.839 472.706 69.8613 473.821 69.9059C482.337 69.9059 494.654 70.909 495.869 75.6569C499.346 89.3212 508.342 87.5379 508.342 95.5737C508.342 104.055 496.627 109.26 495.568 119.737V139.208C495.936 158.267 508.409 154.934 508.409 163.728C508.409 172.522 495.936 177.771 495.568 188.95H495.512ZM473.219 143.053V120.762C474.824 110.865 485.881 105.716 485.881 97.4796C485.881 94.2809 484.232 92.6759 482.125 91.0264H467.634C468.74 92.2781 469.326 93.9046 469.273 95.5737C469.273 104.49 456.41 109.74 456.41 121.264V138.339C456.41 158.4 469.273 154.789 469.273 163.761C469.273 172.733 456.443 177.927 456.443 189.485V203.818H465.929C472.517 203.818 473.252 201.254 473.252 193.575V186.687C475.103 177.069 485.837 171.953 485.837 163.839C485.837 155.725 475.091 157.91 473.241 143.053H473.219ZM575.333 255.934V279.818C577.44 294.542 587.104 292.758 587.104 300.181C587.104 307.147 576.091 318.203 568.745 323.263C564.777 326.607 558.713 327.877 549.718 327.877H538.382C525.285 327.877 518.474 325.325 515.253 317.679C519.031 311.594 525.352 307.136 525.352 300.906C525.352 292.691 514.573 294.998 512.756 280.052V255.655C514.573 245.992 525.352 240.876 525.352 232.74C525.352 224.604 514.573 226.844 512.756 211.887V187.49C514.573 177.838 525.352 172.711 525.352 164.586C525.352 156.461 514.573 158.679 512.756 143.722V119.336C514.573 109.673 525.352 104.557 525.352 96.4208C525.352 89.4883 517.672 90.0568 514.205 81.4079C516.836 71.2433 523.613 68 538.382 68H549.729C550.521 68 551.279 68 552.025 68C563.518 68 572.479 70.0396 574.53 75.6569C579.368 88.8976 587.906 87.5379 587.906 95.5737C587.906 103.61 575.288 109.717 575.288 118.544V141.17C576.459 158.044 588.051 155.246 588.051 163.761C588.051 172.276 576.459 177.392 575.288 187.769V209.324C576.459 226.209 588.051 223.412 588.051 231.927C588.051 240.442 576.526 245.557 575.355 255.934H575.333ZM558.268 306.512C563.685 306.512 565.557 304.628 565.557 299.914C565.557 290.997 552.694 294.798 552.694 274.747C552.694 274.747 552.694 257.294 552.694 257.36C552.694 245.836 565.769 240.81 565.769 231.927C565.769 223.044 552.873 226.555 552.873 206.493V190.276C552.873 178.752 565.736 173.458 565.736 164.642C565.736 155.826 552.873 159.203 552.873 139.152H552.672V120.439C553.441 109.65 565.502 104.423 565.502 95.8189C565.502 92.6202 563.863 91.0153 561.756 89.3769H547.611C546.873 89.2745 546.128 89.226 545.382 89.232H544.323C546.363 90.8481 547.935 92.4419 547.935 95.5737C547.935 104.122 536.019 109.338 535.127 120.004V140.445C536.019 158.077 547.935 155.09 547.935 163.717C547.935 172.343 536.019 177.481 535.127 188.147V208.599C536.019 226.242 547.935 223.244 547.935 231.882C547.935 240.52 535.985 245.691 535.094 256.357V276.82C535.985 294.464 547.901 291.465 547.901 300.103C547.813 302.464 547.017 304.743 545.616 306.645C546.298 306.651 546.98 306.606 547.656 306.512H558.268ZM657.394 189.485V196.495C657.394 218.463 652.267 225.05 632.136 225.05H626.563C628.937 226.867 630.888 228.46 630.888 231.949C630.888 240.241 619.685 245.401 618.192 255.432V278.37C619.685 294.307 630.888 291.744 630.888 300.114C630.888 308.484 619.685 313.556 618.192 323.586V326.072H595.486V323.687C596.924 313.589 608.204 308.429 608.204 300.114C608.204 291.8 596.924 294.33 595.486 278.225V255.499C596.924 245.468 608.204 240.241 608.204 231.927C608.204 223.612 596.924 226.142 595.486 210.037V187.334C596.924 177.303 608.204 172.076 608.204 163.761C608.204 155.447 596.924 157.977 595.486 141.872V119.18C596.924 109.082 608.204 103.922 608.204 95.6072C608.204 87.2927 596.924 89.8227 595.486 73.7176V69.839H632.092C633.318 69.839 634.488 69.8613 635.603 69.9059C644.119 69.9059 656.492 70.8978 657.707 75.6569C661.195 89.3212 670.191 87.5379 670.191 95.5737C670.191 104.256 657.929 109.505 657.35 120.517V138.35C657.35 158.412 670.213 154.8 670.213 163.772C670.213 172.745 657.394 177.927 657.394 189.485ZM647.719 163.85C647.719 155.48 636.573 158.044 635.023 142.15V120.383C636.885 110.72 647.619 105.605 647.619 97.4907C647.619 94.292 645.98 92.6871 643.874 91.0376H629.238C630.349 92.283 630.943 93.9054 630.899 95.5737C630.899 103.866 619.697 109.026 618.203 119.057V142.017C619.697 157.966 630.899 155.391 630.899 163.761C630.899 172.132 619.674 177.225 618.181 187.256V203.807H627.7C634.288 203.807 635.023 201.243 635.023 193.564V187.256C636.528 177.225 647.719 172.098 647.719 163.85ZM265.814 69.839H212.733V90.7032H217.359H228.06C228.719 91.3414 229.238 92.1102 229.584 92.9603C229.929 93.8105 230.094 94.7234 230.066 95.6406C230.066 103.955 218.786 109.115 217.359 119.213V141.861C218.786 157.988 230.066 155.358 230.066 163.761C230.066 172.165 218.808 177.225 217.359 187.345V210.026C218.786 226.142 230.066 223.523 230.066 231.927C230.066 240.33 218.786 245.413 217.359 255.51V278.191C218.786 294.307 230.066 291.688 230.066 300.092C230.066 308.496 218.808 313.567 217.359 323.664V326.05H239.652V324.344C240.633 313.767 252.449 308.551 252.449 300.047C252.449 291.543 240.633 294.374 239.652 276.965V256.224C240.633 245.647 252.449 240.442 252.449 231.927C252.449 223.412 240.633 226.265 239.652 208.856V188.058C240.633 177.492 252.449 172.276 252.449 163.761C252.449 155.246 240.633 158.099 239.652 140.69V119.871C240.633 109.305 252.449 104.089 252.449 95.5737C252.477 94.6704 252.317 93.771 251.979 92.9327C251.641 92.0943 251.133 91.3351 250.487 90.7032H265.758L265.814 69.839Z" fill="#FFB500"/>
<path d="M62.3431 170.248C63.6773 168.364 64.4748 166.153 64.6504 163.85C64.6504 154.934 51.7872 158.467 51.7872 138.417V121.375C53.7379 109.851 64.6504 104.568 64.6504 95.6852C64.6504 92.5868 63.1122 90.993 61.1058 89.3992H45.7012C45.2887 89.3992 44.8763 89.3992 44.4193 89.3992H43.4718C45.4894 90.993 47.0388 92.5979 47.0388 95.7075C47.0388 104.178 35.3125 109.383 34.2536 119.871V138.417H34.365C34.365 158.478 47.2282 154.878 47.2282 163.85C47.2282 172.823 34.365 178.016 34.365 189.485H34.2536V206.526H34.365C34.365 226.588 47.2282 222.988 47.2282 231.96C47.2282 240.932 34.365 246.115 34.365 257.65H34.2536V274.747H34.365C34.365 294.809 47.2282 291.198 47.2282 300.17C47.1386 302.546 46.3387 304.84 44.932 306.757H57.3494C62.7555 306.757 64.6393 304.862 64.6393 300.159C64.6393 291.187 51.7761 294.787 51.7761 274.736V257.706C51.7761 246.17 64.6393 240.888 64.6393 232.016C64.6393 223.423 52.8573 226.343 51.843 209.034H42.9814V188.181H72.9992V208.432C73.7684 226.421 85.829 223.322 85.829 232.016C85.829 240.709 73.7684 245.836 72.9992 256.625V276.575C73.7684 294.575 85.829 291.488 85.829 300.17C85.829 309.086 67.9944 324.578 62.5437 325.86C58.8765 327.387 54.05 328 47.741 328H37.4972C24.1993 328 17.4333 325.37 14.2231 317.445C17.9572 311.104 24.634 306.567 24.634 300.17C24.634 291.655 13.0416 294.452 11.8712 277.589V256.012C11.8712 246.873 24.634 240.408 24.634 232.016C24.634 223.623 13.0416 226.265 11.8712 209.424V187.847C12.9858 177.47 24.634 172.243 24.634 163.85C24.634 155.458 13.0416 158.122 11.8712 141.259V119.681C12.9858 109.316 24.634 104.078 24.634 95.6852C24.634 88.7862 17.0209 89.31 13.4874 80.7838C16.2852 71.2099 23.0958 68.1226 37.4972 68.1226H47.741C53.6264 68.1226 58.2188 68.6687 61.7857 69.9727L62.1201 70.1065L62.6775 70.3294C74.5709 75.2334 85.829 86.9472 85.829 95.6852C85.829 104.423 73.7684 109.517 72.9992 120.305V140.367C73.7684 158.378 85.829 155.291 85.829 163.973C85.731 166.278 84.9556 168.504 83.5997 170.371L68.5517 170.248H62.3431ZM175.57 189.485C175.57 177.949 188.434 172.666 188.434 163.784C188.434 154.901 175.57 158.412 175.57 138.361H175.492V121.264H175.57C175.57 109.74 188.434 104.457 188.434 95.6295C188.434 86.8023 175.57 90.2574 175.57 70.2068H175.492V69.839H152.798V73.5058C154.147 89.8338 165.527 87.1701 165.527 95.6072C165.527 104.044 154.147 109.127 152.798 119.269V141.671C154.147 157.999 165.527 155.324 165.527 163.761C165.527 172.198 154.147 177.292 152.798 187.468V209.825C154.147 226.164 165.527 223.49 165.527 231.927C165.527 240.364 154.147 245.446 152.798 255.622V277.991C154.147 294.319 165.527 291.655 165.527 300.092C165.527 308.529 154.147 313.611 152.798 323.787V326.016H175.492V325.749H175.57C175.57 314.224 188.434 308.93 188.434 300.114C188.434 291.298 175.57 294.731 175.57 274.68H175.492V257.617H175.57C175.57 246.092 188.434 240.81 188.434 231.982C188.434 223.155 175.57 226.61 175.57 206.549H175.492V189.485H175.57ZM329.048 170.114C330.384 168.241 331.14 166.016 331.222 163.717C331.222 155.48 320.399 157.821 318.615 142.775V118.656C320.399 108.959 331.222 103.832 331.222 95.6852C331.222 87.5379 321.736 77.1392 310.991 71.678C307.123 69.0142 301.449 68 293.357 68H283.124C268.734 68 261.946 71.0761 259.137 80.6277C262.626 89.31 270.283 88.7305 270.283 95.674C270.283 104.267 258.223 109.505 257.454 120.283V140.233C258.245 158.278 270.306 155.135 270.306 163.85C270.306 172.566 258.245 177.648 257.487 188.426V208.488C258.256 226.477 270.317 223.389 270.317 232.072C270.317 240.754 258.256 245.892 257.487 256.681V276.486C258.256 294.475 270.317 291.376 270.317 300.07C270.317 306.478 263.629 311.014 259.872 317.39C263.049 325.247 269.904 327.855 283.113 327.855H293.368C302.107 327.855 308.015 326.674 311.905 323.52C319.251 318.604 330.687 307.258 330.687 300.114C330.687 292.234 319.774 294.731 318.626 276.787V254.975C320.41 245.279 331.233 240.152 331.233 232.016C331.233 224.526 322.316 225.785 319.317 214.774H298.217C301.093 226.142 310.211 224.805 310.211 232.339C310.211 240.988 298.005 246.237 297.381 257.16V276.898C298.373 294.241 310.166 291.332 310.166 299.914C310.166 304.628 308.293 306.512 302.887 306.512H292.365C291.755 306.594 291.141 306.639 290.526 306.645C291.83 304.793 292.565 302.601 292.644 300.337C292.644 291.599 280.382 294.764 279.814 276.352V256.859C280.416 245.914 292.644 240.665 292.644 232.016C292.644 223.367 280.382 226.443 279.814 208.02V188.694C280.416 177.749 292.644 172.51 292.644 163.85C292.644 155.191 280.382 158.278 279.814 139.866V120.506C280.416 109.561 292.644 104.312 292.644 95.6629C292.644 92.4753 291.016 90.8704 288.932 89.232H290.046C290.548 89.232 291.005 89.232 291.44 89.2877L291.362 89.232H306.276C308.383 90.8815 310.021 92.4865 310.021 95.6852C310.021 103.91 298.997 109.06 297.37 118.923V138.015C297.37 158.01 310.233 154.433 310.233 163.394C310.035 165.811 309.17 168.125 307.736 170.081L329.048 170.114ZM413.818 163.761C413.818 154.934 401.357 158.267 400.966 139.241V120.751C401.357 109.606 413.818 104.323 413.818 95.5737C413.818 86.8246 401.357 90.079 400.966 71.0538V69.839H378.673V72.8928C379.788 89.8896 391.447 87.0698 391.447 95.6072C391.447 104.145 379.766 109.238 378.64 119.681V141.058C379.754 158.055 391.414 155.224 391.414 163.761C391.414 170.449 384.168 175.063 380.557 181.828H363.012C366.624 175.052 373.869 170.415 373.869 163.75C373.869 155.146 362.031 158.099 361.073 140.635V119.904C362.031 109.316 373.869 104.1 373.869 95.5737C373.869 87.0475 362.031 89.9119 361.073 72.4582V69.839H338.378V73.2941C339.515 90.2908 351.119 87.4376 351.119 95.9638C351.119 104.49 339.493 109.606 338.356 120.016V141.459C339.47 158.412 351.119 155.592 351.119 164.129C351.119 172.666 339.493 177.771 338.356 188.181V209.625C339.47 226.577 351.119 223.757 351.119 232.294C351.119 240.832 339.515 245.936 338.378 256.357V277.801C339.493 294.764 351.141 291.945 351.141 300.471C351.141 308.997 339.515 314.113 338.378 324.523V326.072H361.073V324.433C362.031 313.845 373.869 308.629 373.869 300.114C373.869 291.599 362.031 294.452 361.073 276.987V256.257C362.031 245.658 373.869 240.442 373.869 231.927C373.869 223.412 362.031 226.265 361.073 208.811V203.071H378.64V209.212C379.754 226.22 391.414 223.389 391.414 231.927C391.414 240.464 379.766 245.58 378.64 256.001V277.378C379.754 294.374 391.414 291.555 391.414 300.092C391.414 308.629 379.766 313.745 378.64 324.166V326.05H400.933V325.258C401.323 314.113 413.785 308.83 413.785 300.092C413.785 291.354 401.323 294.586 400.933 275.572V257.093C401.323 245.948 413.785 240.665 413.785 231.927C413.785 223.189 401.323 226.421 400.933 207.407V188.939C401.357 177.771 413.818 172.51 413.818 163.761ZM483.697 188.95V196.473C483.697 218.441 478.569 225.028 458.438 225.028H453.11C455.485 226.844 457.435 228.438 457.435 231.927C457.435 240.843 444.572 246.092 444.572 257.561V274.602C444.572 294.664 457.435 291.064 457.435 300.036C457.435 309.008 444.572 314.202 444.572 325.671V325.938H421.833V323.82C423.092 313.556 434.573 308.362 434.573 299.98C434.573 291.599 423.092 294.229 421.833 277.634V255.778C423.092 245.502 434.573 240.319 434.573 231.927C434.573 223.534 423.092 226.187 421.833 209.636V187.612C423.092 177.336 434.573 172.154 434.573 163.761C434.573 155.369 423.092 158.021 421.833 141.471V119.447C423.092 109.182 434.573 103.989 434.573 95.6072C434.573 87.2258 423.092 89.8561 421.833 73.3164V69.839H458.438C459.665 69.839 460.835 69.8613 461.95 69.9059C470.466 69.9059 482.783 70.909 483.998 75.6569C487.475 89.3212 496.471 87.5379 496.471 95.5737C496.471 104.055 484.756 109.26 483.697 119.737V139.208C484.065 158.267 496.538 154.934 496.538 163.728C496.538 172.522 484.065 177.771 483.697 188.95V188.95ZM461.403 143.053V120.762C463.02 110.865 474.077 105.716 474.077 97.4796C474.077 94.2809 472.427 92.6759 470.321 91.0264H455.83C456.933 92.2752 457.519 93.8972 457.469 95.5626C457.469 104.479 444.605 109.728 444.605 121.253V138.339C444.605 158.4 457.469 154.789 457.469 163.761C457.469 172.733 444.572 177.927 444.572 189.485V203.818H454.091C460.679 203.818 461.403 201.254 461.403 193.575V186.687C463.254 177.069 473.999 171.953 473.999 163.839C473.999 155.725 463.209 157.91 461.359 143.053H461.403ZM563.529 255.934V279.818C565.636 294.541 575.3 292.758 575.3 300.181C575.3 307.147 564.287 318.203 556.93 323.263C552.973 326.607 546.898 327.877 537.914 327.877H526.522C513.425 327.877 506.614 325.325 503.393 317.679C507.171 311.594 513.492 307.136 513.492 300.906C513.492 292.691 502.713 294.998 500.896 280.052V255.655C502.713 245.992 513.492 240.876 513.492 232.74C513.492 224.604 502.713 226.844 500.896 211.887V187.49C502.713 177.838 513.492 172.711 513.492 164.586C513.492 156.461 502.713 158.679 500.896 143.722V119.336C502.713 109.673 513.492 104.557 513.492 96.4208C513.492 89.4883 505.812 90.0568 502.345 81.4079C504.942 71.2433 511.742 68 526.522 68H537.869C538.661 68 539.419 68 540.165 68C551.658 68 560.675 70.0396 562.659 75.6569C567.508 88.8976 576.102 87.5379 576.102 95.5737C576.102 103.61 563.484 109.717 563.484 118.544V141.17C564.655 158.044 576.281 155.246 576.281 163.761C576.281 172.276 564.688 177.392 563.518 187.769V209.324C564.655 226.265 576.281 223.412 576.281 231.927C576.281 240.442 564.655 245.557 563.484 255.934H563.529ZM546.396 306.512C551.814 306.512 553.686 304.628 553.686 299.914C553.686 290.997 540.823 294.798 540.823 274.747C540.823 274.747 540.823 257.294 540.823 257.36C540.823 245.836 553.898 240.809 553.898 231.927C553.898 223.044 541.035 226.555 541.035 206.493V190.276C541.035 178.752 553.898 173.458 553.898 164.642C553.898 155.826 541.035 159.259 541.035 139.208H540.834V120.439C541.603 109.65 553.664 104.423 553.664 95.8189C553.664 92.6202 552.025 91.0153 549.919 89.3769H535.74C535.002 89.2745 534.257 89.226 533.511 89.232H532.396C534.436 90.8481 536.008 92.4419 536.008 95.5737C536.008 104.122 524.092 109.338 523.2 120.004V140.445C524.092 158.077 536.008 155.09 536.008 163.717C536.008 172.343 524.114 177.526 523.223 188.192V208.644C524.114 226.287 536.03 223.289 536.03 231.927C536.03 240.564 524.114 245.691 523.223 256.357V276.82C524.114 294.463 536.03 291.465 536.03 300.103C535.942 302.464 535.146 304.743 533.745 306.645C534.427 306.65 535.109 306.606 535.785 306.512H546.396V306.512ZM645.523 189.485V196.495C645.523 218.463 640.396 225.05 620.265 225.05H614.692C617.066 226.867 619.017 228.46 619.017 231.949C619.017 240.241 607.814 245.401 606.321 255.432V278.37C607.814 294.307 619.017 291.744 619.017 300.114C619.017 308.484 607.814 313.556 606.321 323.586V326.072H583.615V323.687C585.042 313.589 596.333 308.429 596.333 300.114C596.333 291.8 585.042 294.33 583.615 278.225V255.499C585.042 245.468 596.333 240.241 596.333 231.927C596.333 223.612 585.042 226.142 583.615 210.037V187.334C585.042 177.225 596.344 172.076 596.344 163.761C596.344 155.447 585.053 157.977 583.626 141.872V119.18C585.042 109.082 596.344 103.922 596.344 95.6072C596.344 87.2927 585.053 89.8227 583.626 73.7176V69.839H620.232C621.458 69.839 622.628 69.8613 623.743 69.9059C632.259 69.9059 644.632 70.8978 645.847 75.6569C649.335 89.3212 658.331 87.5379 658.331 95.5737C658.331 104.256 646.07 109.505 645.49 120.517V138.35C645.49 158.412 658.353 154.8 658.353 163.772C658.353 172.745 645.523 177.927 645.523 189.485ZM635.848 163.85C635.848 155.48 624.701 158.044 623.152 142.15V120.383C625.014 110.776 635.737 105.66 635.737 97.5465C635.737 94.3477 634.098 92.7428 631.98 91.0933H617.367C618.47 92.3421 619.056 93.9641 619.006 95.6295C619.006 103.922 607.803 109.082 606.31 119.113V142.072C607.803 158.021 619.006 155.447 619.006 163.817C619.006 172.187 607.803 177.225 606.31 187.256V203.807H615.829C622.416 203.807 623.152 201.243 623.152 193.564V187.256C624.657 177.225 635.848 172.098 635.848 163.85ZM253.942 69.839H200.862V90.7032H205.51H216.211C216.871 91.3414 217.39 92.1102 217.735 92.9603C218.081 93.8105 218.245 94.7234 218.217 95.6406C218.217 103.955 206.937 109.115 205.51 119.213V141.861C206.937 157.988 218.217 155.358 218.217 163.761C218.217 172.165 206.937 177.247 205.51 187.345V210.026C206.937 226.142 218.217 223.523 218.217 231.927C218.217 240.33 206.937 245.413 205.51 255.51V278.191C206.937 294.307 218.217 291.688 218.217 300.092C218.217 308.496 206.937 313.567 205.51 323.664V326.05H227.804V324.344C228.784 313.767 240.589 308.551 240.589 300.047C240.589 291.543 228.784 294.374 227.804 276.965V256.224C228.784 245.647 240.589 240.442 240.589 231.927C240.589 223.412 228.784 226.265 227.804 208.856V188.058C228.784 177.492 240.589 172.276 240.589 163.761C240.589 155.246 228.784 158.099 227.804 140.69V119.871C228.784 109.305 240.589 104.089 240.589 95.5737C240.616 94.6714 240.457 93.7732 240.121 92.9351C239.786 92.0971 239.281 91.3373 238.638 90.7032H253.909L253.942 69.839Z" fill="#FF007B"/>
<path d="M127.239 304.818C127.966 303.376 128.348 301.785 128.353 300.17C128.353 291.198 115.49 294.798 115.49 274.747H115.401V257.706H115.49C115.49 246.17 128.353 240.888 128.353 232.016C128.353 223.144 115.49 226.633 115.49 206.582H115.401V189.541H115.49C115.49 178.016 128.353 172.722 128.353 163.906C128.353 155.09 115.49 158.523 115.49 138.472H115.401V121.353H115.49C115.49 109.829 128.353 104.535 128.353 95.7186C128.353 86.9026 115.546 90.2908 115.546 70.2291H115.457V69.839H92.7622V70.2291H92.8291C92.8291 90.2908 105.692 86.6797 105.692 95.6517C105.692 104.624 92.8291 109.851 92.8291 121.375H92.7622V138.417H92.8291C92.8291 158.478 105.692 154.878 105.692 163.85C105.692 172.823 92.8291 178.016 92.8291 189.485H92.7622V206.526H92.8291C92.8291 226.588 105.692 222.988 105.692 231.96C105.692 240.932 92.8291 246.115 92.8291 257.65H92.7622V274.747H92.8291C92.8291 294.809 105.692 291.198 105.692 300.17C105.692 309.142 92.8291 314.313 92.8291 325.86H92.7622V326.05H142.543V325.782H142.61C142.61 316.442 151.059 311.193 154.269 304.818H127.239Z" fill="#FF007B"/>
<path d="M50.4719 170.248C51.8021 168.362 52.5958 166.151 52.7681 163.85C52.7681 154.934 39.8938 158.467 39.8938 138.417V121.375C41.8667 109.851 52.7681 104.568 52.7681 95.7409C52.7681 92.6425 51.2299 91.0487 49.2235 89.4549H33.8523C33.451 89.4549 33.0386 89.4549 32.5816 89.4549H31.5449C33.5625 91.0487 35.1119 92.6536 35.1119 95.7632C35.1119 104.133 23.4079 109.338 22.2933 119.826V138.417H22.4047C22.4047 158.478 35.2679 154.878 35.2679 163.85C35.2679 172.823 22.4047 178.016 22.4047 189.485H22.2933V206.526H22.4047C22.4047 226.588 35.2679 222.988 35.2679 231.96C35.2679 240.932 22.4047 246.115 22.4047 257.65H22.2933V274.747H22.4047C22.4047 294.809 35.2679 291.198 35.2679 300.17C35.1782 302.546 34.3784 304.84 32.9717 306.757H45.4782C50.8843 306.757 52.7681 304.862 52.7681 300.159C52.7681 291.187 39.8938 294.787 39.8938 274.736V257.706C39.8938 246.17 52.7681 240.888 52.7681 232.016C52.7681 223.423 40.9861 226.343 39.9718 209.034H31.1102V188.181H61.1281V208.432C61.8972 226.443 73.9579 223.345 73.9579 232.038C73.9579 240.731 61.8972 245.858 61.1281 256.647V276.597C61.8972 294.597 73.9579 291.51 73.9579 300.192C73.9579 309.109 56.1233 324.601 50.6726 325.882C47.0053 327.409 42.1788 328.022 35.8698 328.022H25.6372C12.3393 328.022 5.57331 325.392 2.36308 317.468C6.0972 311.126 12.774 306.59 12.774 300.192C12.774 291.677 1.18154 294.475 0.0111466 277.612V256.012C0.0111466 246.873 12.774 240.408 12.774 232.016C12.774 223.623 1.1704 226.265 0 209.424V187.847C1.1704 177.47 12.7629 172.243 12.7629 163.85C12.7629 155.458 1.1704 158.122 0 141.259V119.681C1.1704 109.316 12.7629 104.078 12.7629 95.6852C12.7629 88.7862 5.14974 89.31 1.61626 80.7838C4.45865 71.2099 11.2247 68.1226 25.6372 68.1226H35.881C41.7664 68.1226 46.3588 68.6687 49.9257 69.9727L50.2601 70.1065L50.8175 70.3294C62.6998 75.2334 73.9579 86.9472 73.9579 95.6852C73.9579 104.423 61.8972 109.517 61.1281 120.305V140.367C61.8972 158.367 73.9579 155.28 73.9579 163.962C73.8762 166.261 73.1203 168.486 71.7843 170.359L56.7363 170.237L50.4719 170.248ZM163.699 189.485C163.699 177.949 176.563 172.667 176.563 163.784C176.563 154.901 163.699 158.412 163.699 138.361H163.621V121.264H163.699C163.699 109.74 176.563 104.457 176.563 95.6295C176.563 86.8023 163.699 90.2574 163.699 70.2068H163.621V69.839H140.927V73.5058C142.276 89.8338 153.656 87.1701 153.656 95.6072C153.656 104.044 142.276 109.127 140.927 119.269V141.671C142.276 157.999 153.656 155.324 153.656 163.761C153.656 172.198 142.276 177.292 140.927 187.468V209.825C142.276 226.164 153.656 223.49 153.656 231.927C153.656 240.364 142.276 245.446 140.927 255.622V277.991C142.276 294.319 153.656 291.655 153.656 300.092C153.656 308.529 142.276 313.611 140.927 323.787V326.016H163.621V325.749H163.699C163.699 314.224 176.563 308.93 176.563 300.114C176.563 291.298 163.699 294.731 163.699 274.68H163.621V257.617H163.699C163.699 246.092 176.563 240.81 176.563 231.982C176.563 223.155 163.699 226.61 163.699 206.549H163.621V189.485H163.699ZM317.177 170.114C318.513 168.241 319.269 166.016 319.351 163.717C319.351 155.48 308.527 157.821 306.733 142.775V118.656C308.527 108.959 319.351 103.832 319.351 95.6852C319.351 87.5379 309.876 77.1392 299.131 71.678C295.252 69.0142 289.578 68 281.486 68H271.231C256.841 68 250.052 71.0761 247.243 80.6277C250.732 89.31 258.39 88.7305 258.39 95.674C258.39 104.267 246.329 109.505 245.56 120.283V140.233C246.34 158.278 258.435 155.135 258.435 163.85C258.435 172.566 246.34 177.649 245.605 188.426V208.488C246.374 226.477 258.435 223.389 258.435 232.072C258.435 240.754 246.374 245.892 245.605 256.681V276.486C246.374 294.475 258.435 291.376 258.435 300.07C258.435 306.478 251.747 311.014 247.99 317.39C251.167 325.247 258.022 327.855 271.231 327.855H281.486C290.225 327.855 296.132 326.674 300.023 323.52C307.368 318.604 318.805 307.258 318.805 300.114C318.805 292.234 307.892 294.731 306.733 276.787V254.975C308.527 245.279 319.351 240.152 319.351 232.016C319.351 224.526 310.434 225.786 307.424 214.774H286.335C289.221 226.142 298.339 224.805 298.339 232.339C298.339 240.988 286.134 246.237 285.51 257.16V276.898C286.502 294.241 298.295 291.332 298.295 299.914C298.295 304.628 296.422 306.512 291.016 306.512H280.494C279.884 306.594 279.27 306.639 278.654 306.645C279.958 304.793 280.694 302.601 280.772 300.337C280.772 291.599 268.511 294.764 267.931 276.352V256.859C268.544 245.914 280.772 240.665 280.772 232.016C280.772 223.367 268.511 226.443 267.931 208.02V188.694C268.544 177.749 280.772 172.51 280.772 163.85C280.772 155.191 268.511 158.278 267.931 139.866V120.506C268.544 109.561 280.772 104.312 280.772 95.6629C280.772 92.4753 279.145 90.8704 277.061 89.232H278.175C278.677 89.232 279.134 89.232 279.569 89.2877L279.49 89.232H294.405C296.511 90.8815 298.15 92.4865 298.15 95.6852C298.15 103.91 287.126 109.06 285.499 118.923V138.015C285.499 158.01 298.362 154.433 298.362 163.394C298.164 165.811 297.299 168.125 295.865 170.081L317.177 170.114ZM401.947 163.761C401.947 154.934 389.485 158.267 389.095 139.241V120.751C389.485 109.606 401.947 104.323 401.947 95.5737C401.947 86.8246 389.485 90.079 389.095 71.0538V69.839H366.724V72.8928C367.839 89.8896 379.498 87.0698 379.498 95.6072C379.498 104.145 367.894 109.238 366.724 119.681V141.058C367.839 158.055 379.498 155.224 379.498 163.761C379.498 170.449 372.253 175.063 368.641 181.828H351.119C354.73 175.052 361.975 170.415 361.975 163.75C361.975 155.146 350.138 158.099 349.179 140.635V119.904C350.138 109.316 361.975 104.1 361.975 95.5737C361.975 87.0475 350.16 89.9119 349.201 72.4582V69.839H326.507V73.2941C327.622 90.2574 339.27 87.4376 339.27 95.9638C339.27 104.49 327.644 109.606 326.507 120.016V141.459C327.622 158.412 339.27 155.592 339.27 164.129C339.27 172.667 327.644 177.771 326.507 188.181V209.625C327.622 226.577 339.27 223.757 339.27 232.294C339.27 240.832 327.644 245.936 326.507 256.357V277.801C327.622 294.764 339.27 291.945 339.27 300.471C339.27 308.997 327.644 314.113 326.507 324.523V326.072H349.201V324.433C350.16 313.845 361.998 308.629 361.998 300.114C361.998 291.599 350.16 294.452 349.201 276.987V256.257C350.16 245.658 361.998 240.442 361.998 231.927C361.998 223.412 350.16 226.265 349.201 208.811V203.071H366.724V209.212C367.839 226.22 379.498 223.389 379.498 231.927C379.498 240.464 367.85 245.58 366.724 256.001V277.378C367.839 294.374 379.498 291.555 379.498 300.092C379.498 308.629 367.85 313.745 366.724 324.166V326.05H389.017V325.258C389.407 314.113 401.869 308.83 401.869 300.092C401.869 291.354 389.407 294.586 389.017 275.572V257.093C389.407 245.948 401.869 240.665 401.869 231.927C401.869 223.189 389.407 226.421 389.017 207.407V188.939C389.485 177.771 401.947 172.51 401.947 163.761ZM471.826 188.95V196.473C471.826 218.441 466.698 225.028 446.567 225.028H441.239C443.613 226.844 445.564 228.438 445.564 231.927C445.564 240.843 432.701 246.092 432.701 257.561V274.602C432.701 294.664 445.564 291.064 445.564 300.036C445.564 309.008 432.701 314.202 432.701 325.671V325.938H409.962V323.82C411.221 313.556 422.702 308.362 422.702 299.98C422.702 291.599 411.221 294.229 409.962 277.634V255.778C411.221 245.502 422.702 240.319 422.702 231.927C422.702 223.534 411.221 226.187 409.962 209.636V187.612C411.221 177.336 422.702 172.154 422.702 163.761C422.702 155.369 411.221 158.021 409.962 141.471V119.447C411.221 109.182 422.702 103.989 422.702 95.6072C422.702 87.2258 411.221 89.8561 409.962 73.3164V69.839H446.567C447.793 69.839 448.964 69.8613 450.078 69.9059C458.594 69.9059 470.911 70.909 472.115 75.6569C475.604 89.3212 484.6 87.5379 484.6 95.5737C484.6 104.055 472.884 109.26 471.826 119.737V139.208C472.193 158.267 484.666 154.934 484.666 163.728C484.666 172.522 472.193 177.771 471.826 188.95V188.95ZM449.532 143.053V120.762C451.149 110.865 462.195 105.716 462.195 97.4796C462.195 94.2809 460.556 92.6759 458.45 91.0264H443.959C445.062 92.2752 445.648 93.8972 445.598 95.5626C445.598 104.479 432.734 109.728 432.734 121.253V138.339C432.734 158.4 445.598 154.789 445.598 163.761C445.598 172.733 432.701 177.927 432.701 189.485V203.818H442.22C448.808 203.818 449.532 201.254 449.532 193.575V186.687C451.383 177.069 462.128 171.953 462.128 163.839C462.128 155.725 451.338 157.91 449.488 143.053H449.532ZM551.658 255.934V279.818C553.764 294.542 563.428 292.758 563.428 300.181C563.428 307.147 552.416 318.203 545.059 323.263C541.102 326.607 535.027 327.877 526.043 327.877H514.651C501.554 327.877 494.743 325.325 491.522 317.679C495.3 311.594 501.62 307.136 501.62 300.906C501.62 292.691 490.842 294.998 489.025 280.052V255.655C490.842 245.992 501.62 240.876 501.62 232.74C501.62 224.604 490.842 226.844 489.025 211.887V187.49C490.842 177.838 501.598 172.767 501.598 164.586C501.598 156.405 490.819 158.679 489.002 143.722V119.336C490.842 109.673 501.598 104.557 501.598 96.4208C501.598 89.4883 493.918 90.0568 490.452 81.4079C493.082 71.2433 499.87 68.0334 514.651 68.0334H525.998C526.79 68.0334 527.547 68.0334 528.294 68.0334V68C539.786 68 548.737 70.0396 550.788 75.6569C555.637 88.8976 564.231 87.5379 564.231 95.5737C564.231 103.61 551.613 109.717 551.613 118.544V141.17C552.783 158.044 564.376 155.246 564.376 163.761C564.376 172.276 552.783 177.392 551.613 187.769V209.324C552.783 226.209 564.376 223.412 564.376 231.927C564.376 240.442 552.783 245.557 551.613 255.934H551.658ZM534.525 306.512C539.931 306.512 541.815 304.628 541.815 299.914C541.815 290.997 528.952 294.798 528.952 274.747C528.952 274.747 528.952 257.294 528.952 257.36C528.952 245.836 542.027 240.81 542.027 231.927C542.027 223.044 529.164 226.555 529.164 206.493V190.276C529.164 178.752 542.027 173.458 542.027 164.642C542.027 155.826 529.164 159.259 529.164 139.208H528.963V120.439C529.688 109.65 541.726 104.423 541.726 95.8635C541.726 92.6648 540.087 91.0598 537.981 89.4215H523.891C523.153 89.3191 522.408 89.2706 521.662 89.2766H520.547C522.587 90.8927 524.159 92.4865 524.159 95.6183C524.159 104.167 512.243 109.383 511.351 120.049V140.445C512.243 158.077 524.159 155.09 524.159 163.717C524.159 172.343 512.243 177.481 511.351 188.147V208.599C512.243 226.242 524.159 223.244 524.159 231.882C524.159 240.52 512.243 245.691 511.351 256.357V276.82C512.243 294.464 524.159 291.465 524.159 300.103C524.071 302.464 523.275 304.743 521.874 306.645C522.549 306.649 523.223 306.605 523.891 306.512H534.503H534.525ZM633.652 189.485V196.495C633.652 218.463 628.525 225.05 608.394 225.05H602.821C605.195 226.867 607.146 228.46 607.146 231.949C607.146 240.241 595.999 245.401 594.45 255.432V278.37C595.943 294.307 607.146 291.744 607.146 300.114C607.146 308.484 595.999 313.556 594.45 323.586V326.072H571.744V323.687C573.171 313.589 584.462 308.429 584.462 300.114C584.462 291.8 573.171 294.33 571.744 278.225V255.499C573.171 245.468 584.462 240.241 584.462 231.927C584.462 223.612 573.171 226.142 571.744 210.037V187.334C573.171 177.303 584.462 172.076 584.462 163.761C584.462 155.447 573.171 157.977 571.744 141.872V119.18C573.171 109.082 584.462 103.922 584.462 95.6072C584.462 87.2927 573.171 89.8227 571.744 73.7176V69.839H608.349C609.576 69.839 610.735 69.839 611.861 69.9059C620.365 69.9059 632.749 70.8978 633.964 75.6569C637.453 89.3212 646.504 87.5379 646.504 95.5737C646.504 104.256 634.243 109.505 633.663 120.517V138.35C633.663 158.412 646.527 154.8 646.527 163.772C646.527 172.745 633.652 177.927 633.652 189.485ZM623.966 163.85C623.966 155.48 612.819 158.044 611.281 142.15V120.383C613.142 110.776 623.865 105.66 623.865 97.5465C623.865 94.3477 622.227 92.7428 620.109 91.0933H605.496C606.599 92.3421 607.185 93.9641 607.134 95.6295C607.134 103.922 595.988 109.082 594.438 119.113V142.072C595.932 158.021 607.134 155.447 607.134 163.817C607.134 172.187 595.932 177.225 594.438 187.256V203.807H603.958C610.545 203.807 611.281 201.243 611.281 193.564V187.256C612.786 177.225 623.966 172.098 623.966 163.85ZM242.071 69.839H188.991V90.7032H193.639H204.34C204.999 91.3414 205.518 92.1102 205.864 92.9603C206.209 93.8105 206.374 94.7234 206.346 95.6406C206.346 103.955 195.066 109.115 193.639 119.213V141.861C195.066 157.988 206.346 155.358 206.346 163.761C206.346 172.165 195.066 177.225 193.639 187.345V210.026C195.066 226.142 206.346 223.523 206.346 231.927C206.346 240.33 195.066 245.413 193.639 255.51V278.191C195.066 294.307 206.346 291.688 206.346 300.092C206.346 308.496 195.066 313.567 193.639 323.664V326.05H215.932V324.344C216.902 313.767 228.718 308.551 228.718 300.047C228.718 291.543 216.902 294.374 215.932 276.965V256.224C216.902 245.647 228.718 240.442 228.718 231.927C228.718 223.412 216.902 226.265 215.932 208.856V188.058C216.902 177.492 228.718 172.276 228.718 163.761C228.718 155.246 216.902 158.099 215.932 140.69V119.871C216.902 109.305 228.718 104.089 228.718 95.5737C228.745 94.6714 228.586 93.7732 228.25 92.9351C227.914 92.0971 227.41 91.3373 226.767 90.7032H242.038L242.071 69.839Z" fill="black"/>
<path d="M115.368 304.818C116.095 303.376 116.477 301.785 116.482 300.17C116.482 291.198 103.619 294.798 103.619 274.747H103.53V257.706H103.664C103.664 246.17 116.527 240.888 116.527 232.016C116.527 223.144 103.664 226.633 103.664 206.582H103.574V189.541H103.664C103.664 178.016 116.538 172.767 116.538 163.85C116.538 154.934 103.664 158.467 103.664 138.417H103.574V121.353H103.664C103.664 109.829 116.527 104.535 116.527 95.7186C116.527 86.9026 103.664 90.2908 103.664 70.2291H103.574V69.839H80.8911V70.2291H80.9468C80.9468 90.2908 93.8211 86.6797 93.8211 95.6517C93.8211 104.624 80.9468 109.851 80.9468 121.375H80.8911V138.417H80.9468C80.9468 158.478 93.8211 154.878 93.8211 163.85C93.8211 172.823 80.9468 178.016 80.9468 189.485H80.8911V206.526H80.9468C80.9468 226.588 93.8211 222.988 93.8211 231.96C93.8211 240.932 80.9468 246.115 80.9468 257.65H80.8911V274.747H80.9468C80.9468 294.809 93.8211 291.198 93.8211 300.17C93.8211 309.142 80.9468 314.313 80.9468 325.86H80.8911V326.05H130.672V325.782H130.739C130.739 316.442 139.188 311.193 142.398 304.818H115.368Z" fill="black"/>
</g>
<defs>
<clipPath id="clip0_3_387">
<rect width="694" height="260" fill="white" transform="translate(0 68)"/>
</clipPath>
</defs>
</svg>
